<?xml version="1.0" encoding="utf-8"?>
<svg xmlns="http://www.w3.org/2000/svg" xmlns:xlink="http://www.w3.org/1999/xlink" width="600" height="400" viewBox="0 0 2400 1600">
<defs>
  <clipPath id="clip740">
    <rect x="0" y="0" width="2400" height="1600"/>
  </clipPath>
</defs>
<path clip-path="url(#clip740)" d="M0 1600 L2400 1600 L2400 0 L0 0  Z" fill="#ffffff" fill-rule="evenodd" fill-opacity="1"/>
<defs>
  <clipPath id="clip741">
    <rect x="480" y="0" width="1681" height="1600"/>
  </clipPath>
</defs>
<path clip-path="url(#clip740)" d="M280.19 1423.18 L2352.76 1423.18 L2352.76 123.472 L280.19 123.472  Z" fill="#ffffff" fill-rule="evenodd" fill-opacity="1"/>
<defs>
  <clipPath id="clip742">
    <rect x="280" y="123" width="2074" height="1301"/>
  </clipPath>
</defs>
<polyline clip-path="url(#clip742)" style="stroke:#000000; stroke-linecap:round; stroke-linejoin:round; stroke-width:2; stroke-opacity:0.1; fill:none" points="608.537,1423.18 608.537,123.472 "/>
<polyline clip-path="url(#clip742)" style="stroke:#000000; stroke-linecap:round; stroke-linejoin:round; stroke-width:2; stroke-opacity:0.1; fill:none" points="945.65,1423.18 945.65,123.472 "/>
<polyline clip-path="url(#clip742)" style="stroke:#000000; stroke-linecap:round; stroke-linejoin:round; stroke-width:2; stroke-opacity:0.1; fill:none" points="1282.76,1423.18 1282.76,123.472 "/>
<polyline clip-path="url(#clip742)" style="stroke:#000000; stroke-linecap:round; stroke-linejoin:round; stroke-width:2; stroke-opacity:0.1; fill:none" points="1619.87,1423.18 1619.87,123.472 "/>
<polyline clip-path="url(#clip742)" style="stroke:#000000; stroke-linecap:round; stroke-linejoin:round; stroke-width:2; stroke-opacity:0.1; fill:none" points="1956.99,1423.18 1956.99,123.472 "/>
<polyline clip-path="url(#clip742)" style="stroke:#000000; stroke-linecap:round; stroke-linejoin:round; stroke-width:2; stroke-opacity:0.1; fill:none" points="2294.1,1423.18 2294.1,123.472 "/>
<polyline clip-path="url(#clip740)" style="stroke:#000000; stroke-linecap:round; stroke-linejoin:round; stroke-width:4; stroke-opacity:1; fill:none" points="280.19,1423.18 2352.76,1423.18 "/>
<polyline clip-path="url(#clip740)" style="stroke:#000000; stroke-linecap:round; stroke-linejoin:round; stroke-width:4; stroke-opacity:1; fill:none" points="608.537,1423.18 608.537,1404.28 "/>
<polyline clip-path="url(#clip740)" style="stroke:#000000; stroke-linecap:round; stroke-linejoin:round; stroke-width:4; stroke-opacity:1; fill:none" points="945.65,1423.18 945.65,1404.28 "/>
<polyline clip-path="url(#clip740)" style="stroke:#000000; stroke-linecap:round; stroke-linejoin:round; stroke-width:4; stroke-opacity:1; fill:none" points="1282.76,1423.18 1282.76,1404.28 "/>
<polyline clip-path="url(#clip740)" style="stroke:#000000; stroke-linecap:round; stroke-linejoin:round; stroke-width:4; stroke-opacity:1; fill:none" points="1619.87,1423.18 1619.87,1404.28 "/>
<polyline clip-path="url(#clip740)" style="stroke:#000000; stroke-linecap:round; stroke-linejoin:round; stroke-width:4; stroke-opacity:1; fill:none" points="1956.99,1423.18 1956.99,1404.28 "/>
<polyline clip-path="url(#clip740)" style="stroke:#000000; stroke-linecap:round; stroke-linejoin:round; stroke-width:4; stroke-opacity:1; fill:none" points="2294.1,1423.18 2294.1,1404.28 "/>
<path clip-path="url(#clip740)" d="M568.156 1451.02 L586.512 1451.02 L586.512 1454.96 L572.438 1454.96 L572.438 1463.43 Q573.456 1463.08 574.475 1462.92 Q575.494 1462.73 576.512 1462.73 Q582.299 1462.73 585.679 1465.9 Q589.058 1469.08 589.058 1474.49 Q589.058 1480.07 585.586 1483.17 Q582.114 1486.25 575.794 1486.25 Q573.619 1486.25 571.35 1485.88 Q569.105 1485.51 566.697 1484.77 L566.697 1480.07 Q568.781 1481.2 571.003 1481.76 Q573.225 1482.32 575.702 1482.32 Q579.706 1482.32 582.044 1480.21 Q584.382 1478.1 584.382 1474.49 Q584.382 1470.88 582.044 1468.77 Q579.706 1466.67 575.702 1466.67 Q573.827 1466.67 571.952 1467.08 Q570.1 1467.5 568.156 1468.38 L568.156 1451.02 Z" fill="#000000" fill-rule="nonzero" fill-opacity="1" /><path clip-path="url(#clip740)" d="M608.271 1454.1 Q604.66 1454.1 602.831 1457.66 Q601.026 1461.2 601.026 1468.33 Q601.026 1475.44 602.831 1479.01 Q604.66 1482.55 608.271 1482.55 Q611.905 1482.55 613.711 1479.01 Q615.54 1475.44 615.54 1468.33 Q615.54 1461.2 613.711 1457.66 Q611.905 1454.1 608.271 1454.1 M608.271 1450.39 Q614.081 1450.39 617.137 1455 Q620.215 1459.58 620.215 1468.33 Q620.215 1477.06 617.137 1481.67 Q614.081 1486.25 608.271 1486.25 Q602.461 1486.25 599.382 1481.67 Q596.327 1477.06 596.327 1468.33 Q596.327 1459.58 599.382 1455 Q602.461 1450.39 608.271 1450.39 Z" fill="#000000" fill-rule="nonzero" fill-opacity="1" /><path clip-path="url(#clip740)" d="M638.433 1454.1 Q634.822 1454.1 632.993 1457.66 Q631.188 1461.2 631.188 1468.33 Q631.188 1475.44 632.993 1479.01 Q634.822 1482.55 638.433 1482.55 Q642.067 1482.55 643.873 1479.01 Q645.701 1475.44 645.701 1468.33 Q645.701 1461.2 643.873 1457.66 Q642.067 1454.1 638.433 1454.1 M638.433 1450.39 Q644.243 1450.39 647.299 1455 Q650.377 1459.58 650.377 1468.33 Q650.377 1477.06 647.299 1481.67 Q644.243 1486.25 638.433 1486.25 Q632.623 1486.25 629.544 1481.67 Q626.489 1477.06 626.489 1468.33 Q626.489 1459.58 629.544 1455 Q632.623 1450.39 638.433 1450.39 Z" fill="#000000" fill-rule="nonzero" fill-opacity="1" /><path clip-path="url(#clip740)" d="M890.175 1481.64 L897.814 1481.64 L897.814 1455.28 L889.504 1456.95 L889.504 1452.69 L897.768 1451.02 L902.444 1451.02 L902.444 1481.64 L910.083 1481.64 L910.083 1485.58 L890.175 1485.58 L890.175 1481.64 Z" fill="#000000" fill-rule="nonzero" fill-opacity="1" /><path clip-path="url(#clip740)" d="M929.527 1454.1 Q925.916 1454.1 924.087 1457.66 Q922.282 1461.2 922.282 1468.33 Q922.282 1475.44 924.087 1479.01 Q925.916 1482.55 929.527 1482.55 Q933.161 1482.55 934.967 1479.01 Q936.795 1475.44 936.795 1468.33 Q936.795 1461.2 934.967 1457.66 Q933.161 1454.1 929.527 1454.1 M929.527 1450.39 Q935.337 1450.39 938.393 1455 Q941.471 1459.58 941.471 1468.33 Q941.471 1477.06 938.393 1481.67 Q935.337 1486.25 929.527 1486.25 Q923.717 1486.25 920.638 1481.67 Q917.583 1477.06 917.583 1468.33 Q917.583 1459.58 920.638 1455 Q923.717 1450.39 929.527 1450.39 Z" fill="#000000" fill-rule="nonzero" fill-opacity="1" /><path clip-path="url(#clip740)" d="M959.689 1454.1 Q956.078 1454.1 954.249 1457.66 Q952.443 1461.2 952.443 1468.33 Q952.443 1475.44 954.249 1479.01 Q956.078 1482.55 959.689 1482.55 Q963.323 1482.55 965.129 1479.01 Q966.957 1475.44 966.957 1468.33 Q966.957 1461.2 965.129 1457.66 Q963.323 1454.1 959.689 1454.1 M959.689 1450.39 Q965.499 1450.39 968.554 1455 Q971.633 1459.58 971.633 1468.33 Q971.633 1477.06 968.554 1481.67 Q965.499 1486.25 959.689 1486.25 Q953.879 1486.25 950.8 1481.67 Q947.744 1477.06 947.744 1468.33 Q947.744 1459.58 950.8 1455 Q953.879 1450.39 959.689 1450.39 Z" fill="#000000" fill-rule="nonzero" fill-opacity="1" /><path clip-path="url(#clip740)" d="M989.851 1454.1 Q986.24 1454.1 984.411 1457.66 Q982.605 1461.2 982.605 1468.33 Q982.605 1475.44 984.411 1479.01 Q986.24 1482.55 989.851 1482.55 Q993.485 1482.55 995.29 1479.01 Q997.119 1475.44 997.119 1468.33 Q997.119 1461.2 995.29 1457.66 Q993.485 1454.1 989.851 1454.1 M989.851 1450.39 Q995.661 1450.39 998.716 1455 Q1001.8 1459.58 1001.8 1468.33 Q1001.8 1477.06 998.716 1481.67 Q995.661 1486.25 989.851 1486.25 Q984.041 1486.25 980.962 1481.67 Q977.906 1477.06 977.906 1468.33 Q977.906 1459.58 980.962 1455 Q984.041 1450.39 989.851 1450.39 Z" fill="#000000" fill-rule="nonzero" fill-opacity="1" /><path clip-path="url(#clip740)" d="M1227.29 1481.64 L1234.93 1481.64 L1234.93 1455.28 L1226.62 1456.95 L1226.62 1452.69 L1234.88 1451.02 L1239.56 1451.02 L1239.56 1481.64 L1247.19 1481.64 L1247.19 1485.58 L1227.29 1485.58 L1227.29 1481.64 Z" fill="#000000" fill-rule="nonzero" fill-opacity="1" /><path clip-path="url(#clip740)" d="M1256.69 1451.02 L1275.04 1451.02 L1275.04 1454.96 L1260.97 1454.96 L1260.97 1463.43 Q1261.99 1463.08 1263 1462.92 Q1264.02 1462.73 1265.04 1462.73 Q1270.83 1462.73 1274.21 1465.9 Q1277.59 1469.08 1277.59 1474.49 Q1277.59 1480.07 1274.12 1483.17 Q1270.64 1486.25 1264.32 1486.25 Q1262.15 1486.25 1259.88 1485.88 Q1257.63 1485.51 1255.23 1484.77 L1255.23 1480.07 Q1257.31 1481.2 1259.53 1481.76 Q1261.75 1482.32 1264.23 1482.32 Q1268.24 1482.32 1270.57 1480.21 Q1272.91 1478.1 1272.91 1474.49 Q1272.91 1470.88 1270.57 1468.77 Q1268.24 1466.67 1264.23 1466.67 Q1262.36 1466.67 1260.48 1467.08 Q1258.63 1467.5 1256.69 1468.38 L1256.69 1451.02 Z" fill="#000000" fill-rule="nonzero" fill-opacity="1" /><path clip-path="url(#clip740)" d="M1296.8 1454.1 Q1293.19 1454.1 1291.36 1457.66 Q1289.56 1461.2 1289.56 1468.33 Q1289.56 1475.44 1291.36 1479.01 Q1293.19 1482.55 1296.8 1482.55 Q1300.44 1482.55 1302.24 1479.01 Q1304.07 1475.44 1304.07 1468.33 Q1304.07 1461.2 1302.24 1457.66 Q1300.44 1454.1 1296.8 1454.1 M1296.8 1450.39 Q1302.61 1450.39 1305.67 1455 Q1308.75 1459.58 1308.75 1468.33 Q1308.75 1477.06 1305.67 1481.67 Q1302.61 1486.25 1296.8 1486.25 Q1290.99 1486.25 1287.91 1481.67 Q1284.86 1477.06 1284.86 1468.33 Q1284.86 1459.58 1287.91 1455 Q1290.99 1450.39 1296.8 1450.39 Z" fill="#000000" fill-rule="nonzero" fill-opacity="1" /><path clip-path="url(#clip740)" d="M1326.96 1454.1 Q1323.35 1454.1 1321.52 1457.66 Q1319.72 1461.2 1319.72 1468.33 Q1319.72 1475.44 1321.52 1479.01 Q1323.35 1482.55 1326.96 1482.55 Q1330.6 1482.55 1332.4 1479.01 Q1334.23 1475.44 1334.23 1468.33 Q1334.23 1461.2 1332.4 1457.66 Q1330.6 1454.1 1326.96 1454.1 M1326.96 1450.39 Q1332.77 1450.39 1335.83 1455 Q1338.91 1459.58 1338.91 1468.33 Q1338.91 1477.06 1335.83 1481.67 Q1332.77 1486.25 1326.96 1486.25 Q1321.15 1486.25 1318.07 1481.67 Q1315.02 1477.06 1315.02 1468.33 Q1315.02 1459.58 1318.07 1455 Q1321.15 1450.39 1326.96 1450.39 Z" fill="#000000" fill-rule="nonzero" fill-opacity="1" /><path clip-path="url(#clip740)" d="M1568.49 1481.64 L1584.8 1481.64 L1584.8 1485.58 L1562.86 1485.58 L1562.86 1481.64 Q1565.52 1478.89 1570.11 1474.26 Q1574.71 1469.61 1575.89 1468.27 Q1578.14 1465.74 1579.02 1464.01 Q1579.92 1462.25 1579.92 1460.56 Q1579.92 1457.8 1577.98 1456.07 Q1576.05 1454.33 1572.95 1454.33 Q1570.75 1454.33 1568.3 1455.09 Q1565.87 1455.86 1563.09 1457.41 L1563.09 1452.69 Q1565.92 1451.55 1568.37 1450.97 Q1570.82 1450.39 1572.86 1450.39 Q1578.23 1450.39 1581.43 1453.08 Q1584.62 1455.77 1584.62 1460.26 Q1584.62 1462.39 1583.81 1464.31 Q1583.02 1466.2 1580.92 1468.8 Q1580.34 1469.47 1577.24 1472.69 Q1574.13 1475.88 1568.49 1481.64 Z" fill="#000000" fill-rule="nonzero" fill-opacity="1" /><path clip-path="url(#clip740)" d="M1604.62 1454.1 Q1601.01 1454.1 1599.18 1457.66 Q1597.37 1461.2 1597.37 1468.33 Q1597.37 1475.44 1599.18 1479.01 Q1601.01 1482.55 1604.62 1482.55 Q1608.25 1482.55 1610.06 1479.01 Q1611.89 1475.44 1611.89 1468.33 Q1611.89 1461.2 1610.06 1457.66 Q1608.25 1454.1 1604.62 1454.1 M1604.62 1450.39 Q1610.43 1450.39 1613.49 1455 Q1616.56 1459.58 1616.56 1468.33 Q1616.56 1477.06 1613.49 1481.67 Q1610.43 1486.25 1604.62 1486.25 Q1598.81 1486.25 1595.73 1481.67 Q1592.68 1477.06 1592.68 1468.33 Q1592.68 1459.58 1595.73 1455 Q1598.81 1450.39 1604.62 1450.39 Z" fill="#000000" fill-rule="nonzero" fill-opacity="1" /><path clip-path="url(#clip740)" d="M1634.78 1454.1 Q1631.17 1454.1 1629.34 1457.66 Q1627.54 1461.2 1627.54 1468.33 Q1627.54 1475.44 1629.34 1479.01 Q1631.17 1482.55 1634.78 1482.55 Q1638.42 1482.55 1640.22 1479.01 Q1642.05 1475.44 1642.05 1468.33 Q1642.05 1461.2 1640.22 1457.66 Q1638.42 1454.1 1634.78 1454.1 M1634.78 1450.39 Q1640.59 1450.39 1643.65 1455 Q1646.73 1459.58 1646.73 1468.33 Q1646.73 1477.06 1643.65 1481.67 Q1640.59 1486.25 1634.78 1486.25 Q1628.97 1486.25 1625.89 1481.67 Q1622.84 1477.06 1622.84 1468.33 Q1622.84 1459.58 1625.89 1455 Q1628.97 1450.39 1634.78 1450.39 Z" fill="#000000" fill-rule="nonzero" fill-opacity="1" /><path clip-path="url(#clip740)" d="M1664.94 1454.1 Q1661.33 1454.1 1659.5 1457.66 Q1657.7 1461.2 1657.7 1468.33 Q1657.7 1475.44 1659.5 1479.01 Q1661.33 1482.55 1664.94 1482.55 Q1668.58 1482.55 1670.38 1479.01 Q1672.21 1475.44 1672.21 1468.33 Q1672.21 1461.2 1670.38 1457.66 Q1668.58 1454.1 1664.94 1454.1 M1664.94 1450.39 Q1670.75 1450.39 1673.81 1455 Q1676.89 1459.58 1676.89 1468.33 Q1676.89 1477.06 1673.81 1481.67 Q1670.75 1486.25 1664.94 1486.25 Q1659.13 1486.25 1656.05 1481.67 Q1653 1477.06 1653 1468.33 Q1653 1459.58 1656.05 1455 Q1659.13 1450.39 1664.94 1450.39 Z" fill="#000000" fill-rule="nonzero" fill-opacity="1" /><path clip-path="url(#clip740)" d="M1905.6 1481.64 L1921.92 1481.64 L1921.92 1485.58 L1899.97 1485.58 L1899.97 1481.64 Q1902.63 1478.89 1907.22 1474.26 Q1911.82 1469.61 1913 1468.27 Q1915.25 1465.74 1916.13 1464.01 Q1917.03 1462.25 1917.03 1460.56 Q1917.03 1457.8 1915.09 1456.07 Q1913.17 1454.33 1910.07 1454.33 Q1907.87 1454.33 1905.41 1455.09 Q1902.98 1455.86 1900.2 1457.41 L1900.2 1452.69 Q1903.03 1451.55 1905.48 1450.97 Q1907.94 1450.39 1909.97 1450.39 Q1915.34 1450.39 1918.54 1453.08 Q1921.73 1455.77 1921.73 1460.26 Q1921.73 1462.39 1920.92 1464.31 Q1920.13 1466.2 1918.03 1468.8 Q1917.45 1469.47 1914.35 1472.69 Q1911.25 1475.88 1905.6 1481.64 Z" fill="#000000" fill-rule="nonzero" fill-opacity="1" /><path clip-path="url(#clip740)" d="M1931.78 1451.02 L1950.13 1451.02 L1950.13 1454.96 L1936.06 1454.96 L1936.06 1463.43 Q1937.08 1463.08 1938.1 1462.92 Q1939.12 1462.73 1940.13 1462.73 Q1945.92 1462.73 1949.3 1465.9 Q1952.68 1469.08 1952.68 1474.49 Q1952.68 1480.07 1949.21 1483.17 Q1945.74 1486.25 1939.42 1486.25 Q1937.24 1486.25 1934.97 1485.88 Q1932.73 1485.51 1930.32 1484.77 L1930.32 1480.07 Q1932.4 1481.2 1934.63 1481.76 Q1936.85 1482.32 1939.32 1482.32 Q1943.33 1482.32 1945.67 1480.21 Q1948 1478.1 1948 1474.49 Q1948 1470.88 1945.67 1468.77 Q1943.33 1466.67 1939.32 1466.67 Q1937.45 1466.67 1935.57 1467.08 Q1933.72 1467.5 1931.78 1468.38 L1931.78 1451.02 Z" fill="#000000" fill-rule="nonzero" fill-opacity="1" /><path clip-path="url(#clip740)" d="M1971.89 1454.1 Q1968.28 1454.1 1966.45 1457.66 Q1964.65 1461.2 1964.65 1468.33 Q1964.65 1475.44 1966.45 1479.01 Q1968.28 1482.55 1971.89 1482.55 Q1975.53 1482.55 1977.33 1479.01 Q1979.16 1475.44 1979.16 1468.33 Q1979.16 1461.2 1977.33 1457.66 Q1975.53 1454.1 1971.89 1454.1 M1971.89 1450.39 Q1977.7 1450.39 1980.76 1455 Q1983.84 1459.58 1983.84 1468.33 Q1983.84 1477.06 1980.76 1481.67 Q1977.7 1486.25 1971.89 1486.25 Q1966.08 1486.25 1963 1481.67 Q1959.95 1477.06 1959.95 1468.33 Q1959.95 1459.58 1963 1455 Q1966.08 1450.39 1971.89 1450.39 Z" fill="#000000" fill-rule="nonzero" fill-opacity="1" /><path clip-path="url(#clip740)" d="M2002.06 1454.1 Q1998.44 1454.1 1996.62 1457.66 Q1994.81 1461.2 1994.81 1468.33 Q1994.81 1475.44 1996.62 1479.01 Q1998.44 1482.55 2002.06 1482.55 Q2005.69 1482.55 2007.5 1479.01 Q2009.32 1475.44 2009.32 1468.33 Q2009.32 1461.2 2007.5 1457.66 Q2005.69 1454.1 2002.06 1454.1 M2002.06 1450.39 Q2007.87 1450.39 2010.92 1455 Q2014 1459.58 2014 1468.33 Q2014 1477.06 2010.92 1481.67 Q2007.87 1486.25 2002.06 1486.25 Q1996.25 1486.25 1993.17 1481.67 Q1990.11 1477.06 1990.11 1468.33 Q1990.11 1459.58 1993.17 1455 Q1996.25 1450.39 2002.06 1450.39 Z" fill="#000000" fill-rule="nonzero" fill-opacity="1" /><path clip-path="url(#clip740)" d="M2252.78 1466.95 Q2256.14 1467.66 2258.01 1469.93 Q2259.91 1472.2 2259.91 1475.53 Q2259.91 1480.65 2256.39 1483.45 Q2252.87 1486.25 2246.39 1486.25 Q2244.21 1486.25 2241.9 1485.81 Q2239.61 1485.39 2237.15 1484.54 L2237.15 1480.02 Q2239.1 1481.16 2241.41 1481.74 Q2243.73 1482.32 2246.25 1482.32 Q2250.65 1482.32 2252.94 1480.58 Q2255.26 1478.84 2255.26 1475.53 Q2255.26 1472.48 2253.1 1470.77 Q2250.97 1469.03 2247.15 1469.03 L2243.13 1469.03 L2243.13 1465.19 L2247.34 1465.19 Q2250.79 1465.19 2252.62 1463.82 Q2254.45 1462.43 2254.45 1459.84 Q2254.45 1457.18 2252.55 1455.77 Q2250.67 1454.33 2247.15 1454.33 Q2245.23 1454.33 2243.03 1454.75 Q2240.83 1455.16 2238.2 1456.04 L2238.2 1451.88 Q2240.86 1451.14 2243.17 1450.77 Q2245.51 1450.39 2247.57 1450.39 Q2252.89 1450.39 2256 1452.83 Q2259.1 1455.23 2259.1 1459.35 Q2259.1 1462.22 2257.46 1464.21 Q2255.81 1466.18 2252.78 1466.95 Z" fill="#000000" fill-rule="nonzero" fill-opacity="1" /><path clip-path="url(#clip740)" d="M2278.77 1454.1 Q2275.16 1454.1 2273.33 1457.66 Q2271.53 1461.2 2271.53 1468.33 Q2271.53 1475.44 2273.33 1479.01 Q2275.16 1482.55 2278.77 1482.55 Q2282.41 1482.55 2284.21 1479.01 Q2286.04 1475.44 2286.04 1468.33 Q2286.04 1461.2 2284.21 1457.66 Q2282.41 1454.1 2278.77 1454.1 M2278.77 1450.39 Q2284.58 1450.39 2287.64 1455 Q2290.72 1459.58 2290.72 1468.33 Q2290.72 1477.06 2287.64 1481.67 Q2284.58 1486.25 2278.77 1486.25 Q2272.96 1486.25 2269.89 1481.67 Q2266.83 1477.06 2266.83 1468.33 Q2266.83 1459.58 2269.89 1455 Q2272.96 1450.39 2278.77 1450.39 Z" fill="#000000" fill-rule="nonzero" fill-opacity="1" /><path clip-path="url(#clip740)" d="M2308.94 1454.1 Q2305.33 1454.1 2303.5 1457.66 Q2301.69 1461.2 2301.69 1468.33 Q2301.69 1475.44 2303.5 1479.01 Q2305.33 1482.55 2308.94 1482.55 Q2312.57 1482.55 2314.38 1479.01 Q2316.2 1475.44 2316.2 1468.33 Q2316.2 1461.2 2314.38 1457.66 Q2312.57 1454.1 2308.94 1454.1 M2308.94 1450.39 Q2314.75 1450.39 2317.8 1455 Q2320.88 1459.58 2320.88 1468.33 Q2320.88 1477.06 2317.8 1481.67 Q2314.75 1486.25 2308.94 1486.25 Q2303.13 1486.25 2300.05 1481.67 Q2296.99 1477.06 2296.99 1468.33 Q2296.99 1459.58 2300.05 1455 Q2303.13 1450.39 2308.94 1450.39 Z" fill="#000000" fill-rule="nonzero" fill-opacity="1" /><path clip-path="url(#clip740)" d="M2339.1 1454.1 Q2335.49 1454.1 2333.66 1457.66 Q2331.85 1461.2 2331.85 1468.33 Q2331.85 1475.44 2333.66 1479.01 Q2335.49 1482.55 2339.1 1482.55 Q2342.73 1482.55 2344.54 1479.01 Q2346.37 1475.44 2346.37 1468.33 Q2346.37 1461.2 2344.54 1457.66 Q2342.73 1454.1 2339.1 1454.1 M2339.1 1450.39 Q2344.91 1450.39 2347.96 1455 Q2351.04 1459.58 2351.04 1468.33 Q2351.04 1477.06 2347.96 1481.67 Q2344.91 1486.25 2339.1 1486.25 Q2333.29 1486.25 2330.21 1481.67 Q2327.15 1477.06 2327.15 1468.33 Q2327.15 1459.58 2330.21 1455 Q2333.29 1450.39 2339.1 1450.39 Z" fill="#000000" fill-rule="nonzero" fill-opacity="1" /><path clip-path="url(#clip740)" d="M884.194 1533.45 L884.194 1538.98 Q881.711 1537.71 879.038 1537.07 Q876.364 1536.44 873.499 1536.44 Q869.139 1536.44 866.943 1537.77 Q864.778 1539.11 864.778 1541.79 Q864.778 1543.82 866.338 1545 Q867.898 1546.15 872.608 1547.2 L874.613 1547.64 Q880.852 1548.98 883.462 1551.43 Q886.103 1553.85 886.103 1558.21 Q886.103 1563.17 882.157 1566.07 Q878.242 1568.97 871.367 1568.97 Q868.502 1568.97 865.383 1568.39 Q862.296 1567.85 858.858 1566.74 L858.858 1560.69 Q862.105 1562.38 865.256 1563.24 Q868.407 1564.07 871.494 1564.07 Q875.632 1564.07 877.86 1562.66 Q880.088 1561.23 880.088 1558.65 Q880.088 1556.27 878.465 1554.99 Q876.873 1553.72 871.43 1552.54 L869.393 1552.07 Q863.951 1550.92 861.532 1548.56 Q859.113 1546.18 859.113 1542.04 Q859.113 1537.01 862.678 1534.27 Q866.242 1531.54 872.799 1531.54 Q876.046 1531.54 878.91 1532.01 Q881.775 1532.49 884.194 1533.45 Z" fill="#000000" fill-rule="nonzero" fill-opacity="1" /><path clip-path="url(#clip740)" d="M901.222 1522.27 L901.222 1532.4 L913.285 1532.4 L913.285 1536.95 L901.222 1536.95 L901.222 1556.3 Q901.222 1560.66 902.4 1561.9 Q903.609 1563.14 907.269 1563.14 L913.285 1563.14 L913.285 1568.04 L907.269 1568.04 Q900.49 1568.04 897.912 1565.53 Q895.334 1562.98 895.334 1556.3 L895.334 1536.95 L891.037 1536.95 L891.037 1532.4 L895.334 1532.4 L895.334 1522.27 L901.222 1522.27 Z" fill="#000000" fill-rule="nonzero" fill-opacity="1" /><path clip-path="url(#clip740)" d="M934.801 1536.5 Q930.09 1536.5 927.353 1540.19 Q924.616 1543.85 924.616 1550.25 Q924.616 1556.65 927.321 1560.34 Q930.059 1564 934.801 1564 Q939.48 1564 942.217 1560.31 Q944.954 1556.62 944.954 1550.25 Q944.954 1543.92 942.217 1540.23 Q939.48 1536.5 934.801 1536.5 M934.801 1531.54 Q942.44 1531.54 946.8 1536.5 Q951.161 1541.47 951.161 1550.25 Q951.161 1559 946.8 1564 Q942.44 1568.97 934.801 1568.97 Q927.13 1568.97 922.77 1564 Q918.441 1559 918.441 1550.25 Q918.441 1541.47 922.77 1536.5 Q927.13 1531.54 934.801 1531.54 Z" fill="#000000" fill-rule="nonzero" fill-opacity="1" /><path clip-path="url(#clip740)" d="M986.522 1533.76 L986.522 1539.24 Q984.04 1537.87 981.525 1537.2 Q979.043 1536.5 976.496 1536.5 Q970.799 1536.5 967.648 1540.13 Q964.497 1543.73 964.497 1550.25 Q964.497 1556.78 967.648 1560.4 Q970.799 1564 976.496 1564 Q979.043 1564 981.525 1563.33 Q984.04 1562.63 986.522 1561.26 L986.522 1566.68 Q984.072 1567.82 981.43 1568.39 Q978.82 1568.97 975.86 1568.97 Q967.807 1568.97 963.065 1563.91 Q958.322 1558.85 958.322 1550.25 Q958.322 1541.53 963.097 1536.53 Q967.903 1531.54 976.242 1531.54 Q978.947 1531.54 981.525 1532.11 Q984.104 1532.65 986.522 1533.76 Z" fill="#000000" fill-rule="nonzero" fill-opacity="1" /><path clip-path="url(#clip740)" d="M1026.34 1546.53 L1026.34 1568.04 L1020.48 1568.04 L1020.48 1546.72 Q1020.48 1541.66 1018.51 1539.14 Q1016.54 1536.63 1012.59 1536.63 Q1007.85 1536.63 1005.11 1539.65 Q1002.37 1542.68 1002.37 1547.9 L1002.37 1568.04 L996.485 1568.04 L996.485 1518.52 L1002.37 1518.52 L1002.37 1537.93 Q1004.47 1534.72 1007.31 1533.13 Q1010.17 1531.54 1013.9 1531.54 Q1020.04 1531.54 1023.19 1535.36 Q1026.34 1539.14 1026.34 1546.53 Z" fill="#000000" fill-rule="nonzero" fill-opacity="1" /><path clip-path="url(#clip740)" d="M1054.22 1550.12 Q1047.12 1550.12 1044.39 1551.75 Q1041.65 1553.37 1041.65 1557.29 Q1041.65 1560.4 1043.69 1562.25 Q1045.76 1564.07 1049.29 1564.07 Q1054.16 1564.07 1057.09 1560.63 Q1060.05 1557.16 1060.05 1551.43 L1060.05 1550.12 L1054.22 1550.12 M1065.9 1547.71 L1065.9 1568.04 L1060.05 1568.04 L1060.05 1562.63 Q1058.04 1565.88 1055.05 1567.44 Q1052.06 1568.97 1047.73 1568.97 Q1042.25 1568.97 1039.01 1565.91 Q1035.79 1562.82 1035.79 1557.67 Q1035.79 1551.65 1039.8 1548.6 Q1043.85 1545.54 1051.83 1545.54 L1060.05 1545.54 L1060.05 1544.97 Q1060.05 1540.93 1057.37 1538.73 Q1054.73 1536.5 1049.92 1536.5 Q1046.87 1536.5 1043.97 1537.23 Q1041.08 1537.97 1038.4 1539.43 L1038.4 1534.02 Q1041.62 1532.78 1044.64 1532.17 Q1047.67 1531.54 1050.53 1531.54 Q1058.26 1531.54 1062.08 1535.55 Q1065.9 1539.56 1065.9 1547.71 Z" fill="#000000" fill-rule="nonzero" fill-opacity="1" /><path clip-path="url(#clip740)" d="M1100.69 1533.45 L1100.69 1538.98 Q1098.21 1537.71 1095.54 1537.07 Q1092.86 1536.44 1090 1536.44 Q1085.64 1536.44 1083.44 1537.77 Q1081.28 1539.11 1081.28 1541.79 Q1081.28 1543.82 1082.84 1545 Q1084.4 1546.15 1089.11 1547.2 L1091.11 1547.64 Q1097.35 1548.98 1099.96 1551.43 Q1102.6 1553.85 1102.6 1558.21 Q1102.6 1563.17 1098.65 1566.07 Q1094.74 1568.97 1087.86 1568.97 Q1085 1568.97 1081.88 1568.39 Q1078.79 1567.85 1075.36 1566.74 L1075.36 1560.69 Q1078.6 1562.38 1081.75 1563.24 Q1084.9 1564.07 1087.99 1564.07 Q1092.13 1564.07 1094.36 1562.66 Q1096.59 1561.23 1096.59 1558.65 Q1096.59 1556.27 1094.96 1554.99 Q1093.37 1553.72 1087.93 1552.54 L1085.89 1552.07 Q1080.45 1550.92 1078.03 1548.56 Q1075.61 1546.18 1075.61 1542.04 Q1075.61 1537.01 1079.18 1534.27 Q1082.74 1531.54 1089.3 1531.54 Q1092.54 1531.54 1095.41 1532.01 Q1098.27 1532.49 1100.69 1533.45 Z" fill="#000000" fill-rule="nonzero" fill-opacity="1" /><path clip-path="url(#clip740)" d="M1117.72 1522.27 L1117.72 1532.4 L1129.78 1532.4 L1129.78 1536.95 L1117.72 1536.95 L1117.72 1556.3 Q1117.72 1560.66 1118.9 1561.9 Q1120.11 1563.14 1123.77 1563.14 L1129.78 1563.14 L1129.78 1568.04 L1123.77 1568.04 Q1116.99 1568.04 1114.41 1565.53 Q1111.83 1562.98 1111.83 1556.3 L1111.83 1536.95 L1107.53 1536.95 L1107.53 1532.4 L1111.83 1532.4 L1111.83 1522.27 L1117.72 1522.27 Z" fill="#000000" fill-rule="nonzero" fill-opacity="1" /><path clip-path="url(#clip740)" d="M1137.49 1532.4 L1143.34 1532.4 L1143.34 1568.04 L1137.49 1568.04 L1137.49 1532.4 M1137.49 1518.52 L1143.34 1518.52 L1143.34 1525.93 L1137.49 1525.93 L1137.49 1518.52 Z" fill="#000000" fill-rule="nonzero" fill-opacity="1" /><path clip-path="url(#clip740)" d="M1181.25 1533.76 L1181.25 1539.24 Q1178.77 1537.87 1176.25 1537.2 Q1173.77 1536.5 1171.22 1536.5 Q1165.53 1536.5 1162.38 1540.13 Q1159.22 1543.73 1159.22 1550.25 Q1159.22 1556.78 1162.38 1560.4 Q1165.53 1564 1171.22 1564 Q1173.77 1564 1176.25 1563.33 Q1178.77 1562.63 1181.25 1561.26 L1181.25 1566.68 Q1178.8 1567.82 1176.16 1568.39 Q1173.55 1568.97 1170.59 1568.97 Q1162.53 1568.97 1157.79 1563.91 Q1153.05 1558.85 1153.05 1550.25 Q1153.05 1541.53 1157.82 1536.53 Q1162.63 1531.54 1170.97 1531.54 Q1173.67 1531.54 1176.25 1532.11 Q1178.83 1532.65 1181.25 1533.76 Z" fill="#000000" fill-rule="nonzero" fill-opacity="1" /><path clip-path="url(#clip740)" d="M1235.61 1549.81 Q1235.61 1543.44 1232.97 1539.94 Q1230.36 1536.44 1225.62 1536.44 Q1220.91 1536.44 1218.27 1539.94 Q1215.66 1543.44 1215.66 1549.81 Q1215.66 1556.14 1218.27 1559.64 Q1220.91 1563.14 1225.62 1563.14 Q1230.36 1563.14 1232.97 1559.64 Q1235.61 1556.14 1235.61 1549.81 M1241.47 1563.62 Q1241.47 1572.72 1237.43 1577.15 Q1233.38 1581.6 1225.05 1581.6 Q1221.96 1581.6 1219.22 1581.13 Q1216.48 1580.68 1213.91 1579.72 L1213.91 1574.03 Q1216.48 1575.43 1219 1576.1 Q1221.51 1576.76 1224.12 1576.76 Q1229.88 1576.76 1232.75 1573.74 Q1235.61 1570.75 1235.61 1564.67 L1235.61 1561.77 Q1233.8 1564.92 1230.97 1566.48 Q1228.13 1568.04 1224.19 1568.04 Q1217.63 1568.04 1213.62 1563.05 Q1209.61 1558.05 1209.61 1549.81 Q1209.61 1541.53 1213.62 1536.53 Q1217.63 1531.54 1224.19 1531.54 Q1228.13 1531.54 1230.97 1533.1 Q1233.8 1534.66 1235.61 1537.81 L1235.61 1532.4 L1241.47 1532.4 L1241.47 1563.62 Z" fill="#000000" fill-rule="nonzero" fill-opacity="1" /><path clip-path="url(#clip740)" d="M1274.19 1537.87 Q1273.2 1537.3 1272.02 1537.04 Q1270.88 1536.76 1269.48 1536.76 Q1264.51 1536.76 1261.84 1540 Q1259.2 1543.22 1259.2 1549.27 L1259.2 1568.04 L1253.31 1568.04 L1253.31 1532.4 L1259.2 1532.4 L1259.2 1537.93 Q1261.04 1534.69 1264 1533.13 Q1266.96 1531.54 1271.2 1531.54 Q1271.8 1531.54 1272.53 1531.63 Q1273.27 1531.7 1274.16 1531.85 L1274.19 1537.87 Z" fill="#000000" fill-rule="nonzero" fill-opacity="1" /><path clip-path="url(#clip740)" d="M1296.53 1550.12 Q1289.43 1550.12 1286.7 1551.75 Q1283.96 1553.37 1283.96 1557.29 Q1283.96 1560.4 1286 1562.25 Q1288.07 1564.07 1291.6 1564.07 Q1296.47 1564.07 1299.4 1560.63 Q1302.36 1557.16 1302.36 1551.43 L1302.36 1550.12 L1296.53 1550.12 M1308.21 1547.71 L1308.21 1568.04 L1302.36 1568.04 L1302.36 1562.63 Q1300.35 1565.88 1297.36 1567.44 Q1294.37 1568.97 1290.04 1568.97 Q1284.56 1568.97 1281.32 1565.91 Q1278.1 1562.82 1278.1 1557.67 Q1278.1 1551.65 1282.11 1548.6 Q1286.16 1545.54 1294.15 1545.54 L1302.36 1545.54 L1302.36 1544.97 Q1302.36 1540.93 1299.68 1538.73 Q1297.04 1536.5 1292.24 1536.5 Q1289.18 1536.5 1286.28 1537.23 Q1283.39 1537.97 1280.71 1539.43 L1280.71 1534.02 Q1283.93 1532.78 1286.95 1532.17 Q1289.98 1531.54 1292.84 1531.54 Q1300.57 1531.54 1304.39 1535.55 Q1308.21 1539.56 1308.21 1547.71 Z" fill="#000000" fill-rule="nonzero" fill-opacity="1" /><path clip-path="url(#clip740)" d="M1343.73 1537.81 L1343.73 1518.52 L1349.59 1518.52 L1349.59 1568.04 L1343.73 1568.04 L1343.73 1562.7 Q1341.89 1565.88 1339.06 1567.44 Q1336.25 1568.97 1332.31 1568.97 Q1325.85 1568.97 1321.77 1563.81 Q1317.73 1558.65 1317.73 1550.25 Q1317.73 1541.85 1321.77 1536.69 Q1325.85 1531.54 1332.31 1531.54 Q1336.25 1531.54 1339.06 1533.1 Q1341.89 1534.62 1343.73 1537.81 M1323.78 1550.25 Q1323.78 1556.71 1326.42 1560.4 Q1329.09 1564.07 1333.74 1564.07 Q1338.39 1564.07 1341.06 1560.4 Q1343.73 1556.71 1343.73 1550.25 Q1343.73 1543.79 1341.06 1540.13 Q1338.39 1536.44 1333.74 1536.44 Q1329.09 1536.44 1326.42 1540.13 Q1323.78 1543.79 1323.78 1550.25 Z" fill="#000000" fill-rule="nonzero" fill-opacity="1" /><path clip-path="url(#clip740)" d="M1361.65 1532.4 L1367.51 1532.4 L1367.51 1568.04 L1361.65 1568.04 L1361.65 1532.4 M1361.65 1518.52 L1367.51 1518.52 L1367.51 1525.93 L1361.65 1525.93 L1361.65 1518.52 Z" fill="#000000" fill-rule="nonzero" fill-opacity="1" /><path clip-path="url(#clip740)" d="M1410.26 1548.76 L1410.26 1551.62 L1383.33 1551.62 Q1383.71 1557.67 1386.96 1560.85 Q1390.24 1564 1396.06 1564 Q1399.43 1564 1402.59 1563.17 Q1405.77 1562.35 1408.89 1560.69 L1408.89 1566.23 Q1405.74 1567.57 1402.43 1568.27 Q1399.12 1568.97 1395.71 1568.97 Q1387.18 1568.97 1382.18 1564 Q1377.22 1559.04 1377.22 1550.57 Q1377.22 1541.82 1381.93 1536.69 Q1386.67 1531.54 1394.69 1531.54 Q1401.88 1531.54 1406.05 1536.18 Q1410.26 1540.8 1410.26 1548.76 M1404.4 1547.04 Q1404.34 1542.23 1401.69 1539.37 Q1399.08 1536.5 1394.76 1536.5 Q1389.85 1536.5 1386.89 1539.27 Q1383.97 1542.04 1383.52 1547.07 L1404.4 1547.04 Z" fill="#000000" fill-rule="nonzero" fill-opacity="1" /><path clip-path="url(#clip740)" d="M1449.5 1546.53 L1449.5 1568.04 L1443.64 1568.04 L1443.64 1546.72 Q1443.64 1541.66 1441.67 1539.14 Q1439.7 1536.63 1435.75 1536.63 Q1431.01 1536.63 1428.27 1539.65 Q1425.53 1542.68 1425.53 1547.9 L1425.53 1568.04 L1419.65 1568.04 L1419.65 1532.4 L1425.53 1532.4 L1425.53 1537.93 Q1427.63 1534.72 1430.47 1533.13 Q1433.33 1531.54 1437.06 1531.54 Q1443.2 1531.54 1446.35 1535.36 Q1449.5 1539.14 1449.5 1546.53 Z" fill="#000000" fill-rule="nonzero" fill-opacity="1" /><path clip-path="url(#clip740)" d="M1466.97 1522.27 L1466.97 1532.4 L1479.04 1532.4 L1479.04 1536.95 L1466.97 1536.95 L1466.97 1556.3 Q1466.97 1560.66 1468.15 1561.9 Q1469.36 1563.14 1473.02 1563.14 L1479.04 1563.14 L1479.04 1568.04 L1473.02 1568.04 Q1466.24 1568.04 1463.66 1565.53 Q1461.09 1562.98 1461.09 1556.3 L1461.09 1536.95 L1456.79 1536.95 L1456.79 1532.4 L1461.09 1532.4 L1461.09 1522.27 L1466.97 1522.27 Z" fill="#000000" fill-rule="nonzero" fill-opacity="1" /><path clip-path="url(#clip740)" d="M1530.19 1533.45 L1530.19 1538.98 Q1527.7 1537.71 1525.03 1537.07 Q1522.36 1536.44 1519.49 1536.44 Q1515.13 1536.44 1512.93 1537.77 Q1510.77 1539.11 1510.77 1541.79 Q1510.77 1543.82 1512.33 1545 Q1513.89 1546.15 1518.6 1547.2 L1520.61 1547.64 Q1526.84 1548.98 1529.45 1551.43 Q1532.1 1553.85 1532.1 1558.21 Q1532.1 1563.17 1528.15 1566.07 Q1524.23 1568.97 1517.36 1568.97 Q1514.49 1568.97 1511.37 1568.39 Q1508.29 1567.85 1504.85 1566.74 L1504.85 1560.69 Q1508.1 1562.38 1511.25 1563.24 Q1514.4 1564.07 1517.49 1564.07 Q1521.62 1564.07 1523.85 1562.66 Q1526.08 1561.23 1526.08 1558.65 Q1526.08 1556.27 1524.46 1554.99 Q1522.87 1553.72 1517.42 1552.54 L1515.39 1552.07 Q1509.94 1550.92 1507.52 1548.56 Q1505.1 1546.18 1505.1 1542.04 Q1505.1 1537.01 1508.67 1534.27 Q1512.23 1531.54 1518.79 1531.54 Q1522.04 1531.54 1524.9 1532.01 Q1527.77 1532.49 1530.19 1533.45 Z" fill="#000000" fill-rule="nonzero" fill-opacity="1" /><path clip-path="url(#clip740)" d="M1540.82 1553.98 L1540.82 1532.4 L1546.67 1532.4 L1546.67 1553.75 Q1546.67 1558.81 1548.65 1561.36 Q1550.62 1563.87 1554.57 1563.87 Q1559.31 1563.87 1562.05 1560.85 Q1564.82 1557.83 1564.82 1552.61 L1564.82 1532.4 L1570.67 1532.4 L1570.67 1568.04 L1564.82 1568.04 L1564.82 1562.57 Q1562.68 1565.82 1559.85 1567.41 Q1557.05 1568.97 1553.32 1568.97 Q1547.18 1568.97 1544 1565.15 Q1540.82 1561.33 1540.82 1553.98 M1555.55 1531.54 L1555.55 1531.54 Z" fill="#000000" fill-rule="nonzero" fill-opacity="1" /><path clip-path="url(#clip740)" d="M1608.32 1550.25 Q1608.32 1543.79 1605.65 1540.13 Q1603.01 1536.44 1598.36 1536.44 Q1593.72 1536.44 1591.04 1540.13 Q1588.4 1543.79 1588.4 1550.25 Q1588.4 1556.71 1591.04 1560.4 Q1593.72 1564.07 1598.36 1564.07 Q1603.01 1564.07 1605.65 1560.4 Q1608.32 1556.71 1608.32 1550.25 M1588.4 1537.81 Q1590.25 1534.62 1593.05 1533.1 Q1595.88 1531.54 1599.79 1531.54 Q1606.29 1531.54 1610.33 1536.69 Q1614.4 1541.85 1614.4 1550.25 Q1614.4 1558.65 1610.33 1563.81 Q1606.29 1568.97 1599.79 1568.97 Q1595.88 1568.97 1593.05 1567.44 Q1590.25 1565.88 1588.4 1562.7 L1588.4 1568.04 L1582.51 1568.04 L1582.51 1518.52 L1588.4 1518.52 L1588.4 1537.81 Z" fill="#000000" fill-rule="nonzero" fill-opacity="1" /><path clip-path="url(#clip740)" d="M1646.84 1533.45 L1646.84 1538.98 Q1644.35 1537.71 1641.68 1537.07 Q1639.01 1536.44 1636.14 1536.44 Q1631.78 1536.44 1629.59 1537.77 Q1627.42 1539.11 1627.42 1541.79 Q1627.42 1543.82 1628.98 1545 Q1630.54 1546.15 1635.25 1547.2 L1637.26 1547.64 Q1643.5 1548.98 1646.11 1551.43 Q1648.75 1553.85 1648.75 1558.21 Q1648.75 1563.17 1644.8 1566.07 Q1640.89 1568.97 1634.01 1568.97 Q1631.15 1568.97 1628.03 1568.39 Q1624.94 1567.85 1621.5 1566.74 L1621.5 1560.69 Q1624.75 1562.38 1627.9 1563.24 Q1631.05 1564.07 1634.14 1564.07 Q1638.28 1564.07 1640.5 1562.66 Q1642.73 1561.23 1642.73 1558.65 Q1642.73 1556.27 1641.11 1554.99 Q1639.52 1553.72 1634.07 1552.54 L1632.04 1552.07 Q1626.59 1550.92 1624.18 1548.56 Q1621.76 1546.18 1621.76 1542.04 Q1621.76 1537.01 1625.32 1534.27 Q1628.89 1531.54 1635.44 1531.54 Q1638.69 1531.54 1641.55 1532.01 Q1644.42 1532.49 1646.84 1533.45 Z" fill="#000000" fill-rule="nonzero" fill-opacity="1" /><path clip-path="url(#clip740)" d="M1688.56 1548.76 L1688.56 1551.62 L1661.64 1551.62 Q1662.02 1557.67 1665.27 1560.85 Q1668.54 1564 1674.37 1564 Q1677.74 1564 1680.89 1563.17 Q1684.08 1562.35 1687.2 1560.69 L1687.2 1566.23 Q1684.04 1567.57 1680.73 1568.27 Q1677.42 1568.97 1674.02 1568.97 Q1665.49 1568.97 1660.49 1564 Q1655.53 1559.04 1655.53 1550.57 Q1655.53 1541.82 1660.24 1536.69 Q1664.98 1531.54 1673 1531.54 Q1680.19 1531.54 1684.36 1536.18 Q1688.56 1540.8 1688.56 1548.76 M1682.71 1547.04 Q1682.64 1542.23 1680 1539.37 Q1677.39 1536.5 1673.06 1536.5 Q1668.16 1536.5 1665.2 1539.27 Q1662.27 1542.04 1661.83 1547.07 L1682.71 1547.04 Z" fill="#000000" fill-rule="nonzero" fill-opacity="1" /><path clip-path="url(#clip740)" d="M1703.97 1522.27 L1703.97 1532.4 L1716.03 1532.4 L1716.03 1536.95 L1703.97 1536.95 L1703.97 1556.3 Q1703.97 1560.66 1705.15 1561.9 Q1706.36 1563.14 1710.02 1563.14 L1716.03 1563.14 L1716.03 1568.04 L1710.02 1568.04 Q1703.24 1568.04 1700.66 1565.53 Q1698.08 1562.98 1698.08 1556.3 L1698.08 1536.95 L1693.78 1536.95 L1693.78 1532.4 L1698.08 1532.4 L1698.08 1522.27 L1703.97 1522.27 Z" fill="#000000" fill-rule="nonzero" fill-opacity="1" /><path clip-path="url(#clip740)" d="M1774.09 1546.53 L1774.09 1568.04 L1768.23 1568.04 L1768.23 1546.72 Q1768.23 1541.66 1766.26 1539.14 Q1764.28 1536.63 1760.34 1536.63 Q1755.6 1536.63 1752.86 1539.65 Q1750.12 1542.68 1750.12 1547.9 L1750.12 1568.04 L1744.23 1568.04 L1744.23 1532.4 L1750.12 1532.4 L1750.12 1537.93 Q1752.22 1534.72 1755.05 1533.13 Q1757.92 1531.54 1761.64 1531.54 Q1767.79 1531.54 1770.94 1535.36 Q1774.09 1539.14 1774.09 1546.53 Z" fill="#000000" fill-rule="nonzero" fill-opacity="1" /><polyline clip-path="url(#clip742)" style="stroke:#000000; stroke-linecap:round; stroke-linejoin:round; stroke-width:2; stroke-opacity:0.1; fill:none" points="280.19,1379.02 2352.76,1379.02 "/>
<polyline clip-path="url(#clip742)" style="stroke:#000000; stroke-linecap:round; stroke-linejoin:round; stroke-width:2; stroke-opacity:0.1; fill:none" points="280.19,1113.78 2352.76,1113.78 "/>
<polyline clip-path="url(#clip742)" style="stroke:#000000; stroke-linecap:round; stroke-linejoin:round; stroke-width:2; stroke-opacity:0.1; fill:none" points="280.19,848.544 2352.76,848.544 "/>
<polyline clip-path="url(#clip742)" style="stroke:#000000; stroke-linecap:round; stroke-linejoin:round; stroke-width:2; stroke-opacity:0.1; fill:none" points="280.19,583.307 2352.76,583.307 "/>
<polyline clip-path="url(#clip742)" style="stroke:#000000; stroke-linecap:round; stroke-linejoin:round; stroke-width:2; stroke-opacity:0.1; fill:none" points="280.19,318.07 2352.76,318.07 "/>
<polyline clip-path="url(#clip740)" style="stroke:#000000; stroke-linecap:round; stroke-linejoin:round; stroke-width:4; stroke-opacity:1; fill:none" points="280.19,1423.18 280.19,123.472 "/>
<polyline clip-path="url(#clip740)" style="stroke:#000000; stroke-linecap:round; stroke-linejoin:round; stroke-width:4; stroke-opacity:1; fill:none" points="280.19,1379.02 299.088,1379.02 "/>
<polyline clip-path="url(#clip740)" style="stroke:#000000; stroke-linecap:round; stroke-linejoin:round; stroke-width:4; stroke-opacity:1; fill:none" points="280.19,1113.78 299.088,1113.78 "/>
<polyline clip-path="url(#clip740)" style="stroke:#000000; stroke-linecap:round; stroke-linejoin:round; stroke-width:4; stroke-opacity:1; fill:none" points="280.19,848.544 299.088,848.544 "/>
<polyline clip-path="url(#clip740)" style="stroke:#000000; stroke-linecap:round; stroke-linejoin:round; stroke-width:4; stroke-opacity:1; fill:none" points="280.19,583.307 299.088,583.307 "/>
<polyline clip-path="url(#clip740)" style="stroke:#000000; stroke-linecap:round; stroke-linejoin:round; stroke-width:4; stroke-opacity:1; fill:none" points="280.19,318.07 299.088,318.07 "/>
<path clip-path="url(#clip740)" d="M126.691 1364.82 Q123.08 1364.82 121.251 1368.38 Q119.445 1371.92 119.445 1379.05 Q119.445 1386.16 121.251 1389.72 Q123.08 1393.26 126.691 1393.26 Q130.325 1393.26 132.13 1389.72 Q133.959 1386.16 133.959 1379.05 Q133.959 1371.92 132.13 1368.38 Q130.325 1364.82 126.691 1364.82 M126.691 1361.11 Q132.501 1361.11 135.556 1365.72 Q138.635 1370.3 138.635 1379.05 Q138.635 1387.78 135.556 1392.39 Q132.501 1396.97 126.691 1396.97 Q120.88 1396.97 117.802 1392.39 Q114.746 1387.78 114.746 1379.05 Q114.746 1370.3 117.802 1365.72 Q120.88 1361.11 126.691 1361.11 Z" fill="#000000" fill-rule="nonzero" fill-opacity="1" /><path clip-path="url(#clip740)" d="M146.853 1390.42 L151.737 1390.42 L151.737 1396.3 L146.853 1396.3 L146.853 1390.42 Z" fill="#000000" fill-rule="nonzero" fill-opacity="1" /><path clip-path="url(#clip740)" d="M162.061 1395.58 L162.061 1391.32 Q163.82 1392.15 165.626 1392.59 Q167.431 1393.03 169.167 1393.03 Q173.797 1393.03 176.227 1389.93 Q178.681 1386.81 179.028 1380.46 Q177.686 1382.45 175.626 1383.52 Q173.565 1384.58 171.065 1384.58 Q165.88 1384.58 162.848 1381.46 Q159.839 1378.31 159.839 1372.87 Q159.839 1367.55 162.987 1364.33 Q166.135 1361.11 171.366 1361.11 Q177.362 1361.11 180.51 1365.72 Q183.681 1370.3 183.681 1379.05 Q183.681 1387.22 179.792 1392.11 Q175.926 1396.97 169.376 1396.97 Q167.616 1396.97 165.811 1396.62 Q164.005 1396.27 162.061 1395.58 M171.366 1380.93 Q174.514 1380.93 176.343 1378.77 Q178.195 1376.62 178.195 1372.87 Q178.195 1369.14 176.343 1366.99 Q174.514 1364.82 171.366 1364.82 Q168.218 1364.82 166.366 1366.99 Q164.538 1369.14 164.538 1372.87 Q164.538 1376.62 166.366 1378.77 Q168.218 1380.93 171.366 1380.93 Z" fill="#000000" fill-rule="nonzero" fill-opacity="1" /><path clip-path="url(#clip740)" d="M204.931 1365.81 L193.125 1384.26 L204.931 1384.26 L204.931 1365.81 M203.704 1361.74 L209.584 1361.74 L209.584 1384.26 L214.514 1384.26 L214.514 1388.15 L209.584 1388.15 L209.584 1396.3 L204.931 1396.3 L204.931 1388.15 L189.329 1388.15 L189.329 1383.64 L203.704 1361.74 Z" fill="#000000" fill-rule="nonzero" fill-opacity="1" /><path clip-path="url(#clip740)" d="M232.246 1364.82 Q228.635 1364.82 226.806 1368.38 Q225 1371.92 225 1379.05 Q225 1386.16 226.806 1389.72 Q228.635 1393.26 232.246 1393.26 Q235.88 1393.26 237.685 1389.72 Q239.514 1386.16 239.514 1379.05 Q239.514 1371.92 237.685 1368.38 Q235.88 1364.82 232.246 1364.82 M232.246 1361.11 Q238.056 1361.11 241.111 1365.72 Q244.19 1370.3 244.19 1379.05 Q244.19 1387.78 241.111 1392.39 Q238.056 1396.97 232.246 1396.97 Q226.435 1396.97 223.357 1392.39 Q220.301 1387.78 220.301 1379.05 Q220.301 1370.3 223.357 1365.72 Q226.435 1361.11 232.246 1361.11 Z" fill="#000000" fill-rule="nonzero" fill-opacity="1" /><path clip-path="url(#clip740)" d="M128.288 1099.58 Q124.677 1099.58 122.848 1103.14 Q121.043 1106.69 121.043 1113.82 Q121.043 1120.92 122.848 1124.49 Q124.677 1128.03 128.288 1128.03 Q131.922 1128.03 133.728 1124.49 Q135.556 1120.92 135.556 1113.82 Q135.556 1106.69 133.728 1103.14 Q131.922 1099.58 128.288 1099.58 M128.288 1095.88 Q134.098 1095.88 137.154 1100.48 Q140.232 1105.07 140.232 1113.82 Q140.232 1122.54 137.154 1127.15 Q134.098 1131.73 128.288 1131.73 Q122.478 1131.73 119.399 1127.15 Q116.343 1122.54 116.343 1113.82 Q116.343 1105.07 119.399 1100.48 Q122.478 1095.88 128.288 1095.88 Z" fill="#000000" fill-rule="nonzero" fill-opacity="1" /><path clip-path="url(#clip740)" d="M148.45 1125.18 L153.334 1125.18 L153.334 1131.06 L148.45 1131.06 L148.45 1125.18 Z" fill="#000000" fill-rule="nonzero" fill-opacity="1" /><path clip-path="url(#clip740)" d="M163.658 1130.34 L163.658 1126.08 Q165.417 1126.92 167.223 1127.36 Q169.028 1127.8 170.764 1127.8 Q175.394 1127.8 177.825 1124.69 Q180.278 1121.57 180.626 1115.23 Q179.283 1117.22 177.223 1118.28 Q175.163 1119.35 172.663 1119.35 Q167.477 1119.35 164.445 1116.22 Q161.436 1113.07 161.436 1107.63 Q161.436 1102.31 164.584 1099.09 Q167.732 1095.88 172.964 1095.88 Q178.959 1095.88 182.107 1100.48 Q185.278 1105.07 185.278 1113.82 Q185.278 1121.99 181.389 1126.87 Q177.524 1131.73 170.973 1131.73 Q169.214 1131.73 167.408 1131.38 Q165.602 1131.04 163.658 1130.34 M172.964 1115.69 Q176.112 1115.69 177.94 1113.54 Q179.792 1111.38 179.792 1107.63 Q179.792 1103.91 177.94 1101.75 Q176.112 1099.58 172.964 1099.58 Q169.815 1099.58 167.964 1101.75 Q166.135 1103.91 166.135 1107.63 Q166.135 1111.38 167.964 1113.54 Q169.815 1115.69 172.964 1115.69 Z" fill="#000000" fill-rule="nonzero" fill-opacity="1" /><path clip-path="url(#clip740)" d="M206.528 1100.57 L194.723 1119.02 L206.528 1119.02 L206.528 1100.57 M205.301 1096.5 L211.181 1096.5 L211.181 1119.02 L216.111 1119.02 L216.111 1122.91 L211.181 1122.91 L211.181 1131.06 L206.528 1131.06 L206.528 1122.91 L190.926 1122.91 L190.926 1118.4 L205.301 1096.5 Z" fill="#000000" fill-rule="nonzero" fill-opacity="1" /><path clip-path="url(#clip740)" d="M227.871 1127.13 L244.19 1127.13 L244.19 1131.06 L222.246 1131.06 L222.246 1127.13 Q224.908 1124.37 229.491 1119.74 Q234.097 1115.09 235.278 1113.75 Q237.523 1111.22 238.403 1109.49 Q239.306 1107.73 239.306 1106.04 Q239.306 1103.28 237.361 1101.55 Q235.44 1099.81 232.338 1099.81 Q230.139 1099.81 227.685 1100.57 Q225.255 1101.34 222.477 1102.89 L222.477 1098.17 Q225.301 1097.03 227.755 1096.45 Q230.209 1095.88 232.246 1095.88 Q237.616 1095.88 240.81 1098.56 Q244.005 1101.25 244.005 1105.74 Q244.005 1107.87 243.195 1109.79 Q242.408 1111.69 240.301 1114.28 Q239.722 1114.95 236.621 1118.17 Q233.519 1121.36 227.871 1127.13 Z" fill="#000000" fill-rule="nonzero" fill-opacity="1" /><path clip-path="url(#clip740)" d="M126.205 834.342 Q122.593 834.342 120.765 837.907 Q118.959 841.449 118.959 848.578 Q118.959 855.685 120.765 859.25 Q122.593 862.791 126.205 862.791 Q129.839 862.791 131.644 859.25 Q133.473 855.685 133.473 848.578 Q133.473 841.449 131.644 837.907 Q129.839 834.342 126.205 834.342 M126.205 830.639 Q132.015 830.639 135.07 835.245 Q138.149 839.828 138.149 848.578 Q138.149 857.305 135.07 861.912 Q132.015 866.495 126.205 866.495 Q120.394 866.495 117.316 861.912 Q114.26 857.305 114.26 848.578 Q114.26 839.828 117.316 835.245 Q120.394 830.639 126.205 830.639 Z" fill="#000000" fill-rule="nonzero" fill-opacity="1" /><path clip-path="url(#clip740)" d="M146.366 859.944 L151.251 859.944 L151.251 865.824 L146.366 865.824 L146.366 859.944 Z" fill="#000000" fill-rule="nonzero" fill-opacity="1" /><path clip-path="url(#clip740)" d="M161.575 865.106 L161.575 860.847 Q163.334 861.68 165.14 862.12 Q166.945 862.56 168.681 862.56 Q173.311 862.56 175.741 859.458 Q178.195 856.333 178.542 849.99 Q177.2 851.981 175.139 853.046 Q173.079 854.111 170.579 854.111 Q165.394 854.111 162.362 850.986 Q159.353 847.838 159.353 842.398 Q159.353 837.074 162.501 833.856 Q165.649 830.639 170.88 830.639 Q176.876 830.639 180.024 835.245 Q183.195 839.828 183.195 848.578 Q183.195 856.75 179.306 861.634 Q175.44 866.495 168.889 866.495 Q167.13 866.495 165.325 866.148 Q163.519 865.801 161.575 865.106 M170.88 850.453 Q174.028 850.453 175.857 848.301 Q177.709 846.148 177.709 842.398 Q177.709 838.671 175.857 836.518 Q174.028 834.342 170.88 834.342 Q167.732 834.342 165.88 836.518 Q164.052 838.671 164.052 842.398 Q164.052 846.148 165.88 848.301 Q167.732 850.453 170.88 850.453 Z" fill="#000000" fill-rule="nonzero" fill-opacity="1" /><path clip-path="url(#clip740)" d="M204.445 835.338 L192.639 853.787 L204.445 853.787 L204.445 835.338 M203.218 831.264 L209.098 831.264 L209.098 853.787 L214.028 853.787 L214.028 857.676 L209.098 857.676 L209.098 865.824 L204.445 865.824 L204.445 857.676 L188.843 857.676 L188.843 853.162 L203.218 831.264 Z" fill="#000000" fill-rule="nonzero" fill-opacity="1" /><path clip-path="url(#clip740)" d="M234.607 835.338 L222.801 853.787 L234.607 853.787 L234.607 835.338 M233.38 831.264 L239.259 831.264 L239.259 853.787 L244.19 853.787 L244.19 857.676 L239.259 857.676 L239.259 865.824 L234.607 865.824 L234.607 857.676 L219.005 857.676 L219.005 853.162 L233.38 831.264 Z" fill="#000000" fill-rule="nonzero" fill-opacity="1" /><path clip-path="url(#clip740)" d="M126.529 569.106 Q122.918 569.106 121.089 572.67 Q119.283 576.212 119.283 583.342 Q119.283 590.448 121.089 594.013 Q122.918 597.555 126.529 597.555 Q130.163 597.555 131.968 594.013 Q133.797 590.448 133.797 583.342 Q133.797 576.212 131.968 572.67 Q130.163 569.106 126.529 569.106 M126.529 565.402 Q132.339 565.402 135.394 570.008 Q138.473 574.592 138.473 583.342 Q138.473 592.068 135.394 596.675 Q132.339 601.258 126.529 601.258 Q120.718 601.258 117.64 596.675 Q114.584 592.068 114.584 583.342 Q114.584 574.592 117.64 570.008 Q120.718 565.402 126.529 565.402 Z" fill="#000000" fill-rule="nonzero" fill-opacity="1" /><path clip-path="url(#clip740)" d="M146.691 594.707 L151.575 594.707 L151.575 600.587 L146.691 600.587 L146.691 594.707 Z" fill="#000000" fill-rule="nonzero" fill-opacity="1" /><path clip-path="url(#clip740)" d="M161.899 599.869 L161.899 595.61 Q163.658 596.443 165.464 596.883 Q167.269 597.323 169.005 597.323 Q173.635 597.323 176.065 594.221 Q178.519 591.096 178.866 584.754 Q177.524 586.744 175.464 587.809 Q173.403 588.874 170.903 588.874 Q165.718 588.874 162.686 585.749 Q159.677 582.601 159.677 577.161 Q159.677 571.837 162.825 568.62 Q165.973 565.402 171.204 565.402 Q177.2 565.402 180.348 570.008 Q183.519 574.592 183.519 583.342 Q183.519 591.513 179.63 596.397 Q175.764 601.258 169.214 601.258 Q167.454 601.258 165.649 600.911 Q163.843 600.564 161.899 599.869 M171.204 585.217 Q174.352 585.217 176.181 583.064 Q178.033 580.911 178.033 577.161 Q178.033 573.434 176.181 571.282 Q174.352 569.106 171.204 569.106 Q168.056 569.106 166.204 571.282 Q164.376 573.434 164.376 577.161 Q164.376 580.911 166.204 583.064 Q168.056 585.217 171.204 585.217 Z" fill="#000000" fill-rule="nonzero" fill-opacity="1" /><path clip-path="url(#clip740)" d="M204.769 570.101 L192.963 588.55 L204.769 588.55 L204.769 570.101 M203.542 566.027 L209.422 566.027 L209.422 588.55 L214.352 588.55 L214.352 592.439 L209.422 592.439 L209.422 600.587 L204.769 600.587 L204.769 592.439 L189.167 592.439 L189.167 587.925 L203.542 566.027 Z" fill="#000000" fill-rule="nonzero" fill-opacity="1" /><path clip-path="url(#clip740)" d="M232.662 581.444 Q229.514 581.444 227.662 583.596 Q225.834 585.749 225.834 589.499 Q225.834 593.226 227.662 595.402 Q229.514 597.555 232.662 597.555 Q235.81 597.555 237.639 595.402 Q239.491 593.226 239.491 589.499 Q239.491 585.749 237.639 583.596 Q235.81 581.444 232.662 581.444 M241.945 566.791 L241.945 571.05 Q240.185 570.217 238.38 569.777 Q236.597 569.337 234.838 569.337 Q230.209 569.337 227.755 572.462 Q225.324 575.587 224.977 581.906 Q226.343 579.893 228.403 578.828 Q230.463 577.74 232.94 577.74 Q238.148 577.74 241.158 580.911 Q244.19 584.059 244.19 589.499 Q244.19 594.823 241.042 598.041 Q237.894 601.258 232.662 601.258 Q226.667 601.258 223.496 596.675 Q220.324 592.068 220.324 583.342 Q220.324 575.147 224.213 570.286 Q228.102 565.402 234.653 565.402 Q236.412 565.402 238.195 565.749 Q240 566.096 241.945 566.791 Z" fill="#000000" fill-rule="nonzero" fill-opacity="1" /><path clip-path="url(#clip740)" d="M126.783 303.869 Q123.172 303.869 121.343 307.434 Q119.538 310.975 119.538 318.105 Q119.538 325.211 121.343 328.776 Q123.172 332.318 126.783 332.318 Q130.417 332.318 132.223 328.776 Q134.052 325.211 134.052 318.105 Q134.052 310.975 132.223 307.434 Q130.417 303.869 126.783 303.869 M126.783 300.165 Q132.593 300.165 135.649 304.772 Q138.728 309.355 138.728 318.105 Q138.728 326.832 135.649 331.438 Q132.593 336.022 126.783 336.022 Q120.973 336.022 117.894 331.438 Q114.839 326.832 114.839 318.105 Q114.839 309.355 117.894 304.772 Q120.973 300.165 126.783 300.165 Z" fill="#000000" fill-rule="nonzero" fill-opacity="1" /><path clip-path="url(#clip740)" d="M146.945 329.471 L151.829 329.471 L151.829 335.35 L146.945 335.35 L146.945 329.471 Z" fill="#000000" fill-rule="nonzero" fill-opacity="1" /><path clip-path="url(#clip740)" d="M162.153 334.633 L162.153 330.373 Q163.913 331.207 165.718 331.647 Q167.524 332.086 169.26 332.086 Q173.889 332.086 176.32 328.985 Q178.774 325.86 179.121 319.517 Q177.778 321.508 175.718 322.572 Q173.658 323.637 171.158 323.637 Q165.973 323.637 162.94 320.512 Q159.931 317.364 159.931 311.924 Q159.931 306.6 163.079 303.383 Q166.227 300.165 171.459 300.165 Q177.454 300.165 180.602 304.772 Q183.774 309.355 183.774 318.105 Q183.774 326.276 179.885 331.16 Q176.019 336.022 169.468 336.022 Q167.709 336.022 165.903 335.674 Q164.098 335.327 162.153 334.633 M171.459 319.98 Q174.607 319.98 176.436 317.827 Q178.288 315.674 178.288 311.924 Q178.288 308.198 176.436 306.045 Q174.607 303.869 171.459 303.869 Q168.311 303.869 166.459 306.045 Q164.63 308.198 164.63 311.924 Q164.63 315.674 166.459 317.827 Q168.311 319.98 171.459 319.98 Z" fill="#000000" fill-rule="nonzero" fill-opacity="1" /><path clip-path="url(#clip740)" d="M205.024 304.864 L193.218 323.313 L205.024 323.313 L205.024 304.864 M203.797 300.79 L209.676 300.79 L209.676 323.313 L214.607 323.313 L214.607 327.202 L209.676 327.202 L209.676 335.35 L205.024 335.35 L205.024 327.202 L189.422 327.202 L189.422 322.688 L203.797 300.79 Z" fill="#000000" fill-rule="nonzero" fill-opacity="1" /><path clip-path="url(#clip740)" d="M232.338 318.938 Q229.005 318.938 227.084 320.721 Q225.185 322.503 225.185 325.628 Q225.185 328.753 227.084 330.535 Q229.005 332.318 232.338 332.318 Q235.672 332.318 237.593 330.535 Q239.514 328.73 239.514 325.628 Q239.514 322.503 237.593 320.721 Q235.695 318.938 232.338 318.938 M227.662 316.948 Q224.653 316.207 222.963 314.147 Q221.297 312.086 221.297 309.123 Q221.297 304.98 224.236 302.573 Q227.199 300.165 232.338 300.165 Q237.5 300.165 240.44 302.573 Q243.38 304.98 243.38 309.123 Q243.38 312.086 241.69 314.147 Q240.023 316.207 237.037 316.948 Q240.417 317.735 242.292 320.026 Q244.19 322.318 244.19 325.628 Q244.19 330.651 241.111 333.336 Q238.056 336.022 232.338 336.022 Q226.621 336.022 223.542 333.336 Q220.486 330.651 220.486 325.628 Q220.486 322.318 222.385 320.026 Q224.283 317.735 227.662 316.948 M225.949 309.563 Q225.949 312.248 227.616 313.753 Q229.306 315.258 232.338 315.258 Q235.347 315.258 237.037 313.753 Q238.75 312.248 238.75 309.563 Q238.75 306.878 237.037 305.374 Q235.347 303.869 232.338 303.869 Q229.306 303.869 227.616 305.374 Q225.949 306.878 225.949 309.563 Z" fill="#000000" fill-rule="nonzero" fill-opacity="1" /><path clip-path="url(#clip740)" d="M46.0847 899.017 Q46.0847 906.115 47.7079 908.852 Q49.3312 911.589 53.2461 911.589 Q56.3653 911.589 58.2114 909.552 Q60.0256 907.483 60.0256 903.95 Q60.0256 899.081 56.5881 896.152 Q53.1188 893.192 47.3897 893.192 L46.0847 893.192 L46.0847 899.017 M43.6657 887.336 L64.0042 887.336 L64.0042 893.192 L58.5933 893.192 Q61.8398 895.197 63.3994 898.189 Q64.9272 901.181 64.9272 905.51 Q64.9272 910.984 61.8716 914.231 Q58.7843 917.446 53.6281 917.446 Q47.6125 917.446 44.5569 913.435 Q41.5014 909.393 41.5014 901.404 L41.5014 893.192 L40.9285 893.192 Q36.8862 893.192 34.6901 895.866 Q32.4621 898.508 32.4621 903.314 Q32.4621 906.369 33.1941 909.266 Q33.9262 912.162 35.3903 914.836 L29.9795 914.836 Q28.7381 911.621 28.1334 908.597 Q27.4968 905.574 27.4968 902.709 Q27.4968 894.975 31.5072 891.155 Q35.5176 887.336 43.6657 887.336 Z" fill="#000000" fill-rule="nonzero" fill-opacity="1" /><path clip-path="url(#clip740)" d="M29.7248 849.619 L35.1993 849.619 Q33.8307 852.102 33.1623 854.616 Q32.4621 857.099 32.4621 859.645 Q32.4621 865.342 36.0905 868.493 Q39.6872 871.644 46.212 871.644 Q52.7369 871.644 56.3653 868.493 Q59.9619 865.342 59.9619 859.645 Q59.9619 857.099 59.2935 854.616 Q58.5933 852.102 57.2247 849.619 L62.6355 849.619 Q63.7814 852.07 64.3543 854.712 Q64.9272 857.321 64.9272 860.282 Q64.9272 868.334 59.8664 873.077 Q54.8057 877.819 46.212 877.819 Q37.491 877.819 32.4939 873.045 Q27.4968 868.239 27.4968 859.9 Q27.4968 857.194 28.0697 854.616 Q28.6108 852.038 29.7248 849.619 Z" fill="#000000" fill-rule="nonzero" fill-opacity="1" /><path clip-path="url(#clip740)" d="M29.7248 813.78 L35.1993 813.78 Q33.8307 816.263 33.1623 818.777 Q32.4621 821.26 32.4621 823.806 Q32.4621 829.503 36.0905 832.654 Q39.6872 835.805 46.212 835.805 Q52.7369 835.805 56.3653 832.654 Q59.9619 829.503 59.9619 823.806 Q59.9619 821.26 59.2935 818.777 Q58.5933 816.263 57.2247 813.78 L62.6355 813.78 Q63.7814 816.231 64.3543 818.873 Q64.9272 821.483 64.9272 824.443 Q64.9272 832.495 59.8664 837.238 Q54.8057 841.98 46.212 841.98 Q37.491 841.98 32.4939 837.206 Q27.4968 832.4 27.4968 824.061 Q27.4968 821.355 28.0697 818.777 Q28.6108 816.199 29.7248 813.78 Z" fill="#000000" fill-rule="nonzero" fill-opacity="1" /><path clip-path="url(#clip740)" d="M49.9359 804.2 L28.3562 804.2 L28.3562 798.343 L49.7131 798.343 Q54.7739 798.343 57.3202 796.37 Q59.8346 794.396 59.8346 790.45 Q59.8346 785.707 56.8109 782.97 Q53.7872 780.201 48.5673 780.201 L28.3562 780.201 L28.3562 774.344 L64.0042 774.344 L64.0042 780.201 L58.5296 780.201 Q61.7762 782.333 63.3676 785.166 Q64.9272 787.967 64.9272 791.691 Q64.9272 797.834 61.1078 801.017 Q57.2883 804.2 49.9359 804.2 M27.4968 789.463 L27.4968 789.463 Z" fill="#000000" fill-rule="nonzero" fill-opacity="1" /><path clip-path="url(#clip740)" d="M33.8307 741.625 Q33.2578 742.611 33.0032 743.789 Q32.7167 744.935 32.7167 746.335 Q32.7167 751.301 35.9632 753.974 Q39.1779 756.616 45.2253 756.616 L64.0042 756.616 L64.0042 762.504 L28.3562 762.504 L28.3562 756.616 L33.8944 756.616 Q30.6479 754.77 29.0883 751.81 Q27.4968 748.85 27.4968 744.617 Q27.4968 744.012 27.5923 743.28 Q27.656 742.548 27.8151 741.657 L33.8307 741.625 Z" fill="#000000" fill-rule="nonzero" fill-opacity="1" /><path clip-path="url(#clip740)" d="M46.0847 719.281 Q46.0847 726.379 47.7079 729.116 Q49.3312 731.853 53.2461 731.853 Q56.3653 731.853 58.2114 729.816 Q60.0256 727.748 60.0256 724.215 Q60.0256 719.345 56.5881 716.417 Q53.1188 713.457 47.3897 713.457 L46.0847 713.457 L46.0847 719.281 M43.6657 707.6 L64.0042 707.6 L64.0042 713.457 L58.5933 713.457 Q61.8398 715.462 63.3994 718.454 Q64.9272 721.445 64.9272 725.774 Q64.9272 731.249 61.8716 734.495 Q58.7843 737.71 53.6281 737.71 Q47.6125 737.71 44.5569 733.699 Q41.5014 729.657 41.5014 721.668 L41.5014 713.457 L40.9285 713.457 Q36.8862 713.457 34.6901 716.13 Q32.4621 718.772 32.4621 723.578 Q32.4621 726.634 33.1941 729.53 Q33.9262 732.426 35.3903 735.1 L29.9795 735.1 Q28.7381 731.885 28.1334 728.862 Q27.4968 725.838 27.4968 722.973 Q27.4968 715.239 31.5072 711.419 Q35.5176 707.6 43.6657 707.6 Z" fill="#000000" fill-rule="nonzero" fill-opacity="1" /><path clip-path="url(#clip740)" d="M29.7248 669.883 L35.1993 669.883 Q33.8307 672.366 33.1623 674.88 Q32.4621 677.363 32.4621 679.909 Q32.4621 685.607 36.0905 688.758 Q39.6872 691.909 46.212 691.909 Q52.7369 691.909 56.3653 688.758 Q59.9619 685.607 59.9619 679.909 Q59.9619 677.363 59.2935 674.88 Q58.5933 672.366 57.2247 669.883 L62.6355 669.883 Q63.7814 672.334 64.3543 674.976 Q64.9272 677.586 64.9272 680.546 Q64.9272 688.598 59.8664 693.341 Q54.8057 698.083 46.212 698.083 Q37.491 698.083 32.4939 693.309 Q27.4968 688.503 27.4968 680.164 Q27.4968 677.458 28.0697 674.88 Q28.6108 672.302 29.7248 669.883 Z" fill="#000000" fill-rule="nonzero" fill-opacity="1" /><path clip-path="url(#clip740)" d="M67.3143 644.866 Q73.68 647.349 75.6216 649.704 Q77.5631 652.059 77.5631 656.006 L77.5631 660.685 L72.6615 660.685 L72.6615 657.247 Q72.6615 654.828 71.5157 653.492 Q70.3699 652.155 66.1048 650.532 L63.4312 649.481 L28.3562 663.899 L28.3562 657.693 L56.238 646.553 L28.3562 635.413 L28.3562 629.206 L67.3143 644.866 Z" fill="#000000" fill-rule="nonzero" fill-opacity="1" /><path clip-path="url(#clip740)" d="M709.587 65.7705 L709.587 89.8329 L702.093 89.8329 L702.093 27.2059 L709.587 27.2059 L709.587 34.0924 Q711.936 30.0415 715.501 28.0971 Q719.106 26.1121 724.089 26.1121 Q732.353 26.1121 737.497 32.6746 Q742.683 39.2371 742.683 49.9314 Q742.683 60.6258 737.497 67.1883 Q732.353 73.7508 724.089 73.7508 Q719.106 73.7508 715.501 71.8063 Q711.936 69.8214 709.587 65.7705 M734.945 49.9314 Q734.945 41.7081 731.543 37.0496 Q728.18 32.3505 722.266 32.3505 Q716.352 32.3505 712.949 37.0496 Q709.587 41.7081 709.587 49.9314 Q709.587 58.1548 712.949 62.8538 Q716.352 67.5124 722.266 67.5124 Q728.18 67.5124 731.543 62.8538 Q734.945 58.1548 734.945 49.9314 Z" fill="#000000" fill-rule="nonzero" fill-opacity="1" /><path clip-path="url(#clip740)" d="M781.328 34.1734 Q780.072 33.4443 778.574 33.1202 Q777.115 32.7556 775.333 32.7556 Q769.014 32.7556 765.611 36.8875 Q762.249 40.9789 762.249 48.6757 L762.249 72.576 L754.754 72.576 L754.754 27.2059 L762.249 27.2059 L762.249 34.2544 Q764.598 30.1225 768.365 28.1376 Q772.133 26.1121 777.52 26.1121 Q778.29 26.1121 779.222 26.2337 Q780.153 26.3147 781.288 26.5172 L781.328 34.1734 Z" fill="#000000" fill-rule="nonzero" fill-opacity="1" /><path clip-path="url(#clip740)" d="M826.131 48.0275 L826.131 51.6733 L791.861 51.6733 Q792.347 59.3701 796.479 63.421 Q800.651 67.4314 808.064 67.4314 Q812.358 67.4314 816.369 66.3781 Q820.419 65.3249 824.389 63.2184 L824.389 70.267 Q820.379 71.9684 816.166 72.8596 Q811.953 73.7508 807.619 73.7508 Q796.762 73.7508 790.402 67.4314 Q784.083 61.1119 784.083 50.3365 Q784.083 39.1965 790.078 32.6746 Q796.114 26.1121 806.322 26.1121 Q815.477 26.1121 820.784 32.0264 Q826.131 37.9003 826.131 48.0275 M818.678 45.84 Q818.597 39.7232 815.234 36.0774 Q811.913 32.4315 806.403 32.4315 Q800.165 32.4315 796.398 35.9558 Q792.671 39.4801 792.104 45.8805 L818.678 45.84 Z" fill="#000000" fill-rule="nonzero" fill-opacity="1" /><path clip-path="url(#clip740)" d="M868.22 34.0924 L868.22 9.54393 L875.674 9.54393 L875.674 72.576 L868.22 72.576 L868.22 65.7705 Q865.871 69.8214 862.265 71.8063 Q858.701 73.7508 853.677 73.7508 Q845.454 73.7508 840.269 67.1883 Q835.124 60.6258 835.124 49.9314 Q835.124 39.2371 840.269 32.6746 Q845.454 26.1121 853.677 26.1121 Q858.701 26.1121 862.265 28.0971 Q865.871 30.0415 868.22 34.0924 M842.821 49.9314 Q842.821 58.1548 846.183 62.8538 Q849.586 67.5124 855.5 67.5124 Q861.415 67.5124 864.817 62.8538 Q868.22 58.1548 868.22 49.9314 Q868.22 41.7081 864.817 37.0496 Q861.415 32.3505 855.5 32.3505 Q849.586 32.3505 846.183 37.0496 Q842.821 41.7081 842.821 49.9314 Z" fill="#000000" fill-rule="nonzero" fill-opacity="1" /><path clip-path="url(#clip740)" d="M891.027 27.2059 L898.48 27.2059 L898.48 72.576 L891.027 72.576 L891.027 27.2059 M891.027 9.54393 L898.48 9.54393 L898.48 18.9825 L891.027 18.9825 L891.027 9.54393 Z" fill="#000000" fill-rule="nonzero" fill-opacity="1" /><path clip-path="url(#clip740)" d="M946.727 28.9478 L946.727 35.9153 Q943.567 34.1734 940.367 33.3227 Q937.207 32.4315 933.966 32.4315 Q926.715 32.4315 922.705 37.0496 Q918.694 41.6271 918.694 49.9314 Q918.694 58.2358 922.705 62.8538 Q926.715 67.4314 933.966 67.4314 Q937.207 67.4314 940.367 66.5807 Q943.567 65.6895 946.727 63.9476 L946.727 70.8341 Q943.607 72.2924 940.245 73.0216 Q936.923 73.7508 933.156 73.7508 Q922.907 73.7508 916.872 67.3098 Q910.836 60.8689 910.836 49.9314 Q910.836 38.832 916.912 32.472 Q923.029 26.1121 933.642 26.1121 Q937.086 26.1121 940.367 26.8413 Q943.648 27.5299 946.727 28.9478 Z" fill="#000000" fill-rule="nonzero" fill-opacity="1" /><path clip-path="url(#clip740)" d="M967.062 14.324 L967.062 27.2059 L982.415 27.2059 L982.415 32.9987 L967.062 32.9987 L967.062 57.6282 Q967.062 63.1779 968.561 64.7578 Q970.1 66.3376 974.759 66.3376 L982.415 66.3376 L982.415 72.576 L974.759 72.576 Q966.131 72.576 962.849 69.3758 Q959.568 66.1351 959.568 57.6282 L959.568 32.9987 L954.099 32.9987 L954.099 27.2059 L959.568 27.2059 L959.568 14.324 L967.062 14.324 Z" fill="#000000" fill-rule="nonzero" fill-opacity="1" /><path clip-path="url(#clip740)" d="M1039.21 49.7694 Q1030.18 49.7694 1026.69 51.8354 Q1023.21 53.9013 1023.21 58.8839 Q1023.21 62.8538 1025.8 65.2034 Q1028.43 67.5124 1032.93 67.5124 Q1039.13 67.5124 1042.85 63.1374 Q1046.62 58.7219 1046.62 51.4303 L1046.62 49.7694 L1039.21 49.7694 M1054.08 46.6907 L1054.08 72.576 L1046.62 72.576 L1046.62 65.6895 Q1044.07 69.8214 1040.26 71.8063 Q1036.45 73.7508 1030.94 73.7508 Q1023.98 73.7508 1019.85 69.8619 Q1015.75 65.9325 1015.75 59.3701 Q1015.75 51.7138 1020.86 47.825 Q1026 43.9361 1036.17 43.9361 L1046.62 43.9361 L1046.62 43.2069 Q1046.62 38.0623 1043.22 35.2672 Q1039.86 32.4315 1033.74 32.4315 Q1029.85 32.4315 1026.16 33.3632 Q1022.48 34.295 1019.08 36.1584 L1019.08 29.2718 Q1023.17 27.692 1027.02 26.9223 Q1030.86 26.1121 1034.51 26.1121 Q1044.35 26.1121 1049.21 31.2163 Q1054.08 36.3204 1054.08 46.6907 Z" fill="#000000" fill-rule="nonzero" fill-opacity="1" /><path clip-path="url(#clip740)" d="M1102.08 28.9478 L1102.08 35.9153 Q1098.92 34.1734 1095.72 33.3227 Q1092.56 32.4315 1089.32 32.4315 Q1082.07 32.4315 1078.06 37.0496 Q1074.05 41.6271 1074.05 49.9314 Q1074.05 58.2358 1078.06 62.8538 Q1082.07 67.4314 1089.32 67.4314 Q1092.56 67.4314 1095.72 66.5807 Q1098.92 65.6895 1102.08 63.9476 L1102.08 70.8341 Q1098.96 72.2924 1095.6 73.0216 Q1092.28 73.7508 1088.51 73.7508 Q1078.26 73.7508 1072.22 67.3098 Q1066.19 60.8689 1066.19 49.9314 Q1066.19 38.832 1072.26 32.472 Q1078.38 26.1121 1088.99 26.1121 Q1092.44 26.1121 1095.72 26.8413 Q1099 27.5299 1102.08 28.9478 Z" fill="#000000" fill-rule="nonzero" fill-opacity="1" /><path clip-path="url(#clip740)" d="M1147.69 28.9478 L1147.69 35.9153 Q1144.53 34.1734 1141.33 33.3227 Q1138.17 32.4315 1134.93 32.4315 Q1127.68 32.4315 1123.67 37.0496 Q1119.66 41.6271 1119.66 49.9314 Q1119.66 58.2358 1123.67 62.8538 Q1127.68 67.4314 1134.93 67.4314 Q1138.17 67.4314 1141.33 66.5807 Q1144.53 65.6895 1147.69 63.9476 L1147.69 70.8341 Q1144.57 72.2924 1141.21 73.0216 Q1137.89 73.7508 1134.12 73.7508 Q1123.87 73.7508 1117.84 67.3098 Q1111.8 60.8689 1111.8 49.9314 Q1111.8 38.832 1117.88 32.472 Q1123.99 26.1121 1134.61 26.1121 Q1138.05 26.1121 1141.33 26.8413 Q1144.61 27.5299 1147.69 28.9478 Z" fill="#000000" fill-rule="nonzero" fill-opacity="1" /><path clip-path="url(#clip740)" d="M1159.89 54.671 L1159.89 27.2059 L1167.34 27.2059 L1167.34 54.3874 Q1167.34 60.8284 1169.85 64.0691 Q1172.36 67.2693 1177.39 67.2693 Q1183.42 67.2693 1186.9 63.421 Q1190.43 59.5726 1190.43 52.9291 L1190.43 27.2059 L1197.88 27.2059 L1197.88 72.576 L1190.43 72.576 L1190.43 65.6084 Q1187.71 69.7404 1184.11 71.7658 Q1180.54 73.7508 1175.81 73.7508 Q1167.99 73.7508 1163.94 68.8897 Q1159.89 64.0286 1159.89 54.671 M1178.64 26.1121 L1178.64 26.1121 Z" fill="#000000" fill-rule="nonzero" fill-opacity="1" /><path clip-path="url(#clip740)" d="M1239.53 34.1734 Q1238.27 33.4443 1236.77 33.1202 Q1235.31 32.7556 1233.53 32.7556 Q1227.21 32.7556 1223.81 36.8875 Q1220.45 40.9789 1220.45 48.6757 L1220.45 72.576 L1212.95 72.576 L1212.95 27.2059 L1220.45 27.2059 L1220.45 34.2544 Q1222.8 30.1225 1226.56 28.1376 Q1230.33 26.1121 1235.72 26.1121 Q1236.49 26.1121 1237.42 26.2337 Q1238.35 26.3147 1239.49 26.5172 L1239.53 34.1734 Z" fill="#000000" fill-rule="nonzero" fill-opacity="1" /><path clip-path="url(#clip740)" d="M1267.96 49.7694 Q1258.93 49.7694 1255.45 51.8354 Q1251.96 53.9013 1251.96 58.8839 Q1251.96 62.8538 1254.55 65.2034 Q1257.19 67.5124 1261.68 67.5124 Q1267.88 67.5124 1271.61 63.1374 Q1275.38 58.7219 1275.38 51.4303 L1275.38 49.7694 L1267.96 49.7694 M1282.83 46.6907 L1282.83 72.576 L1275.38 72.576 L1275.38 65.6895 Q1272.82 69.8214 1269.02 71.8063 Q1265.21 73.7508 1259.7 73.7508 Q1252.73 73.7508 1248.6 69.8619 Q1244.51 65.9325 1244.51 59.3701 Q1244.51 51.7138 1249.61 47.825 Q1254.76 43.9361 1264.93 43.9361 L1275.38 43.9361 L1275.38 43.2069 Q1275.38 38.0623 1271.97 35.2672 Q1268.61 32.4315 1262.49 32.4315 Q1258.61 32.4315 1254.92 33.3632 Q1251.23 34.295 1247.83 36.1584 L1247.83 29.2718 Q1251.92 27.692 1255.77 26.9223 Q1259.62 26.1121 1263.26 26.1121 Q1273.11 26.1121 1277.97 31.2163 Q1282.83 36.3204 1282.83 46.6907 Z" fill="#000000" fill-rule="nonzero" fill-opacity="1" /><path clip-path="url(#clip740)" d="M1330.83 28.9478 L1330.83 35.9153 Q1327.67 34.1734 1324.47 33.3227 Q1321.31 32.4315 1318.07 32.4315 Q1310.82 32.4315 1306.81 37.0496 Q1302.8 41.6271 1302.8 49.9314 Q1302.8 58.2358 1306.81 62.8538 Q1310.82 67.4314 1318.07 67.4314 Q1321.31 67.4314 1324.47 66.5807 Q1327.67 65.6895 1330.83 63.9476 L1330.83 70.8341 Q1327.71 72.2924 1324.35 73.0216 Q1321.03 73.7508 1317.26 73.7508 Q1307.01 73.7508 1300.98 67.3098 Q1294.94 60.8689 1294.94 49.9314 Q1294.94 38.832 1301.02 32.472 Q1307.14 26.1121 1317.75 26.1121 Q1321.19 26.1121 1324.47 26.8413 Q1327.75 27.5299 1330.83 28.9478 Z" fill="#000000" fill-rule="nonzero" fill-opacity="1" /><path clip-path="url(#clip740)" d="M1362.67 76.7889 Q1359.51 84.8907 1356.52 87.3618 Q1353.52 89.8329 1348.5 89.8329 L1342.54 89.8329 L1342.54 83.5945 L1346.92 83.5945 Q1349.99 83.5945 1351.7 82.1361 Q1353.4 80.6778 1355.46 75.2496 L1356.8 71.8468 L1338.45 27.2059 L1346.35 27.2059 L1360.53 62.6918 L1374.7 27.2059 L1382.6 27.2059 L1362.67 76.7889 Z" fill="#000000" fill-rule="nonzero" fill-opacity="1" /><path clip-path="url(#clip740)" d="M1436.85 32.4315 Q1430.85 32.4315 1427.37 37.1306 Q1423.88 41.7891 1423.88 49.9314 Q1423.88 58.0738 1427.33 62.7728 Q1430.81 67.4314 1436.85 67.4314 Q1442.8 67.4314 1446.28 62.7323 Q1449.77 58.0333 1449.77 49.9314 Q1449.77 41.8701 1446.28 37.1711 Q1442.8 32.4315 1436.85 32.4315 M1436.85 26.1121 Q1446.57 26.1121 1452.12 32.4315 Q1457.67 38.7509 1457.67 49.9314 Q1457.67 61.0714 1452.12 67.4314 Q1446.57 73.7508 1436.85 73.7508 Q1427.08 73.7508 1421.53 67.4314 Q1416.02 61.0714 1416.02 49.9314 Q1416.02 38.7509 1421.53 32.4315 Q1427.08 26.1121 1436.85 26.1121 Z" fill="#000000" fill-rule="nonzero" fill-opacity="1" /><path clip-path="url(#clip740)" d="M1492.99 9.54393 L1492.99 15.7418 L1485.86 15.7418 Q1481.85 15.7418 1480.27 17.3622 Q1478.73 18.9825 1478.73 23.1955 L1478.73 27.2059 L1491.01 27.2059 L1491.01 32.9987 L1478.73 32.9987 L1478.73 72.576 L1471.24 72.576 L1471.24 32.9987 L1464.11 32.9987 L1464.11 27.2059 L1471.24 27.2059 L1471.24 24.0462 Q1471.24 16.471 1474.76 13.0277 Q1478.29 9.54393 1485.94 9.54393 L1492.99 9.54393 Z" fill="#000000" fill-rule="nonzero" fill-opacity="1" /><path clip-path="url(#clip740)" d="M1532.97 14.324 L1532.97 27.2059 L1548.33 27.2059 L1548.33 32.9987 L1532.97 32.9987 L1532.97 57.6282 Q1532.97 63.1779 1534.47 64.7578 Q1536.01 66.3376 1540.67 66.3376 L1548.33 66.3376 L1548.33 72.576 L1540.67 72.576 Q1532.04 72.576 1528.76 69.3758 Q1525.48 66.1351 1525.48 57.6282 L1525.48 32.9987 L1520.01 32.9987 L1520.01 27.2059 L1525.48 27.2059 L1525.48 14.324 L1532.97 14.324 Z" fill="#000000" fill-rule="nonzero" fill-opacity="1" /><path clip-path="url(#clip740)" d="M1595.84 45.1919 L1595.84 72.576 L1588.39 72.576 L1588.39 45.4349 Q1588.39 38.994 1585.88 35.7938 Q1583.37 32.5936 1578.34 32.5936 Q1572.31 32.5936 1568.82 36.4419 Q1565.34 40.2903 1565.34 46.9338 L1565.34 72.576 L1557.85 72.576 L1557.85 9.54393 L1565.34 9.54393 L1565.34 34.2544 Q1568.01 30.163 1571.62 28.1376 Q1575.26 26.1121 1580 26.1121 Q1587.82 26.1121 1591.83 30.9732 Q1595.84 35.7938 1595.84 45.1919 Z" fill="#000000" fill-rule="nonzero" fill-opacity="1" /><path clip-path="url(#clip740)" d="M1649.52 48.0275 L1649.52 51.6733 L1615.25 51.6733 Q1615.73 59.3701 1619.87 63.421 Q1624.04 67.4314 1631.45 67.4314 Q1635.74 67.4314 1639.76 66.3781 Q1643.81 65.3249 1647.78 63.2184 L1647.78 70.267 Q1643.77 71.9684 1639.55 72.8596 Q1635.34 73.7508 1631.01 73.7508 Q1620.15 73.7508 1613.79 67.4314 Q1607.47 61.1119 1607.47 50.3365 Q1607.47 39.1965 1613.47 32.6746 Q1619.5 26.1121 1629.71 26.1121 Q1638.86 26.1121 1644.17 32.0264 Q1649.52 37.9003 1649.52 48.0275 M1642.06 45.84 Q1641.98 39.7232 1638.62 36.0774 Q1635.3 32.4315 1629.79 32.4315 Q1623.55 32.4315 1619.78 35.9558 Q1616.06 39.4801 1615.49 45.8805 L1642.06 45.84 Z" fill="#000000" fill-rule="nonzero" fill-opacity="1" /><path clip-path="url(#clip740)" d="M1723.45 35.9153 Q1726.24 30.8922 1730.13 28.5022 Q1734.02 26.1121 1739.29 26.1121 Q1746.38 26.1121 1750.22 31.0947 Q1754.07 36.0368 1754.07 45.1919 L1754.07 72.576 L1746.58 72.576 L1746.58 45.4349 Q1746.58 38.913 1744.27 35.7533 Q1741.96 32.5936 1737.22 32.5936 Q1731.43 32.5936 1728.07 36.4419 Q1724.7 40.2903 1724.7 46.9338 L1724.7 72.576 L1717.21 72.576 L1717.21 45.4349 Q1717.21 38.8725 1714.9 35.7533 Q1712.59 32.5936 1707.77 32.5936 Q1702.06 32.5936 1698.7 36.4824 Q1695.33 40.3308 1695.33 46.9338 L1695.33 72.576 L1687.84 72.576 L1687.84 27.2059 L1695.33 27.2059 L1695.33 34.2544 Q1697.89 30.082 1701.45 28.0971 Q1705.02 26.1121 1709.92 26.1121 Q1714.86 26.1121 1718.3 28.6237 Q1721.79 31.1352 1723.45 35.9153 Z" fill="#000000" fill-rule="nonzero" fill-opacity="1" /><path clip-path="url(#clip740)" d="M1786.52 32.4315 Q1780.52 32.4315 1777.04 37.1306 Q1773.56 41.7891 1773.56 49.9314 Q1773.56 58.0738 1777 62.7728 Q1780.48 67.4314 1786.52 67.4314 Q1792.47 67.4314 1795.96 62.7323 Q1799.44 58.0333 1799.44 49.9314 Q1799.44 41.8701 1795.96 37.1711 Q1792.47 32.4315 1786.52 32.4315 M1786.52 26.1121 Q1796.24 26.1121 1801.79 32.4315 Q1807.34 38.7509 1807.34 49.9314 Q1807.34 61.0714 1801.79 67.4314 Q1796.24 73.7508 1786.52 73.7508 Q1776.76 73.7508 1771.21 67.4314 Q1765.7 61.0714 1765.7 49.9314 Q1765.7 38.7509 1771.21 32.4315 Q1776.76 26.1121 1786.52 26.1121 Z" fill="#000000" fill-rule="nonzero" fill-opacity="1" /><path clip-path="url(#clip740)" d="M1849.55 34.0924 L1849.55 9.54393 L1857.01 9.54393 L1857.01 72.576 L1849.55 72.576 L1849.55 65.7705 Q1847.2 69.8214 1843.6 71.8063 Q1840.03 73.7508 1835.01 73.7508 Q1826.79 73.7508 1821.6 67.1883 Q1816.46 60.6258 1816.46 49.9314 Q1816.46 39.2371 1821.6 32.6746 Q1826.79 26.1121 1835.01 26.1121 Q1840.03 26.1121 1843.6 28.0971 Q1847.2 30.0415 1849.55 34.0924 M1824.15 49.9314 Q1824.15 58.1548 1827.51 62.8538 Q1830.92 67.5124 1836.83 67.5124 Q1842.75 67.5124 1846.15 62.8538 Q1849.55 58.1548 1849.55 49.9314 Q1849.55 41.7081 1846.15 37.0496 Q1842.75 32.3505 1836.83 32.3505 Q1830.92 32.3505 1827.51 37.0496 Q1824.15 41.7081 1824.15 49.9314 Z" fill="#000000" fill-rule="nonzero" fill-opacity="1" /><path clip-path="url(#clip740)" d="M1911.17 48.0275 L1911.17 51.6733 L1876.9 51.6733 Q1877.38 59.3701 1881.51 63.421 Q1885.69 67.4314 1893.1 67.4314 Q1897.39 67.4314 1901.4 66.3781 Q1905.45 65.3249 1909.42 63.2184 L1909.42 70.267 Q1905.41 71.9684 1901.2 72.8596 Q1896.99 73.7508 1892.65 73.7508 Q1881.8 73.7508 1875.44 67.4314 Q1869.12 61.1119 1869.12 50.3365 Q1869.12 39.1965 1875.11 32.6746 Q1881.15 26.1121 1891.36 26.1121 Q1900.51 26.1121 1905.82 32.0264 Q1911.17 37.9003 1911.17 48.0275 M1903.71 45.84 Q1903.63 39.7232 1900.27 36.0774 Q1896.95 32.4315 1891.44 32.4315 Q1885.2 32.4315 1881.43 35.9558 Q1877.71 39.4801 1877.14 45.8805 L1903.71 45.84 Z" fill="#000000" fill-rule="nonzero" fill-opacity="1" /><path clip-path="url(#clip740)" d="M1923.4 9.54393 L1930.85 9.54393 L1930.85 72.576 L1923.4 72.576 L1923.4 9.54393 Z" fill="#000000" fill-rule="nonzero" fill-opacity="1" /><polyline clip-path="url(#clip742)" style="stroke:#009af9; stroke-linecap:round; stroke-linejoin:round; stroke-width:4; stroke-opacity:1; fill:none" points="338.848,811.304 406.27,735.348 473.692,626.84 541.115,572.586 608.537,540.034 675.96,713.647 743.382,615.99 810.805,605.139 878.227,507.482 945.65,561.736 1013.07,583.437 1080.49,529.183 1147.92,561.736 1215.34,626.84 1282.76,572.586 1350.18,594.288 1417.61,626.84 1485.03,561.736 1552.45,605.139 1619.87,659.393 1687.3,615.99 1754.72,605.139 1822.14,485.78 1889.56,518.332 1956.99,594.288 2024.41,572.586 2091.83,626.84 2159.25,485.78 2226.68,572.586 2294.1,550.885 "/>
<polyline clip-path="url(#clip742)" style="stroke:#e26f46; stroke-linecap:round; stroke-linejoin:round; stroke-width:4; stroke-opacity:1; fill:none" points="338.848,312.167 406.27,236.212 473.692,247.063 541.115,225.361 608.537,236.212 675.96,181.958 743.382,236.212 810.805,203.659 878.227,214.51 945.65,247.063 1013.07,225.361 1080.49,203.659 1147.92,181.958 1215.34,214.51 1282.76,192.809 1350.18,214.51 1417.61,236.212 1485.03,214.51 1552.45,247.063 1619.87,203.659 1687.3,214.51 1754.72,203.659 1822.14,214.51 1889.56,225.361 1956.99,225.361 2024.41,192.809 2091.83,203.659 2159.25,214.51 2226.68,214.51 2294.1,160.256 "/>
<polyline clip-path="url(#clip742)" style="stroke:#3da44d; stroke-linecap:round; stroke-linejoin:round; stroke-width:4; stroke-opacity:1; fill:none" points="338.848,323.018 406.27,344.72 473.692,453.228 541.115,388.123 608.537,366.421 675.96,388.123 743.382,344.72 810.805,333.869 878.227,344.72 945.65,333.869 1013.07,344.72 1080.49,398.974 1147.92,290.466 1215.34,203.659 1282.76,333.869 1350.18,290.466 1417.61,366.421 1485.03,366.421 1552.45,388.123 1619.87,388.123 1687.3,290.466 1754.72,377.272 1822.14,442.377 1889.56,323.018 1956.99,377.272 2024.41,257.913 2091.83,355.571 2159.25,301.317 2226.68,333.869 2294.1,344.72 "/>
<polyline clip-path="url(#clip742)" style="stroke:#c271d2; stroke-linecap:round; stroke-linejoin:round; stroke-width:4; stroke-opacity:1; fill:none" points="338.848,1364.69 406.27,1191.08 473.692,1310.44 541.115,1082.57 608.537,1245.34 675.96,1288.74 743.382,1234.48 810.805,1234.48 878.227,1332.14 945.65,1201.93 1013.07,1256.19 1080.49,1321.29 1147.92,1180.23 1215.34,1191.08 1282.76,1125.98 1350.18,1267.04 1417.61,1310.44 1485.03,1375.54 1552.45,1277.89 1619.87,1256.19 1687.3,1245.34 1754.72,1299.59 1822.14,1267.04 1889.56,1288.74 1956.99,1115.13 2024.41,1310.44 2091.83,1288.74 2159.25,1386.4 2226.68,1364.69 2294.1,1201.93 "/>
<path clip-path="url(#clip740)" d="M349.276 1379.86 L760.883 1379.86 L760.883 1120.66 L349.276 1120.66  Z" fill="#ffffff" fill-rule="evenodd" fill-opacity="1"/>
<polyline clip-path="url(#clip740)" style="stroke:#000000; stroke-linecap:round; stroke-linejoin:round; stroke-width:4; stroke-opacity:1; fill:none" points="349.276,1379.86 760.883,1379.86 760.883,1120.66 349.276,1120.66 349.276,1379.86 "/>
<polyline clip-path="url(#clip740)" style="stroke:#009af9; stroke-linecap:round; stroke-linejoin:round; stroke-width:4; stroke-opacity:1; fill:none" points="372.304,1172.5 510.475,1172.5 "/>
<path clip-path="url(#clip740)" d="M549.337 1159.82 L542.994 1177.02 L555.703 1177.02 L549.337 1159.82 M546.698 1155.22 L551.999 1155.22 L565.17 1189.78 L560.309 1189.78 L557.161 1180.91 L541.582 1180.91 L538.434 1189.78 L533.504 1189.78 L546.698 1155.22 Z" fill="#000000" fill-rule="nonzero" fill-opacity="1" /><path clip-path="url(#clip740)" d="M570.587 1168.25 L600.263 1168.25 L600.263 1172.14 L570.587 1172.14 L570.587 1168.25 M570.587 1177.69 L600.263 1177.69 L600.263 1181.63 L570.587 1181.63 L570.587 1177.69 Z" fill="#000000" fill-rule="nonzero" fill-opacity="1" /><path clip-path="url(#clip740)" d="M620.355 1158.29 Q616.744 1158.29 614.915 1161.86 Q613.11 1165.4 613.11 1172.53 Q613.11 1179.64 614.915 1183.2 Q616.744 1186.74 620.355 1186.74 Q623.989 1186.74 625.795 1183.2 Q627.623 1179.64 627.623 1172.53 Q627.623 1165.4 625.795 1161.86 Q623.989 1158.29 620.355 1158.29 M620.355 1154.59 Q626.165 1154.59 629.221 1159.2 Q632.299 1163.78 632.299 1172.53 Q632.299 1181.26 629.221 1185.86 Q626.165 1190.45 620.355 1190.45 Q614.545 1190.45 611.466 1185.86 Q608.411 1181.26 608.411 1172.53 Q608.411 1163.78 611.466 1159.2 Q614.545 1154.59 620.355 1154.59 Z" fill="#000000" fill-rule="nonzero" fill-opacity="1" /><path clip-path="url(#clip740)" d="M640.517 1183.9 L645.401 1183.9 L645.401 1189.78 L640.517 1189.78 L640.517 1183.9 Z" fill="#000000" fill-rule="nonzero" fill-opacity="1" /><path clip-path="url(#clip740)" d="M656.396 1185.84 L664.035 1185.84 L664.035 1159.48 L655.725 1161.14 L655.725 1156.88 L663.989 1155.22 L668.665 1155.22 L668.665 1185.84 L676.304 1185.84 L676.304 1189.78 L656.396 1189.78 L656.396 1185.84 Z" fill="#000000" fill-rule="nonzero" fill-opacity="1" /><polyline clip-path="url(#clip740)" style="stroke:#e26f46; stroke-linecap:round; stroke-linejoin:round; stroke-width:4; stroke-opacity:1; fill:none" points="372.304,1224.34 510.475,1224.34 "/>
<path clip-path="url(#clip740)" d="M549.337 1211.66 L542.994 1228.86 L555.703 1228.86 L549.337 1211.66 M546.698 1207.06 L551.999 1207.06 L565.17 1241.62 L560.309 1241.62 L557.161 1232.75 L541.582 1232.75 L538.434 1241.62 L533.504 1241.62 L546.698 1207.06 Z" fill="#000000" fill-rule="nonzero" fill-opacity="1" /><path clip-path="url(#clip740)" d="M570.587 1220.09 L600.263 1220.09 L600.263 1223.98 L570.587 1223.98 L570.587 1220.09 M570.587 1229.53 L600.263 1229.53 L600.263 1233.47 L570.587 1233.47 L570.587 1229.53 Z" fill="#000000" fill-rule="nonzero" fill-opacity="1" /><path clip-path="url(#clip740)" d="M611.165 1237.68 L618.804 1237.68 L618.804 1211.32 L610.494 1212.98 L610.494 1208.72 L618.758 1207.06 L623.434 1207.06 L623.434 1237.68 L631.073 1237.68 L631.073 1241.62 L611.165 1241.62 L611.165 1237.68 Z" fill="#000000" fill-rule="nonzero" fill-opacity="1" /><path clip-path="url(#clip740)" d="M640.517 1235.74 L645.401 1235.74 L645.401 1241.62 L640.517 1241.62 L640.517 1235.74 Z" fill="#000000" fill-rule="nonzero" fill-opacity="1" /><path clip-path="url(#clip740)" d="M665.586 1210.13 Q661.975 1210.13 660.146 1213.7 Q658.341 1217.24 658.341 1224.37 Q658.341 1231.48 660.146 1235.04 Q661.975 1238.58 665.586 1238.58 Q669.22 1238.58 671.026 1235.04 Q672.855 1231.48 672.855 1224.37 Q672.855 1217.24 671.026 1213.7 Q669.22 1210.13 665.586 1210.13 M665.586 1206.43 Q671.396 1206.43 674.452 1211.04 Q677.531 1215.62 677.531 1224.37 Q677.531 1233.1 674.452 1237.7 Q671.396 1242.29 665.586 1242.29 Q659.776 1242.29 656.697 1237.7 Q653.642 1233.1 653.642 1224.37 Q653.642 1215.62 656.697 1211.04 Q659.776 1206.43 665.586 1206.43 Z" fill="#000000" fill-rule="nonzero" fill-opacity="1" /><polyline clip-path="url(#clip740)" style="stroke:#3da44d; stroke-linecap:round; stroke-linejoin:round; stroke-width:4; stroke-opacity:1; fill:none" points="372.304,1276.18 510.475,1276.18 "/>
<path clip-path="url(#clip740)" d="M549.337 1263.5 L542.994 1280.7 L555.703 1280.7 L549.337 1263.5 M546.698 1258.9 L551.999 1258.9 L565.17 1293.46 L560.309 1293.46 L557.161 1284.59 L541.582 1284.59 L538.434 1293.46 L533.504 1293.46 L546.698 1258.9 Z" fill="#000000" fill-rule="nonzero" fill-opacity="1" /><path clip-path="url(#clip740)" d="M570.587 1271.93 L600.263 1271.93 L600.263 1275.82 L570.587 1275.82 L570.587 1271.93 M570.587 1281.37 L600.263 1281.37 L600.263 1285.31 L570.587 1285.31 L570.587 1281.37 Z" fill="#000000" fill-rule="nonzero" fill-opacity="1" /><path clip-path="url(#clip740)" d="M611.165 1289.52 L618.804 1289.52 L618.804 1263.16 L610.494 1264.82 L610.494 1260.56 L618.758 1258.9 L623.434 1258.9 L623.434 1289.52 L631.073 1289.52 L631.073 1293.46 L611.165 1293.46 L611.165 1289.52 Z" fill="#000000" fill-rule="nonzero" fill-opacity="1" /><path clip-path="url(#clip740)" d="M650.517 1261.97 Q646.906 1261.97 645.077 1265.54 Q643.272 1269.08 643.272 1276.21 Q643.272 1283.32 645.077 1286.88 Q646.906 1290.42 650.517 1290.42 Q654.151 1290.42 655.957 1286.88 Q657.785 1283.32 657.785 1276.21 Q657.785 1269.08 655.957 1265.54 Q654.151 1261.97 650.517 1261.97 M650.517 1258.27 Q656.327 1258.27 659.383 1262.88 Q662.461 1267.46 662.461 1276.21 Q662.461 1284.94 659.383 1289.54 Q656.327 1294.13 650.517 1294.13 Q644.707 1294.13 641.628 1289.54 Q638.573 1284.94 638.573 1276.21 Q638.573 1267.46 641.628 1262.88 Q644.707 1258.27 650.517 1258.27 Z" fill="#000000" fill-rule="nonzero" fill-opacity="1" /><path clip-path="url(#clip740)" d="M670.679 1287.58 L675.563 1287.58 L675.563 1293.46 L670.679 1293.46 L670.679 1287.58 Z" fill="#000000" fill-rule="nonzero" fill-opacity="1" /><path clip-path="url(#clip740)" d="M695.748 1261.97 Q692.137 1261.97 690.308 1265.54 Q688.503 1269.08 688.503 1276.21 Q688.503 1283.32 690.308 1286.88 Q692.137 1290.42 695.748 1290.42 Q699.382 1290.42 701.188 1286.88 Q703.017 1283.32 703.017 1276.21 Q703.017 1269.08 701.188 1265.54 Q699.382 1261.97 695.748 1261.97 M695.748 1258.27 Q701.558 1258.27 704.614 1262.88 Q707.693 1267.46 707.693 1276.21 Q707.693 1284.94 704.614 1289.54 Q701.558 1294.13 695.748 1294.13 Q689.938 1294.13 686.859 1289.54 Q683.804 1284.94 683.804 1276.21 Q683.804 1267.46 686.859 1262.88 Q689.938 1258.27 695.748 1258.27 Z" fill="#000000" fill-rule="nonzero" fill-opacity="1" /><polyline clip-path="url(#clip740)" style="stroke:#c271d2; stroke-linecap:round; stroke-linejoin:round; stroke-width:4; stroke-opacity:1; fill:none" points="372.304,1328.02 510.475,1328.02 "/>
<path clip-path="url(#clip740)" d="M549.337 1315.34 L542.994 1332.54 L555.703 1332.54 L549.337 1315.34 M546.698 1310.74 L551.999 1310.74 L565.17 1345.3 L560.309 1345.3 L557.161 1336.43 L541.582 1336.43 L538.434 1345.3 L533.504 1345.3 L546.698 1310.74 Z" fill="#000000" fill-rule="nonzero" fill-opacity="1" /><path clip-path="url(#clip740)" d="M570.587 1323.77 L600.263 1323.77 L600.263 1327.66 L570.587 1327.66 L570.587 1323.77 M570.587 1333.21 L600.263 1333.21 L600.263 1337.15 L570.587 1337.15 L570.587 1333.21 Z" fill="#000000" fill-rule="nonzero" fill-opacity="1" /><path clip-path="url(#clip740)" d="M611.165 1341.36 L618.804 1341.36 L618.804 1315 L610.494 1316.66 L610.494 1312.4 L618.758 1310.74 L623.434 1310.74 L623.434 1341.36 L631.073 1341.36 L631.073 1345.3 L611.165 1345.3 L611.165 1341.36 Z" fill="#000000" fill-rule="nonzero" fill-opacity="1" /><path clip-path="url(#clip740)" d="M650.517 1313.81 Q646.906 1313.81 645.077 1317.38 Q643.272 1320.92 643.272 1328.05 Q643.272 1335.16 645.077 1338.72 Q646.906 1342.26 650.517 1342.26 Q654.151 1342.26 655.957 1338.72 Q657.785 1335.16 657.785 1328.05 Q657.785 1320.92 655.957 1317.38 Q654.151 1313.81 650.517 1313.81 M650.517 1310.11 Q656.327 1310.11 659.383 1314.72 Q662.461 1319.3 662.461 1328.05 Q662.461 1336.78 659.383 1341.38 Q656.327 1345.97 650.517 1345.97 Q644.707 1345.97 641.628 1341.38 Q638.573 1336.78 638.573 1328.05 Q638.573 1319.3 641.628 1314.72 Q644.707 1310.11 650.517 1310.11 Z" fill="#000000" fill-rule="nonzero" fill-opacity="1" /><path clip-path="url(#clip740)" d="M680.679 1313.81 Q677.068 1313.81 675.239 1317.38 Q673.433 1320.92 673.433 1328.05 Q673.433 1335.16 675.239 1338.72 Q677.068 1342.26 680.679 1342.26 Q684.313 1342.26 686.119 1338.72 Q687.947 1335.16 687.947 1328.05 Q687.947 1320.92 686.119 1317.38 Q684.313 1313.81 680.679 1313.81 M680.679 1310.11 Q686.489 1310.11 689.544 1314.72 Q692.623 1319.3 692.623 1328.05 Q692.623 1336.78 689.544 1341.38 Q686.489 1345.97 680.679 1345.97 Q674.869 1345.97 671.79 1341.38 Q668.734 1336.78 668.734 1328.05 Q668.734 1319.3 671.79 1314.72 Q674.869 1310.11 680.679 1310.11 Z" fill="#000000" fill-rule="nonzero" fill-opacity="1" /><path clip-path="url(#clip740)" d="M700.841 1339.42 L705.725 1339.42 L705.725 1345.3 L700.841 1345.3 L700.841 1339.42 Z" fill="#000000" fill-rule="nonzero" fill-opacity="1" /><path clip-path="url(#clip740)" d="M725.91 1313.81 Q722.299 1313.81 720.47 1317.38 Q718.665 1320.92 718.665 1328.05 Q718.665 1335.16 720.47 1338.72 Q722.299 1342.26 725.91 1342.26 Q729.544 1342.26 731.35 1338.72 Q733.178 1335.16 733.178 1328.05 Q733.178 1320.92 731.35 1317.38 Q729.544 1313.81 725.91 1313.81 M725.91 1310.11 Q731.72 1310.11 734.776 1314.72 Q737.854 1319.3 737.854 1328.05 Q737.854 1336.78 734.776 1341.38 Q731.72 1345.97 725.91 1345.97 Q720.1 1345.97 717.021 1341.38 Q713.966 1336.78 713.966 1328.05 Q713.966 1319.3 717.021 1314.72 Q720.1 1310.11 725.91 1310.11 Z" fill="#000000" fill-rule="nonzero" fill-opacity="1" /></svg>
