<?xml version="1.0" encoding="utf-8"?>
<svg xmlns="http://www.w3.org/2000/svg" xmlns:xlink="http://www.w3.org/1999/xlink" width="600" height="400" viewBox="0 0 2400 1600">
<defs>
  <clipPath id="clip870">
    <rect x="0" y="0" width="2400" height="1600"/>
  </clipPath>
</defs>
<path clip-path="url(#clip870)" d="M0 1600 L2400 1600 L2400 0 L0 0  Z" fill="#ffffff" fill-rule="evenodd" fill-opacity="1"/>
<defs>
  <clipPath id="clip871">
    <rect x="480" y="0" width="1681" height="1600"/>
  </clipPath>
</defs>
<path clip-path="url(#clip870)" d="M280.19 1410.9 L2352.76 1410.9 L2352.76 123.472 L280.19 123.472  Z" fill="#ffffff" fill-rule="evenodd" fill-opacity="1"/>
<defs>
  <clipPath id="clip872">
    <rect x="280" y="123" width="2074" height="1288"/>
  </clipPath>
</defs>
<polyline clip-path="url(#clip872)" style="stroke:#000000; stroke-linecap:round; stroke-linejoin:round; stroke-width:2; stroke-opacity:0.1; fill:none" points="338.848,1410.9 338.848,123.472 "/>
<polyline clip-path="url(#clip872)" style="stroke:#000000; stroke-linecap:round; stroke-linejoin:round; stroke-width:2; stroke-opacity:0.1; fill:none" points="990.598,1410.9 990.598,123.472 "/>
<polyline clip-path="url(#clip872)" style="stroke:#000000; stroke-linecap:round; stroke-linejoin:round; stroke-width:2; stroke-opacity:0.1; fill:none" points="1642.35,1410.9 1642.35,123.472 "/>
<polyline clip-path="url(#clip872)" style="stroke:#000000; stroke-linecap:round; stroke-linejoin:round; stroke-width:2; stroke-opacity:0.1; fill:none" points="2294.1,1410.9 2294.1,123.472 "/>
<polyline clip-path="url(#clip870)" style="stroke:#000000; stroke-linecap:round; stroke-linejoin:round; stroke-width:4; stroke-opacity:1; fill:none" points="280.19,1410.9 2352.76,1410.9 "/>
<polyline clip-path="url(#clip870)" style="stroke:#000000; stroke-linecap:round; stroke-linejoin:round; stroke-width:4; stroke-opacity:1; fill:none" points="338.848,1410.9 338.848,1392 "/>
<polyline clip-path="url(#clip870)" style="stroke:#000000; stroke-linecap:round; stroke-linejoin:round; stroke-width:4; stroke-opacity:1; fill:none" points="990.598,1410.9 990.598,1392 "/>
<polyline clip-path="url(#clip870)" style="stroke:#000000; stroke-linecap:round; stroke-linejoin:round; stroke-width:4; stroke-opacity:1; fill:none" points="1642.35,1410.9 1642.35,1392 "/>
<polyline clip-path="url(#clip870)" style="stroke:#000000; stroke-linecap:round; stroke-linejoin:round; stroke-width:4; stroke-opacity:1; fill:none" points="2294.1,1410.9 2294.1,1392 "/>
<path clip-path="url(#clip870)" d="M288.963 1485.02 L296.602 1485.02 L296.602 1458.66 L288.292 1460.32 L288.292 1456.06 L296.555 1454.4 L301.231 1454.4 L301.231 1485.02 L308.87 1485.02 L308.87 1488.96 L288.963 1488.96 L288.963 1485.02 Z" fill="#000000" fill-rule="nonzero" fill-opacity="1" /><path clip-path="url(#clip870)" d="M328.314 1457.48 Q324.703 1457.48 322.875 1461.04 Q321.069 1464.58 321.069 1471.71 Q321.069 1478.82 322.875 1482.38 Q324.703 1485.92 328.314 1485.92 Q331.949 1485.92 333.754 1482.38 Q335.583 1478.82 335.583 1471.71 Q335.583 1464.58 333.754 1461.04 Q331.949 1457.48 328.314 1457.48 M328.314 1453.77 Q334.125 1453.77 337.18 1458.38 Q340.259 1462.96 340.259 1471.71 Q340.259 1480.44 337.18 1485.04 Q334.125 1489.63 328.314 1489.63 Q322.504 1489.63 319.426 1485.04 Q316.37 1480.44 316.37 1471.71 Q316.37 1462.96 319.426 1458.38 Q322.504 1453.77 328.314 1453.77 Z" fill="#000000" fill-rule="nonzero" fill-opacity="1" /><path clip-path="url(#clip870)" d="M340.259 1447.87 L364.37 1447.87 L364.37 1451.07 L340.259 1451.07 L340.259 1447.87 Z" fill="#000000" fill-rule="nonzero" fill-opacity="1" /><path clip-path="url(#clip870)" d="M373.229 1458.35 L379.435 1458.35 L379.435 1436.93 L372.683 1438.28 L372.683 1434.82 L379.398 1433.47 L383.197 1433.47 L383.197 1458.35 L389.404 1458.35 L389.404 1461.55 L373.229 1461.55 L373.229 1458.35 Z" fill="#000000" fill-rule="nonzero" fill-opacity="1" /><path clip-path="url(#clip870)" d="M955.581 1485.02 L963.219 1485.02 L963.219 1458.66 L954.909 1460.32 L954.909 1456.06 L963.173 1454.4 L967.849 1454.4 L967.849 1485.02 L975.488 1485.02 L975.488 1488.96 L955.581 1488.96 L955.581 1485.02 Z" fill="#000000" fill-rule="nonzero" fill-opacity="1" /><path clip-path="url(#clip870)" d="M994.932 1457.48 Q991.321 1457.48 989.493 1461.04 Q987.687 1464.58 987.687 1471.71 Q987.687 1478.82 989.493 1482.38 Q991.321 1485.92 994.932 1485.92 Q998.567 1485.92 1000.37 1482.38 Q1002.2 1478.82 1002.2 1471.71 Q1002.2 1464.58 1000.37 1461.04 Q998.567 1457.48 994.932 1457.48 M994.932 1453.77 Q1000.74 1453.77 1003.8 1458.38 Q1006.88 1462.96 1006.88 1471.71 Q1006.88 1480.44 1003.8 1485.04 Q1000.74 1489.63 994.932 1489.63 Q989.122 1489.63 986.043 1485.04 Q982.988 1480.44 982.988 1471.71 Q982.988 1462.96 986.043 1458.38 Q989.122 1453.77 994.932 1453.77 Z" fill="#000000" fill-rule="nonzero" fill-opacity="1" /><path clip-path="url(#clip870)" d="M1016.58 1435.97 Q1013.65 1435.97 1012.16 1438.86 Q1010.69 1441.74 1010.69 1447.53 Q1010.69 1453.31 1012.16 1456.2 Q1013.65 1459.08 1016.58 1459.08 Q1019.53 1459.08 1021 1456.2 Q1022.49 1453.31 1022.49 1447.53 Q1022.49 1441.74 1021 1438.86 Q1019.53 1435.97 1016.58 1435.97 M1016.58 1432.96 Q1021.3 1432.96 1023.78 1436.7 Q1026.29 1440.43 1026.29 1447.53 Q1026.29 1454.62 1023.78 1458.37 Q1021.3 1462.09 1016.58 1462.09 Q1011.86 1462.09 1009.36 1458.37 Q1006.88 1454.62 1006.88 1447.53 Q1006.88 1440.43 1009.36 1436.7 Q1011.86 1432.96 1016.58 1432.96 Z" fill="#000000" fill-rule="nonzero" fill-opacity="1" /><path clip-path="url(#clip870)" d="M1608.68 1485.02 L1616.31 1485.02 L1616.31 1458.66 L1608 1460.32 L1608 1456.06 L1616.27 1454.4 L1620.94 1454.4 L1620.94 1485.02 L1628.58 1485.02 L1628.58 1488.96 L1608.68 1488.96 L1608.68 1485.02 Z" fill="#000000" fill-rule="nonzero" fill-opacity="1" /><path clip-path="url(#clip870)" d="M1648.03 1457.48 Q1644.42 1457.48 1642.59 1461.04 Q1640.78 1464.58 1640.78 1471.71 Q1640.78 1478.82 1642.59 1482.38 Q1644.42 1485.92 1648.03 1485.92 Q1651.66 1485.92 1653.47 1482.38 Q1655.3 1478.82 1655.3 1471.71 Q1655.3 1464.58 1653.47 1461.04 Q1651.66 1457.48 1648.03 1457.48 M1648.03 1453.77 Q1653.84 1453.77 1656.89 1458.38 Q1659.97 1462.96 1659.97 1471.71 Q1659.97 1480.44 1656.89 1485.04 Q1653.84 1489.63 1648.03 1489.63 Q1642.22 1489.63 1639.14 1485.04 Q1636.08 1480.44 1636.08 1471.71 Q1636.08 1462.96 1639.14 1458.38 Q1642.22 1453.77 1648.03 1453.77 Z" fill="#000000" fill-rule="nonzero" fill-opacity="1" /><path clip-path="url(#clip870)" d="M1660.52 1458.35 L1666.72 1458.35 L1666.72 1436.93 L1659.97 1438.28 L1659.97 1434.82 L1666.69 1433.47 L1670.49 1433.47 L1670.49 1458.35 L1676.69 1458.35 L1676.69 1461.55 L1660.52 1461.55 L1660.52 1458.35 Z" fill="#000000" fill-rule="nonzero" fill-opacity="1" /><path clip-path="url(#clip870)" d="M2259.87 1485.02 L2267.51 1485.02 L2267.51 1458.66 L2259.2 1460.32 L2259.2 1456.06 L2267.46 1454.4 L2272.14 1454.4 L2272.14 1485.02 L2279.78 1485.02 L2279.78 1488.96 L2259.87 1488.96 L2259.87 1485.02 Z" fill="#000000" fill-rule="nonzero" fill-opacity="1" /><path clip-path="url(#clip870)" d="M2299.22 1457.48 Q2295.61 1457.48 2293.78 1461.04 Q2291.98 1464.58 2291.98 1471.71 Q2291.98 1478.82 2293.78 1482.38 Q2295.61 1485.92 2299.22 1485.92 Q2302.86 1485.92 2304.66 1482.38 Q2306.49 1478.82 2306.49 1471.71 Q2306.49 1464.58 2304.66 1461.04 Q2302.86 1457.48 2299.22 1457.48 M2299.22 1453.77 Q2305.03 1453.77 2308.09 1458.38 Q2311.17 1462.96 2311.17 1471.71 Q2311.17 1480.44 2308.09 1485.04 Q2305.03 1489.63 2299.22 1489.63 Q2293.41 1489.63 2290.33 1485.04 Q2287.28 1480.44 2287.28 1471.71 Q2287.28 1462.96 2290.33 1458.38 Q2293.41 1453.77 2299.22 1453.77 Z" fill="#000000" fill-rule="nonzero" fill-opacity="1" /><path clip-path="url(#clip870)" d="M2315.74 1458.35 L2329 1458.35 L2329 1461.55 L2311.17 1461.55 L2311.17 1458.35 Q2313.33 1456.11 2317.05 1452.35 Q2320.8 1448.57 2321.76 1447.48 Q2323.58 1445.43 2324.29 1444.02 Q2325.03 1442.59 2325.03 1441.22 Q2325.03 1438.98 2323.45 1437.57 Q2321.89 1436.16 2319.37 1436.16 Q2317.58 1436.16 2315.59 1436.78 Q2313.61 1437.4 2311.36 1438.66 L2311.36 1434.82 Q2313.65 1433.9 2315.64 1433.43 Q2317.64 1432.96 2319.29 1432.96 Q2323.66 1432.96 2326.25 1435.14 Q2328.85 1437.32 2328.85 1440.97 Q2328.85 1442.7 2328.19 1444.26 Q2327.55 1445.8 2325.84 1447.91 Q2325.37 1448.46 2322.85 1451.07 Q2320.33 1453.67 2315.74 1458.35 Z" fill="#000000" fill-rule="nonzero" fill-opacity="1" /><path clip-path="url(#clip870)" d="M1168.1 1526.67 L1195.41 1526.67 L1195.41 1532.08 L1174.53 1532.08 L1174.53 1546.08 L1193.38 1546.08 L1193.38 1551.49 L1174.53 1551.49 L1174.53 1574.19 L1168.1 1574.19 L1168.1 1526.67 Z" fill="#000000" fill-rule="nonzero" fill-opacity="1" /><path clip-path="url(#clip870)" d="M1221.26 1544.01 Q1220.27 1543.44 1219.09 1543.18 Q1217.95 1542.9 1216.55 1542.9 Q1211.58 1542.9 1208.91 1546.14 Q1206.27 1549.36 1206.27 1555.41 L1206.27 1574.19 L1200.38 1574.19 L1200.38 1538.54 L1206.27 1538.54 L1206.27 1544.08 Q1208.11 1540.83 1211.07 1539.27 Q1214.03 1537.68 1218.27 1537.68 Q1218.87 1537.68 1219.6 1537.77 Q1220.33 1537.84 1221.23 1538 L1221.26 1544.01 Z" fill="#000000" fill-rule="nonzero" fill-opacity="1" /><path clip-path="url(#clip870)" d="M1227.4 1538.54 L1233.26 1538.54 L1233.26 1574.19 L1227.4 1574.19 L1227.4 1538.54 M1227.4 1524.66 L1233.26 1524.66 L1233.26 1532.08 L1227.4 1532.08 L1227.4 1524.66 Z" fill="#000000" fill-rule="nonzero" fill-opacity="1" /><path clip-path="url(#clip870)" d="M1271.17 1539.91 L1271.17 1545.38 Q1268.68 1544.01 1266.17 1543.34 Q1263.69 1542.64 1261.14 1542.64 Q1255.44 1542.64 1252.29 1546.27 Q1249.14 1549.87 1249.14 1556.39 Q1249.14 1562.92 1252.29 1566.55 Q1255.44 1570.14 1261.14 1570.14 Q1263.69 1570.14 1266.17 1569.47 Q1268.68 1568.77 1271.17 1567.41 L1271.17 1572.82 Q1268.71 1573.96 1266.07 1574.54 Q1263.46 1575.11 1260.5 1575.11 Q1252.45 1575.11 1247.71 1570.05 Q1242.96 1564.99 1242.96 1556.39 Q1242.96 1547.67 1247.74 1542.68 Q1252.55 1537.68 1260.88 1537.68 Q1263.59 1537.68 1266.17 1538.25 Q1268.75 1538.79 1271.17 1539.91 Z" fill="#000000" fill-rule="nonzero" fill-opacity="1" /><path clip-path="url(#clip870)" d="M1287.14 1528.42 L1287.14 1538.54 L1299.21 1538.54 L1299.21 1543.09 L1287.14 1543.09 L1287.14 1562.44 Q1287.14 1566.8 1288.32 1568.04 Q1289.53 1569.28 1293.19 1569.28 L1299.21 1569.28 L1299.21 1574.19 L1293.19 1574.19 Q1286.41 1574.19 1283.83 1571.67 Q1281.25 1569.12 1281.25 1562.44 L1281.25 1543.09 L1276.96 1543.09 L1276.96 1538.54 L1281.25 1538.54 L1281.25 1528.42 L1287.14 1528.42 Z" fill="#000000" fill-rule="nonzero" fill-opacity="1" /><path clip-path="url(#clip870)" d="M1306.91 1538.54 L1312.76 1538.54 L1312.76 1574.19 L1306.91 1574.19 L1306.91 1538.54 M1306.91 1524.66 L1312.76 1524.66 L1312.76 1532.08 L1306.91 1532.08 L1306.91 1524.66 Z" fill="#000000" fill-rule="nonzero" fill-opacity="1" /><path clip-path="url(#clip870)" d="M1338.83 1542.64 Q1334.12 1542.64 1331.38 1546.34 Q1328.65 1550 1328.65 1556.39 Q1328.65 1562.79 1331.35 1566.48 Q1334.09 1570.14 1338.83 1570.14 Q1343.51 1570.14 1346.25 1566.45 Q1348.99 1562.76 1348.99 1556.39 Q1348.99 1550.06 1346.25 1546.37 Q1343.51 1542.64 1338.83 1542.64 M1338.83 1537.68 Q1346.47 1537.68 1350.83 1542.64 Q1355.19 1547.61 1355.19 1556.39 Q1355.19 1565.15 1350.83 1570.14 Q1346.47 1575.11 1338.83 1575.11 Q1331.16 1575.11 1326.8 1570.14 Q1322.47 1565.15 1322.47 1556.39 Q1322.47 1547.61 1326.8 1542.64 Q1331.16 1537.68 1338.83 1537.68 Z" fill="#000000" fill-rule="nonzero" fill-opacity="1" /><path clip-path="url(#clip870)" d="M1394.53 1552.67 L1394.53 1574.19 L1388.68 1574.19 L1388.68 1552.86 Q1388.68 1547.8 1386.7 1545.29 Q1384.73 1542.77 1380.78 1542.77 Q1376.04 1542.77 1373.3 1545.79 Q1370.57 1548.82 1370.57 1554.04 L1370.57 1574.19 L1364.68 1574.19 L1364.68 1538.54 L1370.57 1538.54 L1370.57 1544.08 Q1372.67 1540.86 1375.5 1539.27 Q1378.36 1537.68 1382.09 1537.68 Q1388.23 1537.68 1391.38 1541.5 Q1394.53 1545.29 1394.53 1552.67 Z" fill="#000000" fill-rule="nonzero" fill-opacity="1" /><path clip-path="url(#clip870)" d="M1443.07 1533 L1434.35 1556.65 L1451.82 1556.65 L1443.07 1533 M1439.44 1526.67 L1446.73 1526.67 L1464.84 1574.19 L1458.16 1574.19 L1453.83 1562 L1432.41 1562 L1428.08 1574.19 L1421.3 1574.19 L1439.44 1526.67 Z" fill="#000000" fill-rule="nonzero" fill-opacity="1" /><polyline clip-path="url(#clip872)" style="stroke:#000000; stroke-linecap:round; stroke-linejoin:round; stroke-width:2; stroke-opacity:0.1; fill:none" points="280.19,1346.11 2352.76,1346.11 "/>
<polyline clip-path="url(#clip872)" style="stroke:#000000; stroke-linecap:round; stroke-linejoin:round; stroke-width:2; stroke-opacity:0.1; fill:none" points="280.19,1019.86 2352.76,1019.86 "/>
<polyline clip-path="url(#clip872)" style="stroke:#000000; stroke-linecap:round; stroke-linejoin:round; stroke-width:2; stroke-opacity:0.1; fill:none" points="280.19,693.617 2352.76,693.617 "/>
<polyline clip-path="url(#clip872)" style="stroke:#000000; stroke-linecap:round; stroke-linejoin:round; stroke-width:2; stroke-opacity:0.1; fill:none" points="280.19,367.37 2352.76,367.37 "/>
<polyline clip-path="url(#clip870)" style="stroke:#000000; stroke-linecap:round; stroke-linejoin:round; stroke-width:4; stroke-opacity:1; fill:none" points="280.19,1410.9 280.19,123.472 "/>
<polyline clip-path="url(#clip870)" style="stroke:#000000; stroke-linecap:round; stroke-linejoin:round; stroke-width:4; stroke-opacity:1; fill:none" points="280.19,1346.11 299.088,1346.11 "/>
<polyline clip-path="url(#clip870)" style="stroke:#000000; stroke-linecap:round; stroke-linejoin:round; stroke-width:4; stroke-opacity:1; fill:none" points="280.19,1019.86 299.088,1019.86 "/>
<polyline clip-path="url(#clip870)" style="stroke:#000000; stroke-linecap:round; stroke-linejoin:round; stroke-width:4; stroke-opacity:1; fill:none" points="280.19,693.617 299.088,693.617 "/>
<polyline clip-path="url(#clip870)" style="stroke:#000000; stroke-linecap:round; stroke-linejoin:round; stroke-width:4; stroke-opacity:1; fill:none" points="280.19,367.37 299.088,367.37 "/>
<path clip-path="url(#clip870)" d="M128.288 1331.91 Q124.677 1331.91 122.848 1335.48 Q121.043 1339.02 121.043 1346.15 Q121.043 1353.25 122.848 1356.82 Q124.677 1360.36 128.288 1360.36 Q131.922 1360.36 133.728 1356.82 Q135.556 1353.25 135.556 1346.15 Q135.556 1339.02 133.728 1335.48 Q131.922 1331.91 128.288 1331.91 M128.288 1328.21 Q134.098 1328.21 137.154 1332.81 Q140.232 1337.4 140.232 1346.15 Q140.232 1354.87 137.154 1359.48 Q134.098 1364.06 128.288 1364.06 Q122.478 1364.06 119.399 1359.48 Q116.343 1354.87 116.343 1346.15 Q116.343 1337.4 119.399 1332.81 Q122.478 1328.21 128.288 1328.21 Z" fill="#000000" fill-rule="nonzero" fill-opacity="1" /><path clip-path="url(#clip870)" d="M148.45 1357.51 L153.334 1357.51 L153.334 1363.39 L148.45 1363.39 L148.45 1357.51 Z" fill="#000000" fill-rule="nonzero" fill-opacity="1" /><path clip-path="url(#clip870)" d="M163.658 1362.67 L163.658 1358.41 Q165.417 1359.25 167.223 1359.69 Q169.028 1360.13 170.764 1360.13 Q175.394 1360.13 177.825 1357.03 Q180.278 1353.9 180.626 1347.56 Q179.283 1349.55 177.223 1350.61 Q175.163 1351.68 172.663 1351.68 Q167.477 1351.68 164.445 1348.55 Q161.436 1345.41 161.436 1339.97 Q161.436 1334.64 164.584 1331.42 Q167.732 1328.21 172.964 1328.21 Q178.959 1328.21 182.107 1332.81 Q185.278 1337.4 185.278 1346.15 Q185.278 1354.32 181.389 1359.2 Q177.524 1364.06 170.973 1364.06 Q169.214 1364.06 167.408 1363.72 Q165.602 1363.37 163.658 1362.67 M172.964 1348.02 Q176.112 1348.02 177.94 1345.87 Q179.792 1343.72 179.792 1339.97 Q179.792 1336.24 177.94 1334.09 Q176.112 1331.91 172.964 1331.91 Q169.815 1331.91 167.964 1334.09 Q166.135 1336.24 166.135 1339.97 Q166.135 1343.72 167.964 1345.87 Q169.815 1348.02 172.964 1348.02 Z" fill="#000000" fill-rule="nonzero" fill-opacity="1" /><path clip-path="url(#clip870)" d="M206.528 1332.91 L194.723 1351.35 L206.528 1351.35 L206.528 1332.91 M205.301 1328.83 L211.181 1328.83 L211.181 1351.35 L216.111 1351.35 L216.111 1355.24 L211.181 1355.24 L211.181 1363.39 L206.528 1363.39 L206.528 1355.24 L190.926 1355.24 L190.926 1350.73 L205.301 1328.83 Z" fill="#000000" fill-rule="nonzero" fill-opacity="1" /><path clip-path="url(#clip870)" d="M227.871 1359.46 L244.19 1359.46 L244.19 1363.39 L222.246 1363.39 L222.246 1359.46 Q224.908 1356.7 229.491 1352.07 Q234.097 1347.42 235.278 1346.08 Q237.523 1343.55 238.403 1341.82 Q239.306 1340.06 239.306 1338.37 Q239.306 1335.61 237.361 1333.88 Q235.44 1332.14 232.338 1332.14 Q230.139 1332.14 227.685 1332.91 Q225.255 1333.67 222.477 1335.22 L222.477 1330.5 Q225.301 1329.36 227.755 1328.79 Q230.209 1328.21 232.246 1328.21 Q237.616 1328.21 240.81 1330.89 Q244.005 1333.58 244.005 1338.07 Q244.005 1340.2 243.195 1342.12 Q242.408 1344.02 240.301 1346.61 Q239.722 1347.28 236.621 1350.5 Q233.519 1353.69 227.871 1359.46 Z" fill="#000000" fill-rule="nonzero" fill-opacity="1" /><path clip-path="url(#clip870)" d="M126.205 1005.66 Q122.593 1005.66 120.765 1009.23 Q118.959 1012.77 118.959 1019.9 Q118.959 1027.01 120.765 1030.57 Q122.593 1034.11 126.205 1034.11 Q129.839 1034.11 131.644 1030.57 Q133.473 1027.01 133.473 1019.9 Q133.473 1012.77 131.644 1009.23 Q129.839 1005.66 126.205 1005.66 M126.205 1001.96 Q132.015 1001.96 135.07 1006.57 Q138.149 1011.15 138.149 1019.9 Q138.149 1028.63 135.07 1033.23 Q132.015 1037.82 126.205 1037.82 Q120.394 1037.82 117.316 1033.23 Q114.26 1028.63 114.26 1019.9 Q114.26 1011.15 117.316 1006.57 Q120.394 1001.96 126.205 1001.96 Z" fill="#000000" fill-rule="nonzero" fill-opacity="1" /><path clip-path="url(#clip870)" d="M146.366 1031.26 L151.251 1031.26 L151.251 1037.14 L146.366 1037.14 L146.366 1031.26 Z" fill="#000000" fill-rule="nonzero" fill-opacity="1" /><path clip-path="url(#clip870)" d="M161.575 1036.43 L161.575 1032.17 Q163.334 1033 165.14 1033.44 Q166.945 1033.88 168.681 1033.88 Q173.311 1033.88 175.741 1030.78 Q178.195 1027.65 178.542 1021.31 Q177.2 1023.3 175.139 1024.37 Q173.079 1025.43 170.579 1025.43 Q165.394 1025.43 162.362 1022.31 Q159.353 1019.16 159.353 1013.72 Q159.353 1008.39 162.501 1005.18 Q165.649 1001.96 170.88 1001.96 Q176.876 1001.96 180.024 1006.57 Q183.195 1011.15 183.195 1019.9 Q183.195 1028.07 179.306 1032.95 Q175.44 1037.82 168.889 1037.82 Q167.13 1037.82 165.325 1037.47 Q163.519 1037.12 161.575 1036.43 M170.88 1021.77 Q174.028 1021.77 175.857 1019.62 Q177.709 1017.47 177.709 1013.72 Q177.709 1009.99 175.857 1007.84 Q174.028 1005.66 170.88 1005.66 Q167.732 1005.66 165.88 1007.84 Q164.052 1009.99 164.052 1013.72 Q164.052 1017.47 165.88 1019.62 Q167.732 1021.77 170.88 1021.77 Z" fill="#000000" fill-rule="nonzero" fill-opacity="1" /><path clip-path="url(#clip870)" d="M204.445 1006.66 L192.639 1025.11 L204.445 1025.11 L204.445 1006.66 M203.218 1002.58 L209.098 1002.58 L209.098 1025.11 L214.028 1025.11 L214.028 1029 L209.098 1029 L209.098 1037.14 L204.445 1037.14 L204.445 1029 L188.843 1029 L188.843 1024.48 L203.218 1002.58 Z" fill="#000000" fill-rule="nonzero" fill-opacity="1" /><path clip-path="url(#clip870)" d="M234.607 1006.66 L222.801 1025.11 L234.607 1025.11 L234.607 1006.66 M233.38 1002.58 L239.259 1002.58 L239.259 1025.11 L244.19 1025.11 L244.19 1029 L239.259 1029 L239.259 1037.14 L234.607 1037.14 L234.607 1029 L219.005 1029 L219.005 1024.48 L233.38 1002.58 Z" fill="#000000" fill-rule="nonzero" fill-opacity="1" /><path clip-path="url(#clip870)" d="M126.529 679.416 Q122.918 679.416 121.089 682.981 Q119.283 686.522 119.283 693.652 Q119.283 700.758 121.089 704.323 Q122.918 707.865 126.529 707.865 Q130.163 707.865 131.968 704.323 Q133.797 700.758 133.797 693.652 Q133.797 686.522 131.968 682.981 Q130.163 679.416 126.529 679.416 M126.529 675.712 Q132.339 675.712 135.394 680.319 Q138.473 684.902 138.473 693.652 Q138.473 702.379 135.394 706.985 Q132.339 711.569 126.529 711.569 Q120.718 711.569 117.64 706.985 Q114.584 702.379 114.584 693.652 Q114.584 684.902 117.64 680.319 Q120.718 675.712 126.529 675.712 Z" fill="#000000" fill-rule="nonzero" fill-opacity="1" /><path clip-path="url(#clip870)" d="M146.691 705.018 L151.575 705.018 L151.575 710.897 L146.691 710.897 L146.691 705.018 Z" fill="#000000" fill-rule="nonzero" fill-opacity="1" /><path clip-path="url(#clip870)" d="M161.899 710.18 L161.899 705.92 Q163.658 706.754 165.464 707.194 Q167.269 707.633 169.005 707.633 Q173.635 707.633 176.065 704.532 Q178.519 701.407 178.866 695.064 Q177.524 697.055 175.464 698.12 Q173.403 699.184 170.903 699.184 Q165.718 699.184 162.686 696.059 Q159.677 692.911 159.677 687.471 Q159.677 682.147 162.825 678.93 Q165.973 675.712 171.204 675.712 Q177.2 675.712 180.348 680.319 Q183.519 684.902 183.519 693.652 Q183.519 701.823 179.63 706.707 Q175.764 711.569 169.214 711.569 Q167.454 711.569 165.649 711.221 Q163.843 710.874 161.899 710.18 M171.204 695.527 Q174.352 695.527 176.181 693.374 Q178.033 691.221 178.033 687.471 Q178.033 683.745 176.181 681.592 Q174.352 679.416 171.204 679.416 Q168.056 679.416 166.204 681.592 Q164.376 683.745 164.376 687.471 Q164.376 691.221 166.204 693.374 Q168.056 695.527 171.204 695.527 Z" fill="#000000" fill-rule="nonzero" fill-opacity="1" /><path clip-path="url(#clip870)" d="M204.769 680.411 L192.963 698.86 L204.769 698.86 L204.769 680.411 M203.542 676.337 L209.422 676.337 L209.422 698.86 L214.352 698.86 L214.352 702.749 L209.422 702.749 L209.422 710.897 L204.769 710.897 L204.769 702.749 L189.167 702.749 L189.167 698.235 L203.542 676.337 Z" fill="#000000" fill-rule="nonzero" fill-opacity="1" /><path clip-path="url(#clip870)" d="M232.662 691.754 Q229.514 691.754 227.662 693.907 Q225.834 696.059 225.834 699.809 Q225.834 703.536 227.662 705.712 Q229.514 707.865 232.662 707.865 Q235.81 707.865 237.639 705.712 Q239.491 703.536 239.491 699.809 Q239.491 696.059 237.639 693.907 Q235.81 691.754 232.662 691.754 M241.945 677.101 L241.945 681.36 Q240.185 680.527 238.38 680.087 Q236.597 679.647 234.838 679.647 Q230.209 679.647 227.755 682.772 Q225.324 685.897 224.977 692.217 Q226.343 690.203 228.403 689.138 Q230.463 688.05 232.94 688.05 Q238.148 688.05 241.158 691.221 Q244.19 694.37 244.19 699.809 Q244.19 705.133 241.042 708.351 Q237.894 711.569 232.662 711.569 Q226.667 711.569 223.496 706.985 Q220.324 702.379 220.324 693.652 Q220.324 685.458 224.213 680.597 Q228.102 675.712 234.653 675.712 Q236.412 675.712 238.195 676.059 Q240 676.407 241.945 677.101 Z" fill="#000000" fill-rule="nonzero" fill-opacity="1" /><path clip-path="url(#clip870)" d="M126.783 353.169 Q123.172 353.169 121.343 356.734 Q119.538 360.275 119.538 367.405 Q119.538 374.511 121.343 378.076 Q123.172 381.618 126.783 381.618 Q130.417 381.618 132.223 378.076 Q134.052 374.511 134.052 367.405 Q134.052 360.275 132.223 356.734 Q130.417 353.169 126.783 353.169 M126.783 349.465 Q132.593 349.465 135.649 354.072 Q138.728 358.655 138.728 367.405 Q138.728 376.132 135.649 380.738 Q132.593 385.321 126.783 385.321 Q120.973 385.321 117.894 380.738 Q114.839 376.132 114.839 367.405 Q114.839 358.655 117.894 354.072 Q120.973 349.465 126.783 349.465 Z" fill="#000000" fill-rule="nonzero" fill-opacity="1" /><path clip-path="url(#clip870)" d="M146.945 378.77 L151.829 378.77 L151.829 384.65 L146.945 384.65 L146.945 378.77 Z" fill="#000000" fill-rule="nonzero" fill-opacity="1" /><path clip-path="url(#clip870)" d="M162.153 383.932 L162.153 379.673 Q163.913 380.507 165.718 380.946 Q167.524 381.386 169.26 381.386 Q173.889 381.386 176.32 378.284 Q178.774 375.159 179.121 368.817 Q177.778 370.808 175.718 371.872 Q173.658 372.937 171.158 372.937 Q165.973 372.937 162.94 369.812 Q159.931 366.664 159.931 361.224 Q159.931 355.9 163.079 352.683 Q166.227 349.465 171.459 349.465 Q177.454 349.465 180.602 354.072 Q183.774 358.655 183.774 367.405 Q183.774 375.576 179.885 380.46 Q176.019 385.321 169.468 385.321 Q167.709 385.321 165.903 384.974 Q164.098 384.627 162.153 383.932 M171.459 369.28 Q174.607 369.28 176.436 367.127 Q178.288 364.974 178.288 361.224 Q178.288 357.497 176.436 355.345 Q174.607 353.169 171.459 353.169 Q168.311 353.169 166.459 355.345 Q164.63 357.497 164.63 361.224 Q164.63 364.974 166.459 367.127 Q168.311 369.28 171.459 369.28 Z" fill="#000000" fill-rule="nonzero" fill-opacity="1" /><path clip-path="url(#clip870)" d="M205.024 354.164 L193.218 372.613 L205.024 372.613 L205.024 354.164 M203.797 350.09 L209.676 350.09 L209.676 372.613 L214.607 372.613 L214.607 376.502 L209.676 376.502 L209.676 384.65 L205.024 384.65 L205.024 376.502 L189.422 376.502 L189.422 371.988 L203.797 350.09 Z" fill="#000000" fill-rule="nonzero" fill-opacity="1" /><path clip-path="url(#clip870)" d="M232.338 368.238 Q229.005 368.238 227.084 370.021 Q225.185 371.803 225.185 374.928 Q225.185 378.053 227.084 379.835 Q229.005 381.618 232.338 381.618 Q235.672 381.618 237.593 379.835 Q239.514 378.03 239.514 374.928 Q239.514 371.803 237.593 370.021 Q235.695 368.238 232.338 368.238 M227.662 366.247 Q224.653 365.507 222.963 363.446 Q221.297 361.386 221.297 358.423 Q221.297 354.28 224.236 351.872 Q227.199 349.465 232.338 349.465 Q237.5 349.465 240.44 351.872 Q243.38 354.28 243.38 358.423 Q243.38 361.386 241.69 363.446 Q240.023 365.507 237.037 366.247 Q240.417 367.034 242.292 369.326 Q244.19 371.618 244.19 374.928 Q244.19 379.951 241.111 382.636 Q238.056 385.321 232.338 385.321 Q226.621 385.321 223.542 382.636 Q220.486 379.951 220.486 374.928 Q220.486 371.618 222.385 369.326 Q224.283 367.034 227.662 366.247 M225.949 358.863 Q225.949 361.548 227.616 363.053 Q229.306 364.558 232.338 364.558 Q235.347 364.558 237.037 363.053 Q238.75 361.548 238.75 358.863 Q238.75 356.178 237.037 354.673 Q235.347 353.169 232.338 353.169 Q229.306 353.169 227.616 354.673 Q225.949 356.178 225.949 358.863 Z" fill="#000000" fill-rule="nonzero" fill-opacity="1" /><path clip-path="url(#clip870)" d="M46.0847 892.875 Q46.0847 899.973 47.7079 902.71 Q49.3312 905.448 53.2461 905.448 Q56.3653 905.448 58.2114 903.411 Q60.0256 901.342 60.0256 897.809 Q60.0256 892.939 56.5881 890.011 Q53.1188 887.051 47.3897 887.051 L46.0847 887.051 L46.0847 892.875 M43.6657 881.194 L64.0042 881.194 L64.0042 887.051 L58.5933 887.051 Q61.8398 889.056 63.3994 892.048 Q64.9272 895.04 64.9272 899.368 Q64.9272 904.843 61.8716 908.089 Q58.7843 911.304 53.6281 911.304 Q47.6125 911.304 44.5569 907.294 Q41.5014 903.251 41.5014 895.262 L41.5014 887.051 L40.9285 887.051 Q36.8862 887.051 34.6901 889.724 Q32.4621 892.366 32.4621 897.172 Q32.4621 900.228 33.1941 903.124 Q33.9262 906.02 35.3903 908.694 L29.9795 908.694 Q28.7381 905.479 28.1334 902.456 Q27.4968 899.432 27.4968 896.567 Q27.4968 888.833 31.5072 885.014 Q35.5176 881.194 43.6657 881.194 Z" fill="#000000" fill-rule="nonzero" fill-opacity="1" /><path clip-path="url(#clip870)" d="M29.7248 843.477 L35.1993 843.477 Q33.8307 845.96 33.1623 848.474 Q32.4621 850.957 32.4621 853.503 Q32.4621 859.201 36.0905 862.352 Q39.6872 865.503 46.212 865.503 Q52.7369 865.503 56.3653 862.352 Q59.9619 859.201 59.9619 853.503 Q59.9619 850.957 59.2935 848.474 Q58.5933 845.96 57.2247 843.477 L62.6355 843.477 Q63.7814 845.928 64.3543 848.57 Q64.9272 851.18 64.9272 854.14 Q64.9272 862.193 59.8664 866.935 Q54.8057 871.677 46.212 871.677 Q37.491 871.677 32.4939 866.903 Q27.4968 862.097 27.4968 853.758 Q27.4968 851.053 28.0697 848.474 Q28.6108 845.896 29.7248 843.477 Z" fill="#000000" fill-rule="nonzero" fill-opacity="1" /><path clip-path="url(#clip870)" d="M29.7248 807.638 L35.1993 807.638 Q33.8307 810.121 33.1623 812.636 Q32.4621 815.118 32.4621 817.664 Q32.4621 823.362 36.0905 826.513 Q39.6872 829.664 46.212 829.664 Q52.7369 829.664 56.3653 826.513 Q59.9619 823.362 59.9619 817.664 Q59.9619 815.118 59.2935 812.636 Q58.5933 810.121 57.2247 807.638 L62.6355 807.638 Q63.7814 810.089 64.3543 812.731 Q64.9272 815.341 64.9272 818.301 Q64.9272 826.354 59.8664 831.096 Q54.8057 835.839 46.212 835.839 Q37.491 835.839 32.4939 831.064 Q27.4968 826.258 27.4968 817.919 Q27.4968 815.214 28.0697 812.636 Q28.6108 810.057 29.7248 807.638 Z" fill="#000000" fill-rule="nonzero" fill-opacity="1" /><path clip-path="url(#clip870)" d="M49.9359 798.058 L28.3562 798.058 L28.3562 792.202 L49.7131 792.202 Q54.7739 792.202 57.3202 790.228 Q59.8346 788.255 59.8346 784.308 Q59.8346 779.566 56.8109 776.828 Q53.7872 774.059 48.5673 774.059 L28.3562 774.059 L28.3562 768.203 L64.0042 768.203 L64.0042 774.059 L58.5296 774.059 Q61.7762 776.192 63.3676 779.025 Q64.9272 781.826 64.9272 785.549 Q64.9272 791.692 61.1078 794.875 Q57.2883 798.058 49.9359 798.058 M27.4968 783.321 L27.4968 783.321 Z" fill="#000000" fill-rule="nonzero" fill-opacity="1" /><path clip-path="url(#clip870)" d="M33.8307 735.483 Q33.2578 736.47 33.0032 737.648 Q32.7167 738.793 32.7167 740.194 Q32.7167 745.159 35.9632 747.833 Q39.1779 750.474 45.2253 750.474 L64.0042 750.474 L64.0042 756.363 L28.3562 756.363 L28.3562 750.474 L33.8944 750.474 Q30.6479 748.628 29.0883 745.668 Q27.4968 742.708 27.4968 738.475 Q27.4968 737.87 27.5923 737.138 Q27.656 736.406 27.8151 735.515 L33.8307 735.483 Z" fill="#000000" fill-rule="nonzero" fill-opacity="1" /><path clip-path="url(#clip870)" d="M46.0847 713.14 Q46.0847 720.237 47.7079 722.975 Q49.3312 725.712 53.2461 725.712 Q56.3653 725.712 58.2114 723.675 Q60.0256 721.606 60.0256 718.073 Q60.0256 713.203 56.5881 710.275 Q53.1188 707.315 47.3897 707.315 L46.0847 707.315 L46.0847 713.14 M43.6657 701.458 L64.0042 701.458 L64.0042 707.315 L58.5933 707.315 Q61.8398 709.32 63.3994 712.312 Q64.9272 715.304 64.9272 719.633 Q64.9272 725.107 61.8716 728.354 Q58.7843 731.568 53.6281 731.568 Q47.6125 731.568 44.5569 727.558 Q41.5014 723.516 41.5014 715.527 L41.5014 707.315 L40.9285 707.315 Q36.8862 707.315 34.6901 709.989 Q32.4621 712.63 32.4621 717.436 Q32.4621 720.492 33.1941 723.388 Q33.9262 726.285 35.3903 728.958 L29.9795 728.958 Q28.7381 725.744 28.1334 722.72 Q27.4968 719.696 27.4968 716.832 Q27.4968 709.097 31.5072 705.278 Q35.5176 701.458 43.6657 701.458 Z" fill="#000000" fill-rule="nonzero" fill-opacity="1" /><path clip-path="url(#clip870)" d="M29.7248 663.742 L35.1993 663.742 Q33.8307 666.224 33.1623 668.739 Q32.4621 671.221 32.4621 673.768 Q32.4621 679.465 36.0905 682.616 Q39.6872 685.767 46.212 685.767 Q52.7369 685.767 56.3653 682.616 Q59.9619 679.465 59.9619 673.768 Q59.9619 671.221 59.2935 668.739 Q58.5933 666.224 57.2247 663.742 L62.6355 663.742 Q63.7814 666.192 64.3543 668.834 Q64.9272 671.444 64.9272 674.404 Q64.9272 682.457 59.8664 687.199 Q54.8057 691.942 46.212 691.942 Q37.491 691.942 32.4939 687.167 Q27.4968 682.361 27.4968 674.022 Q27.4968 671.317 28.0697 668.739 Q28.6108 666.161 29.7248 663.742 Z" fill="#000000" fill-rule="nonzero" fill-opacity="1" /><path clip-path="url(#clip870)" d="M67.3143 638.724 Q73.68 641.207 75.6216 643.562 Q77.5631 645.918 77.5631 649.864 L77.5631 654.543 L72.6615 654.543 L72.6615 651.106 Q72.6615 648.687 71.5157 647.35 Q70.3699 646.013 66.1048 644.39 L63.4312 643.34 L28.3562 657.758 L28.3562 651.551 L56.238 640.411 L28.3562 629.271 L28.3562 623.065 L67.3143 638.724 Z" fill="#000000" fill-rule="nonzero" fill-opacity="1" /><path clip-path="url(#clip870)" d="M709.587 65.7705 L709.587 89.8329 L702.093 89.8329 L702.093 27.2059 L709.587 27.2059 L709.587 34.0924 Q711.936 30.0415 715.501 28.0971 Q719.106 26.1121 724.089 26.1121 Q732.353 26.1121 737.497 32.6746 Q742.683 39.2371 742.683 49.9314 Q742.683 60.6258 737.497 67.1883 Q732.353 73.7508 724.089 73.7508 Q719.106 73.7508 715.501 71.8063 Q711.936 69.8214 709.587 65.7705 M734.945 49.9314 Q734.945 41.7081 731.543 37.0496 Q728.18 32.3505 722.266 32.3505 Q716.352 32.3505 712.949 37.0496 Q709.587 41.7081 709.587 49.9314 Q709.587 58.1548 712.949 62.8538 Q716.352 67.5124 722.266 67.5124 Q728.18 67.5124 731.543 62.8538 Q734.945 58.1548 734.945 49.9314 Z" fill="#000000" fill-rule="nonzero" fill-opacity="1" /><path clip-path="url(#clip870)" d="M781.328 34.1734 Q780.072 33.4443 778.574 33.1202 Q777.115 32.7556 775.333 32.7556 Q769.014 32.7556 765.611 36.8875 Q762.249 40.9789 762.249 48.6757 L762.249 72.576 L754.754 72.576 L754.754 27.2059 L762.249 27.2059 L762.249 34.2544 Q764.598 30.1225 768.365 28.1376 Q772.133 26.1121 777.52 26.1121 Q778.29 26.1121 779.222 26.2337 Q780.153 26.3147 781.288 26.5172 L781.328 34.1734 Z" fill="#000000" fill-rule="nonzero" fill-opacity="1" /><path clip-path="url(#clip870)" d="M826.131 48.0275 L826.131 51.6733 L791.861 51.6733 Q792.347 59.3701 796.479 63.421 Q800.651 67.4314 808.064 67.4314 Q812.358 67.4314 816.369 66.3781 Q820.419 65.3249 824.389 63.2184 L824.389 70.267 Q820.379 71.9684 816.166 72.8596 Q811.953 73.7508 807.619 73.7508 Q796.762 73.7508 790.402 67.4314 Q784.083 61.1119 784.083 50.3365 Q784.083 39.1965 790.078 32.6746 Q796.114 26.1121 806.322 26.1121 Q815.477 26.1121 820.784 32.0264 Q826.131 37.9003 826.131 48.0275 M818.678 45.84 Q818.597 39.7232 815.234 36.0774 Q811.913 32.4315 806.403 32.4315 Q800.165 32.4315 796.398 35.9558 Q792.671 39.4801 792.104 45.8805 L818.678 45.84 Z" fill="#000000" fill-rule="nonzero" fill-opacity="1" /><path clip-path="url(#clip870)" d="M868.22 34.0924 L868.22 9.54393 L875.674 9.54393 L875.674 72.576 L868.22 72.576 L868.22 65.7705 Q865.871 69.8214 862.265 71.8063 Q858.701 73.7508 853.677 73.7508 Q845.454 73.7508 840.269 67.1883 Q835.124 60.6258 835.124 49.9314 Q835.124 39.2371 840.269 32.6746 Q845.454 26.1121 853.677 26.1121 Q858.701 26.1121 862.265 28.0971 Q865.871 30.0415 868.22 34.0924 M842.821 49.9314 Q842.821 58.1548 846.183 62.8538 Q849.586 67.5124 855.5 67.5124 Q861.415 67.5124 864.817 62.8538 Q868.22 58.1548 868.22 49.9314 Q868.22 41.7081 864.817 37.0496 Q861.415 32.3505 855.5 32.3505 Q849.586 32.3505 846.183 37.0496 Q842.821 41.7081 842.821 49.9314 Z" fill="#000000" fill-rule="nonzero" fill-opacity="1" /><path clip-path="url(#clip870)" d="M891.027 27.2059 L898.48 27.2059 L898.48 72.576 L891.027 72.576 L891.027 27.2059 M891.027 9.54393 L898.48 9.54393 L898.48 18.9825 L891.027 18.9825 L891.027 9.54393 Z" fill="#000000" fill-rule="nonzero" fill-opacity="1" /><path clip-path="url(#clip870)" d="M946.727 28.9478 L946.727 35.9153 Q943.567 34.1734 940.367 33.3227 Q937.207 32.4315 933.966 32.4315 Q926.715 32.4315 922.705 37.0496 Q918.694 41.6271 918.694 49.9314 Q918.694 58.2358 922.705 62.8538 Q926.715 67.4314 933.966 67.4314 Q937.207 67.4314 940.367 66.5807 Q943.567 65.6895 946.727 63.9476 L946.727 70.8341 Q943.607 72.2924 940.245 73.0216 Q936.923 73.7508 933.156 73.7508 Q922.907 73.7508 916.872 67.3098 Q910.836 60.8689 910.836 49.9314 Q910.836 38.832 916.912 32.472 Q923.029 26.1121 933.642 26.1121 Q937.086 26.1121 940.367 26.8413 Q943.648 27.5299 946.727 28.9478 Z" fill="#000000" fill-rule="nonzero" fill-opacity="1" /><path clip-path="url(#clip870)" d="M967.062 14.324 L967.062 27.2059 L982.415 27.2059 L982.415 32.9987 L967.062 32.9987 L967.062 57.6282 Q967.062 63.1779 968.561 64.7578 Q970.1 66.3376 974.759 66.3376 L982.415 66.3376 L982.415 72.576 L974.759 72.576 Q966.131 72.576 962.849 69.3758 Q959.568 66.1351 959.568 57.6282 L959.568 32.9987 L954.099 32.9987 L954.099 27.2059 L959.568 27.2059 L959.568 14.324 L967.062 14.324 Z" fill="#000000" fill-rule="nonzero" fill-opacity="1" /><path clip-path="url(#clip870)" d="M1039.21 49.7694 Q1030.18 49.7694 1026.69 51.8354 Q1023.21 53.9013 1023.21 58.8839 Q1023.21 62.8538 1025.8 65.2034 Q1028.43 67.5124 1032.93 67.5124 Q1039.13 67.5124 1042.85 63.1374 Q1046.62 58.7219 1046.62 51.4303 L1046.62 49.7694 L1039.21 49.7694 M1054.08 46.6907 L1054.08 72.576 L1046.62 72.576 L1046.62 65.6895 Q1044.07 69.8214 1040.26 71.8063 Q1036.45 73.7508 1030.94 73.7508 Q1023.98 73.7508 1019.85 69.8619 Q1015.75 65.9325 1015.75 59.3701 Q1015.75 51.7138 1020.86 47.825 Q1026 43.9361 1036.17 43.9361 L1046.62 43.9361 L1046.62 43.2069 Q1046.62 38.0623 1043.22 35.2672 Q1039.86 32.4315 1033.74 32.4315 Q1029.85 32.4315 1026.16 33.3632 Q1022.48 34.295 1019.08 36.1584 L1019.08 29.2718 Q1023.17 27.692 1027.02 26.9223 Q1030.86 26.1121 1034.51 26.1121 Q1044.35 26.1121 1049.21 31.2163 Q1054.08 36.3204 1054.08 46.6907 Z" fill="#000000" fill-rule="nonzero" fill-opacity="1" /><path clip-path="url(#clip870)" d="M1102.08 28.9478 L1102.08 35.9153 Q1098.92 34.1734 1095.72 33.3227 Q1092.56 32.4315 1089.32 32.4315 Q1082.07 32.4315 1078.06 37.0496 Q1074.05 41.6271 1074.05 49.9314 Q1074.05 58.2358 1078.06 62.8538 Q1082.07 67.4314 1089.32 67.4314 Q1092.56 67.4314 1095.72 66.5807 Q1098.92 65.6895 1102.08 63.9476 L1102.08 70.8341 Q1098.96 72.2924 1095.6 73.0216 Q1092.28 73.7508 1088.51 73.7508 Q1078.26 73.7508 1072.22 67.3098 Q1066.19 60.8689 1066.19 49.9314 Q1066.19 38.832 1072.26 32.472 Q1078.38 26.1121 1088.99 26.1121 Q1092.44 26.1121 1095.72 26.8413 Q1099 27.5299 1102.08 28.9478 Z" fill="#000000" fill-rule="nonzero" fill-opacity="1" /><path clip-path="url(#clip870)" d="M1147.69 28.9478 L1147.69 35.9153 Q1144.53 34.1734 1141.33 33.3227 Q1138.17 32.4315 1134.93 32.4315 Q1127.68 32.4315 1123.67 37.0496 Q1119.66 41.6271 1119.66 49.9314 Q1119.66 58.2358 1123.67 62.8538 Q1127.68 67.4314 1134.93 67.4314 Q1138.17 67.4314 1141.33 66.5807 Q1144.53 65.6895 1147.69 63.9476 L1147.69 70.8341 Q1144.57 72.2924 1141.21 73.0216 Q1137.89 73.7508 1134.12 73.7508 Q1123.87 73.7508 1117.84 67.3098 Q1111.8 60.8689 1111.8 49.9314 Q1111.8 38.832 1117.88 32.472 Q1123.99 26.1121 1134.61 26.1121 Q1138.05 26.1121 1141.33 26.8413 Q1144.61 27.5299 1147.69 28.9478 Z" fill="#000000" fill-rule="nonzero" fill-opacity="1" /><path clip-path="url(#clip870)" d="M1159.89 54.671 L1159.89 27.2059 L1167.34 27.2059 L1167.34 54.3874 Q1167.34 60.8284 1169.85 64.0691 Q1172.36 67.2693 1177.39 67.2693 Q1183.42 67.2693 1186.9 63.421 Q1190.43 59.5726 1190.43 52.9291 L1190.43 27.2059 L1197.88 27.2059 L1197.88 72.576 L1190.43 72.576 L1190.43 65.6084 Q1187.71 69.7404 1184.11 71.7658 Q1180.54 73.7508 1175.81 73.7508 Q1167.99 73.7508 1163.94 68.8897 Q1159.89 64.0286 1159.89 54.671 M1178.64 26.1121 L1178.64 26.1121 Z" fill="#000000" fill-rule="nonzero" fill-opacity="1" /><path clip-path="url(#clip870)" d="M1239.53 34.1734 Q1238.27 33.4443 1236.77 33.1202 Q1235.31 32.7556 1233.53 32.7556 Q1227.21 32.7556 1223.81 36.8875 Q1220.45 40.9789 1220.45 48.6757 L1220.45 72.576 L1212.95 72.576 L1212.95 27.2059 L1220.45 27.2059 L1220.45 34.2544 Q1222.8 30.1225 1226.56 28.1376 Q1230.33 26.1121 1235.72 26.1121 Q1236.49 26.1121 1237.42 26.2337 Q1238.35 26.3147 1239.49 26.5172 L1239.53 34.1734 Z" fill="#000000" fill-rule="nonzero" fill-opacity="1" /><path clip-path="url(#clip870)" d="M1267.96 49.7694 Q1258.93 49.7694 1255.45 51.8354 Q1251.96 53.9013 1251.96 58.8839 Q1251.96 62.8538 1254.55 65.2034 Q1257.19 67.5124 1261.68 67.5124 Q1267.88 67.5124 1271.61 63.1374 Q1275.38 58.7219 1275.38 51.4303 L1275.38 49.7694 L1267.96 49.7694 M1282.83 46.6907 L1282.83 72.576 L1275.38 72.576 L1275.38 65.6895 Q1272.82 69.8214 1269.02 71.8063 Q1265.21 73.7508 1259.7 73.7508 Q1252.73 73.7508 1248.6 69.8619 Q1244.51 65.9325 1244.51 59.3701 Q1244.51 51.7138 1249.61 47.825 Q1254.76 43.9361 1264.93 43.9361 L1275.38 43.9361 L1275.38 43.2069 Q1275.38 38.0623 1271.97 35.2672 Q1268.61 32.4315 1262.49 32.4315 Q1258.61 32.4315 1254.92 33.3632 Q1251.23 34.295 1247.83 36.1584 L1247.83 29.2718 Q1251.92 27.692 1255.77 26.9223 Q1259.62 26.1121 1263.26 26.1121 Q1273.11 26.1121 1277.97 31.2163 Q1282.83 36.3204 1282.83 46.6907 Z" fill="#000000" fill-rule="nonzero" fill-opacity="1" /><path clip-path="url(#clip870)" d="M1330.83 28.9478 L1330.83 35.9153 Q1327.67 34.1734 1324.47 33.3227 Q1321.31 32.4315 1318.07 32.4315 Q1310.82 32.4315 1306.81 37.0496 Q1302.8 41.6271 1302.8 49.9314 Q1302.8 58.2358 1306.81 62.8538 Q1310.82 67.4314 1318.07 67.4314 Q1321.31 67.4314 1324.47 66.5807 Q1327.67 65.6895 1330.83 63.9476 L1330.83 70.8341 Q1327.71 72.2924 1324.35 73.0216 Q1321.03 73.7508 1317.26 73.7508 Q1307.01 73.7508 1300.98 67.3098 Q1294.94 60.8689 1294.94 49.9314 Q1294.94 38.832 1301.02 32.472 Q1307.14 26.1121 1317.75 26.1121 Q1321.19 26.1121 1324.47 26.8413 Q1327.75 27.5299 1330.83 28.9478 Z" fill="#000000" fill-rule="nonzero" fill-opacity="1" /><path clip-path="url(#clip870)" d="M1362.67 76.7889 Q1359.51 84.8907 1356.52 87.3618 Q1353.52 89.8329 1348.5 89.8329 L1342.54 89.8329 L1342.54 83.5945 L1346.92 83.5945 Q1349.99 83.5945 1351.7 82.1361 Q1353.4 80.6778 1355.46 75.2496 L1356.8 71.8468 L1338.45 27.2059 L1346.35 27.2059 L1360.53 62.6918 L1374.7 27.2059 L1382.6 27.2059 L1362.67 76.7889 Z" fill="#000000" fill-rule="nonzero" fill-opacity="1" /><path clip-path="url(#clip870)" d="M1436.85 32.4315 Q1430.85 32.4315 1427.37 37.1306 Q1423.88 41.7891 1423.88 49.9314 Q1423.88 58.0738 1427.33 62.7728 Q1430.81 67.4314 1436.85 67.4314 Q1442.8 67.4314 1446.28 62.7323 Q1449.77 58.0333 1449.77 49.9314 Q1449.77 41.8701 1446.28 37.1711 Q1442.8 32.4315 1436.85 32.4315 M1436.85 26.1121 Q1446.57 26.1121 1452.12 32.4315 Q1457.67 38.7509 1457.67 49.9314 Q1457.67 61.0714 1452.12 67.4314 Q1446.57 73.7508 1436.85 73.7508 Q1427.08 73.7508 1421.53 67.4314 Q1416.02 61.0714 1416.02 49.9314 Q1416.02 38.7509 1421.53 32.4315 Q1427.08 26.1121 1436.85 26.1121 Z" fill="#000000" fill-rule="nonzero" fill-opacity="1" /><path clip-path="url(#clip870)" d="M1492.99 9.54393 L1492.99 15.7418 L1485.86 15.7418 Q1481.85 15.7418 1480.27 17.3622 Q1478.73 18.9825 1478.73 23.1955 L1478.73 27.2059 L1491.01 27.2059 L1491.01 32.9987 L1478.73 32.9987 L1478.73 72.576 L1471.24 72.576 L1471.24 32.9987 L1464.11 32.9987 L1464.11 27.2059 L1471.24 27.2059 L1471.24 24.0462 Q1471.24 16.471 1474.76 13.0277 Q1478.29 9.54393 1485.94 9.54393 L1492.99 9.54393 Z" fill="#000000" fill-rule="nonzero" fill-opacity="1" /><path clip-path="url(#clip870)" d="M1532.97 14.324 L1532.97 27.2059 L1548.33 27.2059 L1548.33 32.9987 L1532.97 32.9987 L1532.97 57.6282 Q1532.97 63.1779 1534.47 64.7578 Q1536.01 66.3376 1540.67 66.3376 L1548.33 66.3376 L1548.33 72.576 L1540.67 72.576 Q1532.04 72.576 1528.76 69.3758 Q1525.48 66.1351 1525.48 57.6282 L1525.48 32.9987 L1520.01 32.9987 L1520.01 27.2059 L1525.48 27.2059 L1525.48 14.324 L1532.97 14.324 Z" fill="#000000" fill-rule="nonzero" fill-opacity="1" /><path clip-path="url(#clip870)" d="M1595.84 45.1919 L1595.84 72.576 L1588.39 72.576 L1588.39 45.4349 Q1588.39 38.994 1585.88 35.7938 Q1583.37 32.5936 1578.34 32.5936 Q1572.31 32.5936 1568.82 36.4419 Q1565.34 40.2903 1565.34 46.9338 L1565.34 72.576 L1557.85 72.576 L1557.85 9.54393 L1565.34 9.54393 L1565.34 34.2544 Q1568.01 30.163 1571.62 28.1376 Q1575.26 26.1121 1580 26.1121 Q1587.82 26.1121 1591.83 30.9732 Q1595.84 35.7938 1595.84 45.1919 Z" fill="#000000" fill-rule="nonzero" fill-opacity="1" /><path clip-path="url(#clip870)" d="M1649.52 48.0275 L1649.52 51.6733 L1615.25 51.6733 Q1615.73 59.3701 1619.87 63.421 Q1624.04 67.4314 1631.45 67.4314 Q1635.74 67.4314 1639.76 66.3781 Q1643.81 65.3249 1647.78 63.2184 L1647.78 70.267 Q1643.77 71.9684 1639.55 72.8596 Q1635.34 73.7508 1631.01 73.7508 Q1620.15 73.7508 1613.79 67.4314 Q1607.47 61.1119 1607.47 50.3365 Q1607.47 39.1965 1613.47 32.6746 Q1619.5 26.1121 1629.71 26.1121 Q1638.86 26.1121 1644.17 32.0264 Q1649.52 37.9003 1649.52 48.0275 M1642.06 45.84 Q1641.98 39.7232 1638.62 36.0774 Q1635.3 32.4315 1629.79 32.4315 Q1623.55 32.4315 1619.78 35.9558 Q1616.06 39.4801 1615.49 45.8805 L1642.06 45.84 Z" fill="#000000" fill-rule="nonzero" fill-opacity="1" /><path clip-path="url(#clip870)" d="M1723.45 35.9153 Q1726.24 30.8922 1730.13 28.5022 Q1734.02 26.1121 1739.29 26.1121 Q1746.38 26.1121 1750.22 31.0947 Q1754.07 36.0368 1754.07 45.1919 L1754.07 72.576 L1746.58 72.576 L1746.58 45.4349 Q1746.58 38.913 1744.27 35.7533 Q1741.96 32.5936 1737.22 32.5936 Q1731.43 32.5936 1728.07 36.4419 Q1724.7 40.2903 1724.7 46.9338 L1724.7 72.576 L1717.21 72.576 L1717.21 45.4349 Q1717.21 38.8725 1714.9 35.7533 Q1712.59 32.5936 1707.77 32.5936 Q1702.06 32.5936 1698.7 36.4824 Q1695.33 40.3308 1695.33 46.9338 L1695.33 72.576 L1687.84 72.576 L1687.84 27.2059 L1695.33 27.2059 L1695.33 34.2544 Q1697.89 30.082 1701.45 28.0971 Q1705.02 26.1121 1709.92 26.1121 Q1714.86 26.1121 1718.3 28.6237 Q1721.79 31.1352 1723.45 35.9153 Z" fill="#000000" fill-rule="nonzero" fill-opacity="1" /><path clip-path="url(#clip870)" d="M1786.52 32.4315 Q1780.52 32.4315 1777.04 37.1306 Q1773.56 41.7891 1773.56 49.9314 Q1773.56 58.0738 1777 62.7728 Q1780.48 67.4314 1786.52 67.4314 Q1792.47 67.4314 1795.96 62.7323 Q1799.44 58.0333 1799.44 49.9314 Q1799.44 41.8701 1795.96 37.1711 Q1792.47 32.4315 1786.52 32.4315 M1786.52 26.1121 Q1796.24 26.1121 1801.79 32.4315 Q1807.34 38.7509 1807.34 49.9314 Q1807.34 61.0714 1801.79 67.4314 Q1796.24 73.7508 1786.52 73.7508 Q1776.76 73.7508 1771.21 67.4314 Q1765.7 61.0714 1765.7 49.9314 Q1765.7 38.7509 1771.21 32.4315 Q1776.76 26.1121 1786.52 26.1121 Z" fill="#000000" fill-rule="nonzero" fill-opacity="1" /><path clip-path="url(#clip870)" d="M1849.55 34.0924 L1849.55 9.54393 L1857.01 9.54393 L1857.01 72.576 L1849.55 72.576 L1849.55 65.7705 Q1847.2 69.8214 1843.6 71.8063 Q1840.03 73.7508 1835.01 73.7508 Q1826.79 73.7508 1821.6 67.1883 Q1816.46 60.6258 1816.46 49.9314 Q1816.46 39.2371 1821.6 32.6746 Q1826.79 26.1121 1835.01 26.1121 Q1840.03 26.1121 1843.6 28.0971 Q1847.2 30.0415 1849.55 34.0924 M1824.15 49.9314 Q1824.15 58.1548 1827.51 62.8538 Q1830.92 67.5124 1836.83 67.5124 Q1842.75 67.5124 1846.15 62.8538 Q1849.55 58.1548 1849.55 49.9314 Q1849.55 41.7081 1846.15 37.0496 Q1842.75 32.3505 1836.83 32.3505 Q1830.92 32.3505 1827.51 37.0496 Q1824.15 41.7081 1824.15 49.9314 Z" fill="#000000" fill-rule="nonzero" fill-opacity="1" /><path clip-path="url(#clip870)" d="M1911.17 48.0275 L1911.17 51.6733 L1876.9 51.6733 Q1877.38 59.3701 1881.51 63.421 Q1885.69 67.4314 1893.1 67.4314 Q1897.39 67.4314 1901.4 66.3781 Q1905.45 65.3249 1909.42 63.2184 L1909.42 70.267 Q1905.41 71.9684 1901.2 72.8596 Q1896.99 73.7508 1892.65 73.7508 Q1881.8 73.7508 1875.44 67.4314 Q1869.12 61.1119 1869.12 50.3365 Q1869.12 39.1965 1875.11 32.6746 Q1881.15 26.1121 1891.36 26.1121 Q1900.51 26.1121 1905.82 32.0264 Q1911.17 37.9003 1911.17 48.0275 M1903.71 45.84 Q1903.63 39.7232 1900.27 36.0774 Q1896.95 32.4315 1891.44 32.4315 Q1885.2 32.4315 1881.43 35.9558 Q1877.71 39.4801 1877.14 45.8805 L1903.71 45.84 Z" fill="#000000" fill-rule="nonzero" fill-opacity="1" /><path clip-path="url(#clip870)" d="M1923.4 9.54393 L1930.85 9.54393 L1930.85 72.576 L1923.4 72.576 L1923.4 9.54393 Z" fill="#000000" fill-rule="nonzero" fill-opacity="1" /><polyline clip-path="url(#clip872)" style="stroke:#009af9; stroke-linecap:round; stroke-linejoin:round; stroke-width:4; stroke-opacity:1; fill:none" points="338.848,1267.69 406.27,1200.95 473.692,920.672 541.115,867.285 608.537,827.245 675.96,533.617 743.382,520.27 810.805,600.35 878.227,466.883 945.65,400.15 1013.07,360.109 1080.49,400.15 1147.92,373.456 1215.34,440.19 1282.76,280.029 1350.18,226.642 1417.61,373.456 1485.03,333.416 1552.45,320.069 1619.87,280.029 1687.3,373.456 1754.72,360.109 1822.14,426.843 1889.56,280.029 1956.99,627.044 2024.41,693.777 2091.83,773.858 2159.25,920.672 2226.68,1000.75 2294.1,1227.65 "/>
<polyline clip-path="url(#clip872)" style="stroke:#e26f46; stroke-linecap:round; stroke-linejoin:round; stroke-width:4; stroke-opacity:1; fill:none" points="338.848,893.978 406.27,773.858 473.692,747.164 541.115,533.617 608.537,493.577 675.96,400.15 743.382,346.763 810.805,280.029 878.227,346.763 945.65,360.109 1013.07,373.456 1080.49,293.376 1147.92,213.296 1215.34,253.336 1282.76,253.336 1350.18,266.682 1417.61,159.909 1485.03,226.642 1552.45,333.416 1619.87,386.803 1687.3,373.456 1754.72,386.803 1822.14,280.029 1889.56,333.416 1956.99,533.617 2024.41,520.27 2091.83,760.511 2159.25,960.712 2226.68,1134.22 2294.1,1200.95 "/>
<polyline clip-path="url(#clip872)" style="stroke:#3da44d; stroke-linecap:round; stroke-linejoin:round; stroke-width:4; stroke-opacity:1; fill:none" points="338.848,893.978 406.27,867.285 473.692,747.164 541.115,560.31 608.537,560.31 675.96,320.069 743.382,306.723 810.805,226.642 878.227,333.416 945.65,386.803 1013.07,306.723 1080.49,266.682 1147.92,226.642 1215.34,253.336 1282.76,253.336 1350.18,199.949 1417.61,186.602 1485.03,253.336 1552.45,333.416 1619.87,320.069 1687.3,320.069 1754.72,333.416 1822.14,320.069 1889.56,440.19 1956.99,360.109 2024.41,520.27 2091.83,813.898 2159.25,853.938 2226.68,1054.14 2294.1,1214.3 "/>
<polyline clip-path="url(#clip872)" style="stroke:#c271d2; stroke-linecap:round; stroke-linejoin:round; stroke-width:4; stroke-opacity:1; fill:none" points="338.848,880.631 406.27,720.471 473.692,627.044 541.115,533.617 608.537,386.803 675.96,360.109 743.382,346.763 810.805,239.989 878.227,253.336 945.65,413.496 1013.07,306.723 1080.49,253.336 1147.92,173.255 1215.34,253.336 1282.76,159.909 1350.18,199.949 1417.61,320.069 1485.03,226.642 1552.45,239.989 1619.87,173.255 1687.3,226.642 1754.72,226.642 1822.14,386.803 1889.56,480.23 1956.99,266.682 2024.41,453.536 2091.83,733.818 2159.25,867.285 2226.68,947.365 2294.1,1374.46 "/>
<path clip-path="url(#clip870)" d="M1893.45 425.586 L2283.67 425.586 L2283.67 166.386 L1893.45 166.386  Z" fill="#ffffff" fill-rule="evenodd" fill-opacity="1"/>
<polyline clip-path="url(#clip870)" style="stroke:#000000; stroke-linecap:round; stroke-linejoin:round; stroke-width:4; stroke-opacity:1; fill:none" points="1893.45,425.586 2283.67,425.586 2283.67,166.386 1893.45,166.386 1893.45,425.586 "/>
<polyline clip-path="url(#clip870)" style="stroke:#009af9; stroke-linecap:round; stroke-linejoin:round; stroke-width:4; stroke-opacity:1; fill:none" points="1916.48,218.226 2054.65,218.226 "/>
<path clip-path="url(#clip870)" d="M2099.39 219.858 L2099.39 235.506 L2095.13 235.506 L2095.13 219.997 Q2095.13 216.317 2093.7 214.488 Q2092.26 212.659 2089.39 212.659 Q2085.94 212.659 2083.95 214.858 Q2081.96 217.057 2081.96 220.854 L2081.96 235.506 L2077.68 235.506 L2077.68 209.58 L2081.96 209.58 L2081.96 213.608 Q2083.49 211.27 2085.55 210.113 Q2087.63 208.955 2090.34 208.955 Q2094.81 208.955 2097.1 211.733 Q2099.39 214.488 2099.39 219.858 Z" fill="#000000" fill-rule="nonzero" fill-opacity="1" /><path clip-path="url(#clip870)" d="M2108.44 213.979 L2138.12 213.979 L2138.12 217.867 L2108.44 217.867 L2108.44 213.979 M2108.44 223.423 L2138.12 223.423 L2138.12 227.358 L2108.44 227.358 L2108.44 223.423 Z" fill="#000000" fill-rule="nonzero" fill-opacity="1" /><path clip-path="url(#clip870)" d="M2149.02 231.571 L2156.66 231.571 L2156.66 205.206 L2148.35 206.872 L2148.35 202.613 L2156.61 200.946 L2161.29 200.946 L2161.29 231.571 L2168.93 231.571 L2168.93 235.506 L2149.02 235.506 L2149.02 231.571 Z" fill="#000000" fill-rule="nonzero" fill-opacity="1" /><path clip-path="url(#clip870)" d="M2188.37 204.025 Q2184.76 204.025 2182.93 207.59 Q2181.13 211.131 2181.13 218.261 Q2181.13 225.367 2182.93 228.932 Q2184.76 232.474 2188.37 232.474 Q2192.01 232.474 2193.81 228.932 Q2195.64 225.367 2195.64 218.261 Q2195.64 211.131 2193.81 207.59 Q2192.01 204.025 2188.37 204.025 M2188.37 200.321 Q2194.18 200.321 2197.24 204.928 Q2200.32 209.511 2200.32 218.261 Q2200.32 226.988 2197.24 231.594 Q2194.18 236.178 2188.37 236.178 Q2182.56 236.178 2179.48 231.594 Q2176.43 226.988 2176.43 218.261 Q2176.43 209.511 2179.48 204.928 Q2182.56 200.321 2188.37 200.321 Z" fill="#000000" fill-rule="nonzero" fill-opacity="1" /><path clip-path="url(#clip870)" d="M2218.54 204.025 Q2214.92 204.025 2213.1 207.59 Q2211.29 211.131 2211.29 218.261 Q2211.29 225.367 2213.1 228.932 Q2214.92 232.474 2218.54 232.474 Q2222.17 232.474 2223.98 228.932 Q2225.8 225.367 2225.8 218.261 Q2225.8 211.131 2223.98 207.59 Q2222.17 204.025 2218.54 204.025 M2218.54 200.321 Q2224.35 200.321 2227.4 204.928 Q2230.48 209.511 2230.48 218.261 Q2230.48 226.988 2227.4 231.594 Q2224.35 236.178 2218.54 236.178 Q2212.73 236.178 2209.65 231.594 Q2206.59 226.988 2206.59 218.261 Q2206.59 209.511 2209.65 204.928 Q2212.73 200.321 2218.54 200.321 Z" fill="#000000" fill-rule="nonzero" fill-opacity="1" /><polyline clip-path="url(#clip870)" style="stroke:#e26f46; stroke-linecap:round; stroke-linejoin:round; stroke-width:4; stroke-opacity:1; fill:none" points="1916.48,270.066 2054.65,270.066 "/>
<path clip-path="url(#clip870)" d="M2099.39 271.698 L2099.39 287.346 L2095.13 287.346 L2095.13 271.837 Q2095.13 268.157 2093.7 266.328 Q2092.26 264.499 2089.39 264.499 Q2085.94 264.499 2083.95 266.698 Q2081.96 268.897 2081.96 272.694 L2081.96 287.346 L2077.68 287.346 L2077.68 261.42 L2081.96 261.42 L2081.96 265.448 Q2083.49 263.11 2085.55 261.953 Q2087.63 260.795 2090.34 260.795 Q2094.81 260.795 2097.1 263.573 Q2099.39 266.328 2099.39 271.698 Z" fill="#000000" fill-rule="nonzero" fill-opacity="1" /><path clip-path="url(#clip870)" d="M2108.44 265.819 L2138.12 265.819 L2138.12 269.707 L2108.44 269.707 L2108.44 265.819 M2108.44 275.263 L2138.12 275.263 L2138.12 279.198 L2108.44 279.198 L2108.44 275.263 Z" fill="#000000" fill-rule="nonzero" fill-opacity="1" /><path clip-path="url(#clip870)" d="M2148.26 252.786 L2166.61 252.786 L2166.61 256.721 L2152.54 256.721 L2152.54 265.194 Q2153.56 264.846 2154.58 264.684 Q2155.6 264.499 2156.61 264.499 Q2162.4 264.499 2165.78 267.67 Q2169.16 270.842 2169.16 276.258 Q2169.16 281.837 2165.69 284.939 Q2162.22 288.018 2155.9 288.018 Q2153.72 288.018 2151.45 287.647 Q2149.21 287.277 2146.8 286.536 L2146.8 281.837 Q2148.88 282.971 2151.11 283.527 Q2153.33 284.082 2155.8 284.082 Q2159.81 284.082 2162.15 281.976 Q2164.48 279.869 2164.48 276.258 Q2164.48 272.647 2162.15 270.541 Q2159.81 268.434 2155.8 268.434 Q2153.93 268.434 2152.05 268.851 Q2150.2 269.268 2148.26 270.147 L2148.26 252.786 Z" fill="#000000" fill-rule="nonzero" fill-opacity="1" /><path clip-path="url(#clip870)" d="M2188.37 255.865 Q2184.76 255.865 2182.93 259.43 Q2181.13 262.971 2181.13 270.101 Q2181.13 277.207 2182.93 280.772 Q2184.76 284.314 2188.37 284.314 Q2192.01 284.314 2193.81 280.772 Q2195.64 277.207 2195.64 270.101 Q2195.64 262.971 2193.81 259.43 Q2192.01 255.865 2188.37 255.865 M2188.37 252.161 Q2194.18 252.161 2197.24 256.768 Q2200.32 261.351 2200.32 270.101 Q2200.32 278.828 2197.24 283.434 Q2194.18 288.018 2188.37 288.018 Q2182.56 288.018 2179.48 283.434 Q2176.43 278.828 2176.43 270.101 Q2176.43 261.351 2179.48 256.768 Q2182.56 252.161 2188.37 252.161 Z" fill="#000000" fill-rule="nonzero" fill-opacity="1" /><path clip-path="url(#clip870)" d="M2218.54 255.865 Q2214.92 255.865 2213.1 259.43 Q2211.29 262.971 2211.29 270.101 Q2211.29 277.207 2213.1 280.772 Q2214.92 284.314 2218.54 284.314 Q2222.17 284.314 2223.98 280.772 Q2225.8 277.207 2225.8 270.101 Q2225.8 262.971 2223.98 259.43 Q2222.17 255.865 2218.54 255.865 M2218.54 252.161 Q2224.35 252.161 2227.4 256.768 Q2230.48 261.351 2230.48 270.101 Q2230.48 278.828 2227.4 283.434 Q2224.35 288.018 2218.54 288.018 Q2212.73 288.018 2209.65 283.434 Q2206.59 278.828 2206.59 270.101 Q2206.59 261.351 2209.65 256.768 Q2212.73 252.161 2218.54 252.161 Z" fill="#000000" fill-rule="nonzero" fill-opacity="1" /><polyline clip-path="url(#clip870)" style="stroke:#3da44d; stroke-linecap:round; stroke-linejoin:round; stroke-width:4; stroke-opacity:1; fill:none" points="1916.48,321.906 2054.65,321.906 "/>
<path clip-path="url(#clip870)" d="M2099.39 323.538 L2099.39 339.186 L2095.13 339.186 L2095.13 323.677 Q2095.13 319.997 2093.7 318.168 Q2092.26 316.339 2089.39 316.339 Q2085.94 316.339 2083.95 318.538 Q2081.96 320.737 2081.96 324.534 L2081.96 339.186 L2077.68 339.186 L2077.68 313.26 L2081.96 313.26 L2081.96 317.288 Q2083.49 314.95 2085.55 313.793 Q2087.63 312.635 2090.34 312.635 Q2094.81 312.635 2097.1 315.413 Q2099.39 318.168 2099.39 323.538 Z" fill="#000000" fill-rule="nonzero" fill-opacity="1" /><path clip-path="url(#clip870)" d="M2108.44 317.659 L2138.12 317.659 L2138.12 321.547 L2108.44 321.547 L2108.44 317.659 M2108.44 327.103 L2138.12 327.103 L2138.12 331.038 L2108.44 331.038 L2108.44 327.103 Z" fill="#000000" fill-rule="nonzero" fill-opacity="1" /><path clip-path="url(#clip870)" d="M2149.02 335.251 L2156.66 335.251 L2156.66 308.886 L2148.35 310.552 L2148.35 306.293 L2156.61 304.626 L2161.29 304.626 L2161.29 335.251 L2168.93 335.251 L2168.93 339.186 L2149.02 339.186 L2149.02 335.251 Z" fill="#000000" fill-rule="nonzero" fill-opacity="1" /><path clip-path="url(#clip870)" d="M2188.37 307.705 Q2184.76 307.705 2182.93 311.27 Q2181.13 314.811 2181.13 321.941 Q2181.13 329.047 2182.93 332.612 Q2184.76 336.154 2188.37 336.154 Q2192.01 336.154 2193.81 332.612 Q2195.64 329.047 2195.64 321.941 Q2195.64 314.811 2193.81 311.27 Q2192.01 307.705 2188.37 307.705 M2188.37 304.001 Q2194.18 304.001 2197.24 308.608 Q2200.32 313.191 2200.32 321.941 Q2200.32 330.668 2197.24 335.274 Q2194.18 339.858 2188.37 339.858 Q2182.56 339.858 2179.48 335.274 Q2176.43 330.668 2176.43 321.941 Q2176.43 313.191 2179.48 308.608 Q2182.56 304.001 2188.37 304.001 Z" fill="#000000" fill-rule="nonzero" fill-opacity="1" /><path clip-path="url(#clip870)" d="M2218.54 307.705 Q2214.92 307.705 2213.1 311.27 Q2211.29 314.811 2211.29 321.941 Q2211.29 329.047 2213.1 332.612 Q2214.92 336.154 2218.54 336.154 Q2222.17 336.154 2223.98 332.612 Q2225.8 329.047 2225.8 321.941 Q2225.8 314.811 2223.98 311.27 Q2222.17 307.705 2218.54 307.705 M2218.54 304.001 Q2224.35 304.001 2227.4 308.608 Q2230.48 313.191 2230.48 321.941 Q2230.48 330.668 2227.4 335.274 Q2224.35 339.858 2218.54 339.858 Q2212.73 339.858 2209.65 335.274 Q2206.59 330.668 2206.59 321.941 Q2206.59 313.191 2209.65 308.608 Q2212.73 304.001 2218.54 304.001 Z" fill="#000000" fill-rule="nonzero" fill-opacity="1" /><path clip-path="url(#clip870)" d="M2248.7 307.705 Q2245.09 307.705 2243.26 311.27 Q2241.45 314.811 2241.45 321.941 Q2241.45 329.047 2243.26 332.612 Q2245.09 336.154 2248.7 336.154 Q2252.33 336.154 2254.14 332.612 Q2255.97 329.047 2255.97 321.941 Q2255.97 314.811 2254.14 311.27 Q2252.33 307.705 2248.7 307.705 M2248.7 304.001 Q2254.51 304.001 2257.56 308.608 Q2260.64 313.191 2260.64 321.941 Q2260.64 330.668 2257.56 335.274 Q2254.51 339.858 2248.7 339.858 Q2242.89 339.858 2239.81 335.274 Q2236.75 330.668 2236.75 321.941 Q2236.75 313.191 2239.81 308.608 Q2242.89 304.001 2248.7 304.001 Z" fill="#000000" fill-rule="nonzero" fill-opacity="1" /><polyline clip-path="url(#clip870)" style="stroke:#c271d2; stroke-linecap:round; stroke-linejoin:round; stroke-width:4; stroke-opacity:1; fill:none" points="1916.48,373.746 2054.65,373.746 "/>
<path clip-path="url(#clip870)" d="M2099.39 375.378 L2099.39 391.026 L2095.13 391.026 L2095.13 375.517 Q2095.13 371.837 2093.7 370.008 Q2092.26 368.179 2089.39 368.179 Q2085.94 368.179 2083.95 370.378 Q2081.96 372.577 2081.96 376.374 L2081.96 391.026 L2077.68 391.026 L2077.68 365.1 L2081.96 365.1 L2081.96 369.128 Q2083.49 366.79 2085.55 365.633 Q2087.63 364.475 2090.34 364.475 Q2094.81 364.475 2097.1 367.253 Q2099.39 370.008 2099.39 375.378 Z" fill="#000000" fill-rule="nonzero" fill-opacity="1" /><path clip-path="url(#clip870)" d="M2108.44 369.499 L2138.12 369.499 L2138.12 373.387 L2108.44 373.387 L2108.44 369.499 M2108.44 378.943 L2138.12 378.943 L2138.12 382.878 L2108.44 382.878 L2108.44 378.943 Z" fill="#000000" fill-rule="nonzero" fill-opacity="1" /><path clip-path="url(#clip870)" d="M2162.38 372.392 Q2165.73 373.11 2167.61 375.378 Q2169.51 377.647 2169.51 380.98 Q2169.51 386.096 2165.99 388.897 Q2162.47 391.698 2155.99 391.698 Q2153.81 391.698 2151.5 391.258 Q2149.21 390.841 2146.75 389.985 L2146.75 385.471 Q2148.7 386.605 2151.01 387.184 Q2153.33 387.762 2155.85 387.762 Q2160.25 387.762 2162.54 386.026 Q2164.86 384.29 2164.86 380.98 Q2164.86 377.924 2162.7 376.212 Q2160.57 374.475 2156.75 374.475 L2152.73 374.475 L2152.73 370.633 L2156.94 370.633 Q2160.39 370.633 2162.22 369.267 Q2164.05 367.878 2164.05 365.286 Q2164.05 362.624 2162.15 361.212 Q2160.27 359.776 2156.75 359.776 Q2154.83 359.776 2152.63 360.193 Q2150.43 360.61 2147.8 361.489 L2147.8 357.323 Q2150.46 356.582 2152.77 356.212 Q2155.11 355.841 2157.17 355.841 Q2162.49 355.841 2165.6 358.272 Q2168.7 360.679 2168.7 364.8 Q2168.7 367.67 2167.05 369.661 Q2165.41 371.628 2162.38 372.392 Z" fill="#000000" fill-rule="nonzero" fill-opacity="1" /><path clip-path="url(#clip870)" d="M2188.37 359.545 Q2184.76 359.545 2182.93 363.11 Q2181.13 366.651 2181.13 373.781 Q2181.13 380.887 2182.93 384.452 Q2184.76 387.994 2188.37 387.994 Q2192.01 387.994 2193.81 384.452 Q2195.64 380.887 2195.64 373.781 Q2195.64 366.651 2193.81 363.11 Q2192.01 359.545 2188.37 359.545 M2188.37 355.841 Q2194.18 355.841 2197.24 360.448 Q2200.32 365.031 2200.32 373.781 Q2200.32 382.508 2197.24 387.114 Q2194.18 391.698 2188.37 391.698 Q2182.56 391.698 2179.48 387.114 Q2176.43 382.508 2176.43 373.781 Q2176.43 365.031 2179.48 360.448 Q2182.56 355.841 2188.37 355.841 Z" fill="#000000" fill-rule="nonzero" fill-opacity="1" /><path clip-path="url(#clip870)" d="M2218.54 359.545 Q2214.92 359.545 2213.1 363.11 Q2211.29 366.651 2211.29 373.781 Q2211.29 380.887 2213.1 384.452 Q2214.92 387.994 2218.54 387.994 Q2222.17 387.994 2223.98 384.452 Q2225.8 380.887 2225.8 373.781 Q2225.8 366.651 2223.98 363.11 Q2222.17 359.545 2218.54 359.545 M2218.54 355.841 Q2224.35 355.841 2227.4 360.448 Q2230.48 365.031 2230.48 373.781 Q2230.48 382.508 2227.4 387.114 Q2224.35 391.698 2218.54 391.698 Q2212.73 391.698 2209.65 387.114 Q2206.59 382.508 2206.59 373.781 Q2206.59 365.031 2209.65 360.448 Q2212.73 355.841 2218.54 355.841 Z" fill="#000000" fill-rule="nonzero" fill-opacity="1" /><path clip-path="url(#clip870)" d="M2248.7 359.545 Q2245.09 359.545 2243.26 363.11 Q2241.45 366.651 2241.45 373.781 Q2241.45 380.887 2243.26 384.452 Q2245.09 387.994 2248.7 387.994 Q2252.33 387.994 2254.14 384.452 Q2255.97 380.887 2255.97 373.781 Q2255.97 366.651 2254.14 363.11 Q2252.33 359.545 2248.7 359.545 M2248.7 355.841 Q2254.51 355.841 2257.56 360.448 Q2260.64 365.031 2260.64 373.781 Q2260.64 382.508 2257.56 387.114 Q2254.51 391.698 2248.7 391.698 Q2242.89 391.698 2239.81 387.114 Q2236.75 382.508 2236.75 373.781 Q2236.75 365.031 2239.81 360.448 Q2242.89 355.841 2248.7 355.841 Z" fill="#000000" fill-rule="nonzero" fill-opacity="1" /></svg>
